ChironSungHKVF-weight1000-Master.ufo
<glyph name="cid40913" format="2">
  <advance height="1000" width="512"/>
  <unicode hex="0022"/>
  <outline>
    <contour>
      <point x="233" y="823" type="curve" smooth="yes"/>
      <point x="189" y="823"/>
      <point x="161" y="800"/>
      <point x="151" y="741" type="curve" smooth="yes"/>
      <point x="142" y="692"/>
      <point x="143" y="602"/>
      <point x="144" y="551" type="curve"/>
      <point x="144" y="551"/>
      <point x="148" y="452"/>
      <point x="148" y="452" type="curve"/>
      <point x="148" y="452"/>
      <point x="192" y="452"/>
      <point x="192" y="452" type="curve"/>
      <point x="254" y="609"/>
      <point x="296" y="703"/>
      <point x="296" y="756" type="curve" smooth="yes"/>
      <point x="296" y="797"/>
      <point x="273" y="823"/>
    </contour>
    <contour>
      <point x="455" y="823" type="curve" smooth="yes"/>
      <point x="411" y="823"/>
      <point x="383" y="800"/>
      <point x="373" y="741" type="curve" smooth="yes"/>
      <point x="364" y="692"/>
      <point x="365" y="602"/>
      <point x="366" y="551" type="curve"/>
      <point x="366" y="551"/>
      <point x="370" y="452"/>
      <point x="370" y="452" type="curve"/>
      <point x="370" y="452"/>
      <point x="413" y="452"/>
      <point x="413" y="452" type="curve"/>
      <point x="476" y="609"/>
      <point x="517" y="703"/>
      <point x="517" y="756" type="curve" smooth="yes"/>
      <point x="517" y="797"/>
      <point x="495" y="823"/>
    </contour>
  </outline>
</glyph>
<glyph name="cid41016" format="2">
  <advance height="1000" width="652"/>
  <unicode hex="0023"/>
  <outline>
    <contour>
      <point x="84" y="10" type="line"/>
      <point x="165" y="10" type="line"/>
      <point x="356" y="730" type="line"/>
      <point x="276" y="730" type="line"/>
    </contour>
    <contour>
      <point x="38" y="307" type="line"/>
      <point x="18" y="193" type="line"/>
      <point x="576" y="193" type="line"/>
      <point x="596" y="307" type="line"/>
    </contour>
    <contour>
      <point x="642" y="433" type="line"/>
      <point x="662" y="548" type="line"/>
      <point x="103" y="548" type="line"/>
      <point x="83" y="433" type="line"/>
    </contour>
    <contour>
      <point x="330" y="10" type="line"/>
      <point x="411" y="10" type="line"/>
      <point x="603" y="730" type="line"/>
      <point x="523" y="730" type="line"/>
    </contour>
  </outline>
</glyph>
<glyph name="cid41195" format="2">
  <advance height="1000" width="598"/>
  <unicode hex="0024"/>
  <outline>
    <contour>
      <point x="184" y="-119" type="curve"/>
      <point x="184" y="-119"/>
      <point x="240" y="-119"/>
      <point x="240" y="-119" type="curve"/>
      <point x="240" y="-119"/>
      <point x="337" y="364"/>
      <point x="337" y="364" type="curve"/>
      <point x="337" y="364"/>
      <point x="282" y="364"/>
      <point x="282" y="364" type="curve"/>
      <point x="282" y="364"/>
      <point x="184" y="-119"/>
    </contour>
    <contour>
      <point x="234" y="-6" type="curve" smooth="yes"/>
      <point x="418" y="-6"/>
      <point x="526" y="78"/>
      <point x="526" y="222" type="curve" smooth="yes"/>
      <point x="526" y="321"/>
      <point x="466" y="371"/>
      <point x="367" y="429" type="curve"/>
      <point x="367" y="429"/>
      <point x="337" y="447"/>
      <point x="337" y="447" type="curve"/>
      <point x="283" y="478"/>
      <point x="246" y="505"/>
      <point x="246" y="563" type="curve" smooth="yes"/>
      <point x="246" y="647"/>
      <point x="304" y="684"/>
      <point x="379" y="684" type="curve" smooth="yes"/>
      <point x="426" y="684"/>
      <point x="466" y="676"/>
      <point x="513" y="646" type="curve"/>
      <point x="513" y="646"/>
      <point x="449" y="698"/>
      <point x="449" y="698" type="curve"/>
      <point x="449" y="698"/>
      <point x="454" y="609"/>
      <point x="454" y="609" type="curve"/>
      <point x="457" y="542"/>
      <point x="487" y="527"/>
      <point x="520" y="527" type="curve" smooth="yes"/>
      <point x="553" y="527"/>
      <point x="573" y="548"/>
      <point x="581" y="588" type="curve"/>
      <point x="573" y="686"/>
      <point x="494" y="734"/>
      <point x="381" y="734" type="curve" smooth="yes"/>
      <point x="204" y="734"/>
      <point x="108" y="642"/>
      <point x="108" y="513" type="curve" smooth="yes"/>
      <point x="108" y="418"/>
      <point x="166" y="364"/>
      <point x="250" y="312" type="curve"/>
      <point x="250" y="312"/>
      <point x="280" y="293"/>
      <point x="280" y="293" type="curve"/>
      <point x="339" y="258"/>
      <point x="382" y="233"/>
      <point x="382" y="171" type="curve" smooth="yes"/>
      <point x="382" y="91"/>
      <point x="324" y="41"/>
      <point x="241" y="41" type="curve" smooth="yes"/>
      <point x="185" y="41"/>
      <point x="147" y="55"/>
      <point x="102" y="84" type="curve"/>
      <point x="102" y="84"/>
      <point x="162" y="34"/>
      <point x="162" y="34" type="curve"/>
      <point x="162" y="34"/>
      <point x="158" y="131"/>
      <point x="158" y="131" type="curve"/>
      <point x="155" y="196"/>
      <point x="130" y="213"/>
      <point x="95" y="213" type="curve" smooth="yes"/>
      <point x="68" y="213"/>
      <point x="41" y="194"/>
      <point x="31" y="162" type="curve"/>
      <point x="34" y="49"/>
      <point x="110" y="-6"/>
    </contour>
    <contour>
      <point x="288" y="364" type="curve"/>
      <point x="288" y="364"/>
      <point x="344" y="364"/>
      <point x="344" y="364" type="curve"/>
      <point x="344" y="364"/>
      <point x="439" y="834"/>
      <point x="439" y="834" type="curve"/>
      <point x="439" y="834"/>
      <point x="384" y="834"/>
      <point x="384" y="834" type="curve"/>
      <point x="384" y="834"/>
      <point x="288" y="364"/>
    </contour>
  </outline>
</glyph>
<glyph name="cid41238" format="2">
  <advance height="1000" width="1010"/>
  <unicode hex="0025"/>
  <outline>
    <contour>
      <point x="208" y="296" type="curve" smooth="yes"/>
      <point x="340" y="296"/>
      <point x="430" y="433"/>
      <point x="430" y="600" type="curve" smooth="yes"/>
      <point x="430" y="704"/>
      <point x="377" y="758"/>
      <point x="289" y="758" type="curve" smooth="yes"/>
      <point x="153" y="758"/>
      <point x="63" y="611"/>
      <point x="63" y="455" type="curve" smooth="yes"/>
      <point x="63" y="342"/>
      <point x="124" y="296"/>
    </contour>
    <contour>
      <point x="207" y="330" type="curve" smooth="yes"/>
      <point x="189" y="330"/>
      <point x="170" y="343"/>
      <point x="170" y="406" type="curve" smooth="yes"/>
      <point x="170" y="536"/>
      <point x="226" y="722"/>
      <point x="286" y="722" type="curve" smooth="yes"/>
      <point x="305" y="722"/>
      <point x="323" y="710"/>
      <point x="323" y="650" type="curve" smooth="yes"/>
      <point x="323" y="539"/>
      <point x="270" y="330"/>
    </contour>
    <contour>
      <point x="265" y="-14" type="line"/>
      <point x="810" y="703" type="line"/>
      <point x="763" y="739" type="line"/>
      <point x="217" y="22" type="line"/>
    </contour>
    <contour>
      <point x="745" y="0" type="curve" smooth="yes"/>
      <point x="877" y="0"/>
      <point x="967" y="138"/>
      <point x="967" y="305" type="curve" smooth="yes"/>
      <point x="967" y="409"/>
      <point x="914" y="462"/>
      <point x="825" y="462" type="curve" smooth="yes"/>
      <point x="690" y="462"/>
      <point x="599" y="316"/>
      <point x="599" y="159" type="curve" smooth="yes"/>
      <point x="599" y="46"/>
      <point x="661" y="0"/>
    </contour>
    <contour>
      <point x="744" y="35" type="curve" smooth="yes"/>
      <point x="726" y="35"/>
      <point x="707" y="47"/>
      <point x="707" y="111" type="curve" smooth="yes"/>
      <point x="707" y="241"/>
      <point x="763" y="427"/>
      <point x="822" y="427" type="curve" smooth="yes"/>
      <point x="841" y="427"/>
      <point x="859" y="414"/>
      <point x="859" y="354" type="curve" smooth="yes"/>
      <point x="859" y="243"/>
      <point x="806" y="35"/>
    </contour>
  </outline>
</glyph>
<glyph name="cid40764" format="2">
  <advance height="1000" width="805"/>
  <unicode hex="0026"/>
  <outline>
    <contour>
      <point x="365" y="-8" type="curve" smooth="yes"/>
      <point x="547" y="-8"/>
      <point x="644" y="90"/>
      <point x="644" y="210" type="curve" smooth="yes"/>
      <point x="644" y="282"/>
      <point x="603" y="338"/>
      <point x="521" y="352" type="curve"/>
      <point x="521" y="352"/>
      <point x="520" y="329"/>
      <point x="520" y="329" type="curve"/>
      <point x="672" y="345"/>
      <point x="775" y="411"/>
      <point x="833" y="541" type="curve"/>
      <point x="833" y="541"/>
      <point x="722" y="591"/>
      <point x="722" y="591" type="curve"/>
      <point x="680" y="466"/>
      <point x="606" y="390"/>
      <point x="482" y="373" type="curve"/>
      <point x="482" y="373"/>
      <point x="473" y="319"/>
      <point x="473" y="319" type="curve"/>
      <point x="544" y="311"/>
      <point x="568" y="275"/>
      <point x="568" y="232" type="curve" smooth="yes"/>
      <point x="568" y="163"/>
      <point x="506" y="111"/>
      <point x="398" y="111" type="curve" smooth="yes"/>
      <point x="280" y="111"/>
      <point x="202" y="172"/>
      <point x="202" y="279" type="curve" smooth="yes"/>
      <point x="202" y="336"/>
      <point x="222" y="398"/>
      <point x="280" y="439" type="curve"/>
      <point x="280" y="439"/>
      <point x="250" y="440"/>
      <point x="250" y="440" type="curve"/>
      <point x="296" y="398"/>
      <point x="347" y="378"/>
      <point x="401" y="378" type="curve" smooth="yes"/>
      <point x="444" y="378"/>
      <point x="468" y="396"/>
      <point x="468" y="430" type="curve" smooth="yes"/>
      <point x="468" y="462"/>
      <point x="436" y="493"/>
      <point x="358" y="493" type="curve" smooth="yes"/>
      <point x="332" y="493"/>
      <point x="311" y="488"/>
      <point x="287" y="487" type="curve"/>
      <point x="287" y="487"/>
      <point x="334" y="469"/>
      <point x="334" y="469" type="curve"/>
      <point x="311" y="504"/>
      <point x="306" y="533"/>
      <point x="306" y="563" type="curve" smooth="yes"/>
      <point x="306" y="661"/>
      <point x="361" y="723"/>
      <point x="464" y="723" type="curve" smooth="yes"/>
      <point x="485" y="723"/>
      <point x="504" y="721"/>
      <point x="525" y="718" type="curve"/>
      <point x="525" y="718"/>
      <point x="451" y="744"/>
      <point x="451" y="744" type="curve"/>
      <point x="451" y="744"/>
      <point x="482" y="670"/>
      <point x="482" y="670" type="curve"/>
      <point x="503" y="619"/>
      <point x="529" y="602"/>
      <point x="560" y="602" type="curve" smooth="yes"/>
      <point x="597" y="602"/>
      <point x="617" y="626"/>
      <point x="619" y="656" type="curve"/>
      <point x="606" y="721"/>
      <point x="545" y="766"/>
      <point x="432" y="766" type="curve" smooth="yes"/>
      <point x="279" y="766"/>
      <point x="195" y="671"/>
      <point x="195" y="570" type="curve" smooth="yes"/>
      <point x="195" y="526"/>
      <point x="207" y="488"/>
      <point x="239" y="450" type="curve"/>
      <point x="239" y="450"/>
      <point x="243" y="469"/>
      <point x="243" y="469" type="curve"/>
      <point x="112" y="430"/>
      <point x="49" y="335"/>
      <point x="49" y="227" type="curve" smooth="yes"/>
      <point x="49" y="94"/>
      <point x="158" y="-8"/>
    </contour>
  </outline>
</glyph>
<glyph name="cid40908" format="2">
  <advance height="1000" width="290"/>
  <unicode hex="0027"/>
  <outline>
    <contour>
      <point x="233" y="823" type="curve" smooth="yes"/>
      <point x="189" y="823"/>
      <point x="161" y="800"/>
      <point x="151" y="741" type="curve" smooth="yes"/>
      <point x="142" y="692"/>
      <point x="143" y="602"/>
      <point x="144" y="551" type="curve"/>
      <point x="144" y="551"/>
      <point x="148" y="452"/>
      <point x="148" y="452" type="curve"/>
      <point x="148" y="452"/>
      <point x="192" y="452"/>
      <point x="192" y="452" type="curve"/>
      <point x="254" y="609"/>
      <point x="296" y="703"/>
      <point x="296" y="756" type="curve" smooth="yes"/>
      <point x="296" y="797"/>
      <point x="273" y="823"/>
    </contour>
  </outline>
</glyph>
<glyph name="cid40948" format="2">
  <advance height="1000" width="427"/>
  <unicode hex="0028"/>
  <outline>
    <contour>
      <point x="251" y="-195" type="curve"/>
      <point x="295" y="-164" type="line"/>
      <point x="233" y="-57"/>
      <point x="198" y="58"/>
      <point x="198" y="193" type="curve" smooth="yes"/>
      <point x="198" y="403"/>
      <point x="282" y="613"/>
      <point x="469" y="770" type="curve"/>
      <point x="440" y="812" type="line"/>
      <point x="206" y="670"/>
      <point x="74" y="451"/>
      <point x="74" y="216" type="curve" smooth="yes"/>
      <point x="74" y="45"/>
      <point x="149" y="-91"/>
    </contour>
  </outline>
</glyph>
<glyph name="cid40950" format="2">
  <advance height="1000" width="427"/>
  <unicode hex="0029"/>
  <outline>
    <contour>
      <point x="170" y="811" type="curve"/>
      <point x="127" y="779" type="line"/>
      <point x="188" y="673"/>
      <point x="223" y="558"/>
      <point x="223" y="423" type="curve" smooth="yes"/>
      <point x="223" y="213"/>
      <point x="139" y="3"/>
      <point x="-48" y="-155" type="curve"/>
      <point x="-19" y="-196" type="line"/>
      <point x="215" y="-54"/>
      <point x="347" y="165"/>
      <point x="347" y="400" type="curve" smooth="yes"/>
      <point x="347" y="571"/>
      <point x="272" y="707"/>
    </contour>
  </outline>
</glyph>
<glyph name="cid40994" format="2">
  <advance height="1000" width="512"/>
  <unicode hex="002A"/>
  <outline>
    <contour>
      <point x="234" y="778" type="curve" smooth="yes"/>
      <point x="234" y="754"/>
      <point x="255" y="709"/>
      <point x="321" y="585" type="curve"/>
      <point x="330" y="585" type="line"/>
      <point x="344" y="714"/>
      <point x="348" y="757"/>
      <point x="345" y="781" type="curve" smooth="yes"/>
      <point x="340" y="814"/>
      <point x="321" y="834"/>
      <point x="290" y="834" type="curve" smooth="yes"/>
      <point x="252" y="834"/>
      <point x="234" y="807"/>
    </contour>
    <contour>
      <point x="91" y="627" type="curve" smooth="yes"/>
      <point x="91" y="566"/>
      <point x="159" y="561"/>
      <point x="337" y="599" type="curve"/>
      <point x="338" y="607" type="line"/>
      <point x="213" y="664"/>
      <point x="174" y="682"/>
      <point x="144" y="682" type="curve" smooth="yes"/>
      <point x="115" y="682"/>
      <point x="91" y="661"/>
    </contour>
    <contour>
      <point x="189" y="439" type="curve" smooth="yes"/>
      <point x="189" y="411"/>
      <point x="215" y="389"/>
      <point x="244" y="389" type="curve" smooth="yes"/>
      <point x="290" y="389"/>
      <point x="310" y="443"/>
      <point x="333" y="618" type="curve"/>
      <point x="326" y="622" type="line"/>
      <point x="220" y="507"/>
      <point x="189" y="473"/>
    </contour>
    <contour>
      <point x="306" y="615" type="line"/>
      <point x="385" y="469"/>
      <point x="414" y="426"/>
      <point x="454" y="426" type="curve" smooth="yes"/>
      <point x="486" y="427"/>
      <point x="507" y="457"/>
      <point x="506" y="482" type="curve" smooth="yes"/>
      <point x="505" y="521"/>
      <point x="464" y="546"/>
      <point x="310" y="618" type="curve"/>
    </contour>
    <contour>
      <point x="479" y="744" type="curve" smooth="yes"/>
      <point x="450" y="744"/>
      <point x="412" y="711"/>
      <point x="305" y="597" type="curve"/>
      <point x="307" y="591" type="line"/>
      <point x="473" y="623"/>
      <point x="534" y="643"/>
      <point x="534" y="686" type="curve" smooth="yes"/>
      <point x="534" y="725"/>
      <point x="507" y="744"/>
    </contour>
  </outline>
</glyph>
<glyph name="cid41253" format="2">
  <advance height="1000" width="597"/>
  <unicode hex="002B"/>
  <outline>
    <contour>
      <point x="262" y="105" type="curve"/>
      <point x="262" y="105"/>
      <point x="345" y="105"/>
      <point x="345" y="105" type="curve"/>
      <point x="345" y="105"/>
      <point x="345" y="633"/>
      <point x="345" y="633" type="curve"/>
      <point x="345" y="633"/>
      <point x="262" y="633"/>
      <point x="262" y="633" type="curve"/>
      <point x="262" y="633"/>
      <point x="262" y="105"/>
    </contour>
    <contour>
      <point x="556" y="333" type="curve"/>
      <point x="556" y="333"/>
      <point x="556" y="411"/>
      <point x="556" y="411" type="curve"/>
      <point x="556" y="411"/>
      <point x="50" y="411"/>
      <point x="50" y="411" type="curve"/>
      <point x="50" y="411"/>
      <point x="50" y="333"/>
      <point x="50" y="333" type="curve"/>
      <point x="50" y="333"/>
      <point x="556" y="333"/>
    </contour>
  </outline>
</glyph>
<glyph name="cid40893" format="2">
  <advance height="1000" width="330"/>
  <unicode hex="002E"/>
  <outline>
    <contour>
      <point x="118" y="-5" type="curve" smooth="yes"/>
      <point x="172" y="-5"/>
      <point x="221" y="38"/>
      <point x="221" y="95" type="curve" smooth="yes"/>
      <point x="221" y="140"/>
      <point x="186" y="179"/>
      <point x="136" y="179" type="curve" smooth="yes"/>
      <point x="81" y="179"/>
      <point x="32" y="135"/>
      <point x="32" y="78" type="curve" smooth="yes"/>
      <point x="32" y="34"/>
      <point x="67" y="-5"/>
    </contour>
  </outline>
</glyph>
<glyph name="cid40988" format="2">
  <advance height="1000" width="418"/>
  <unicode hex="002F"/>
  <outline>
    <contour>
      <point x="-101" y="-169" type="curve"/>
      <point x="-101" y="-169"/>
      <point x="7" y="-169"/>
      <point x="7" y="-169" type="curve"/>
      <point x="7" y="-169"/>
      <point x="498" y="804"/>
      <point x="498" y="804" type="curve"/>
      <point x="498" y="804"/>
      <point x="391" y="804"/>
      <point x="391" y="804" type="curve"/>
      <point x="391" y="804"/>
      <point x="-101" y="-169"/>
    </contour>
  </outline>
</glyph>
<glyph name="cid40771" format="2">
  <advance height="1000" width="598"/>
  <unicode hex="0030"/>
  <outline>
    <contour>
      <point x="245" y="-6" type="curve" smooth="yes"/>
      <point x="439" y="-6"/>
      <point x="582" y="224"/>
      <point x="582" y="499" type="curve" smooth="yes"/>
      <point x="582" y="656"/>
      <point x="503" y="732"/>
      <point x="375" y="732" type="curve" smooth="yes"/>
      <point x="178" y="732"/>
      <point x="38" y="492"/>
      <point x="38" y="231" type="curve" smooth="yes"/>
      <point x="38" y="70"/>
      <point x="124" y="-6"/>
    </contour>
    <contour>
      <point x="251" y="44" type="curve" smooth="yes"/>
      <point x="215" y="44"/>
      <point x="186" y="72"/>
      <point x="186" y="188" type="curve" smooth="yes"/>
      <point x="186" y="403"/>
      <point x="274" y="681"/>
      <point x="371" y="681" type="curve" smooth="yes"/>
      <point x="405" y="681"/>
      <point x="435" y="654"/>
      <point x="435" y="544" type="curve" smooth="yes"/>
      <point x="435" y="345"/>
      <point x="351" y="44"/>
    </contour>
  </outline>
</glyph>
<glyph name="cid40776" format="2">
  <advance height="1000" width="598"/>
  <unicode hex="0031"/>
  <outline>
    <contour>
      <point x="39" y="10" type="line"/>
      <point x="460" y="10" type="line"/>
      <point x="469" y="54" type="line"/>
      <point x="300" y="76" type="line"/>
      <point x="222" y="76" type="line"/>
      <point x="48" y="54" type="line"/>
    </contour>
    <contour>
      <point x="168" y="10" type="line"/>
      <point x="325" y="10" type="line"/>
      <point x="336" y="81"/>
      <point x="353" y="167"/>
      <point x="368" y="243" type="curve" smooth="yes"/>
      <point x="430" y="541" type="line"/>
      <point x="470" y="720" type="line"/>
      <point x="458" y="731" type="line"/>
      <point x="179" y="663" type="line"/>
      <point x="170" y="622" type="line"/>
      <point x="327" y="630" type="line"/>
      <point x="300" y="661" type="line"/>
    </contour>
  </outline>
</glyph>
<glyph name="cid40779" format="2">
  <advance height="1000" width="598"/>
  <unicode hex="0032"/>
  <outline>
    <contour>
      <point x="21" y="10" type="line"/>
      <point x="487" y="10" type="line"/>
      <point x="513" y="141" type="line"/>
      <point x="144" y="141" type="line"/>
      <point x="144" y="162" type="line"/>
      <point x="116" y="111" type="line"/>
      <point x="254" y="213" type="line" smooth="yes"/>
      <point x="454" y="359"/>
      <point x="569" y="441"/>
      <point x="569" y="566" type="curve" smooth="yes"/>
      <point x="569" y="664"/>
      <point x="500" y="734"/>
      <point x="367" y="734" type="curve" smooth="yes"/>
      <point x="246" y="734"/>
      <point x="144" y="683"/>
      <point x="116" y="551" type="curve"/>
      <point x="122" y="510"/>
      <point x="144" y="489"/>
      <point x="177" y="489" type="curve" smooth="yes"/>
      <point x="218" y="489"/>
      <point x="244" y="513"/>
      <point x="251" y="589" type="curve" smooth="yes"/>
      <point x="262" y="704" type="line"/>
      <point x="203" y="643" type="line"/>
      <point x="242" y="670"/>
      <point x="281" y="678"/>
      <point x="321" y="678" type="curve" smooth="yes"/>
      <point x="379" y="678"/>
      <point x="419" y="645"/>
      <point x="419" y="571" type="curve" smooth="yes"/>
      <point x="419" y="471"/>
      <point x="354" y="383"/>
      <point x="199" y="242" type="curve" smooth="yes"/>
      <point x="38" y="94" type="line"/>
    </contour>
  </outline>
</glyph>
<glyph name="cid40780" format="2">
  <advance height="1000" width="598"/>
  <unicode hex="0033"/>
  <outline>
    <contour>
      <point x="242" y="-7" type="curve" smooth="yes"/>
      <point x="413" y="-7"/>
      <point x="530" y="82"/>
      <point x="530" y="204" type="curve" smooth="yes"/>
      <point x="530" y="311"/>
      <point x="459" y="367"/>
      <point x="314" y="378" type="curve"/>
      <point x="314" y="378"/>
      <point x="311" y="365"/>
      <point x="311" y="365" type="curve"/>
      <point x="477" y="380"/>
      <point x="566" y="469"/>
      <point x="566" y="567" type="curve" smooth="yes"/>
      <point x="566" y="657"/>
      <point x="503" y="734"/>
      <point x="354" y="734" type="curve" smooth="yes"/>
      <point x="231" y="734"/>
      <point x="136" y="673"/>
      <point x="127" y="561" type="curve"/>
      <point x="136" y="539"/>
      <point x="158" y="524"/>
      <point x="183" y="524" type="curve" smooth="yes"/>
      <point x="220" y="524"/>
      <point x="246" y="544"/>
      <point x="255" y="601" type="curve"/>
      <point x="255" y="601"/>
      <point x="273" y="704"/>
      <point x="273" y="704" type="curve"/>
      <point x="273" y="704"/>
      <point x="217" y="660"/>
      <point x="217" y="660" type="curve"/>
      <point x="253" y="676"/>
      <point x="288" y="682"/>
      <point x="316" y="682" type="curve" smooth="yes"/>
      <point x="383" y="682"/>
      <point x="422" y="639"/>
      <point x="422" y="562" type="curve" smooth="yes"/>
      <point x="422" y="461"/>
      <point x="349" y="395"/>
      <point x="256" y="395" type="curve"/>
      <point x="256" y="395"/>
      <point x="226" y="395"/>
      <point x="226" y="395" type="curve"/>
      <point x="226" y="395"/>
      <point x="215" y="343"/>
      <point x="215" y="343" type="curve"/>
      <point x="215" y="343"/>
      <point x="245" y="343"/>
      <point x="245" y="343" type="curve"/>
      <point x="320" y="343"/>
      <point x="370" y="294"/>
      <point x="370" y="213" type="curve" smooth="yes"/>
      <point x="370" y="110"/>
      <point x="299" y="45"/>
      <point x="215" y="45" type="curve" smooth="yes"/>
      <point x="175" y="45"/>
      <point x="144" y="51"/>
      <point x="116" y="68" type="curve"/>
      <point x="116" y="68"/>
      <point x="166" y="25"/>
      <point x="166" y="25" type="curve"/>
      <point x="166" y="25"/>
      <point x="164" y="133"/>
      <point x="164" y="133" type="curve"/>
      <point x="161" y="202"/>
      <point x="137" y="221"/>
      <point x="99" y="221" type="curve" smooth="yes"/>
      <point x="74" y="222"/>
      <point x="49" y="205"/>
      <point x="37" y="171" type="curve"/>
      <point x="37" y="54"/>
      <point x="113" y="-7"/>
    </contour>
  </outline>
</glyph>
<glyph name="cid40781" format="2">
  <advance height="1000" width="598"/>
  <unicode hex="0034"/>
  <outline>
    <contour>
      <point x="268" y="-2" type="line"/>
      <point x="408" y="-2" type="line"/>
      <point x="553" y="717" type="line"/>
      <point x="439" y="717" type="line"/>
      <point x="32" y="264" type="line"/>
      <point x="12" y="165" type="line"/>
      <point x="552" y="165" type="line"/>
      <point x="572" y="270" type="line"/>
      <point x="91" y="270" type="line"/>
      <point x="91" y="299" type="line"/>
      <point x="83" y="250" type="line"/>
      <point x="264" y="451" type="line"/>
      <point x="446" y="652" type="line"/>
      <point x="376" y="615" type="line"/>
      <point x="393" y="615" type="line"/>
      <point x="317" y="236" type="line"/>
      <point x="310" y="208" type="line"/>
    </contour>
  </outline>
</glyph>
<glyph name="cid40785" format="2">
  <advance height="1000" width="598"/>
  <unicode hex="0035"/>
  <outline>
    <contour>
      <point x="221" y="-7" type="curve" smooth="yes"/>
      <point x="391" y="-7"/>
      <point x="528" y="81"/>
      <point x="528" y="243" type="curve" smooth="yes"/>
      <point x="528" y="361"/>
      <point x="445" y="436"/>
      <point x="315" y="436" type="curve" smooth="yes"/>
      <point x="260" y="436"/>
      <point x="199" y="419"/>
      <point x="153" y="391" type="curve"/>
      <point x="153" y="391"/>
      <point x="180" y="385"/>
      <point x="180" y="385" type="curve"/>
      <point x="180" y="385"/>
      <point x="256" y="680"/>
      <point x="256" y="680" type="curve"/>
      <point x="256" y="680"/>
      <point x="207" y="590"/>
      <point x="207" y="590" type="curve"/>
      <point x="207" y="590"/>
      <point x="562" y="590"/>
      <point x="562" y="590" type="curve"/>
      <point x="562" y="590"/>
      <point x="587" y="717"/>
      <point x="587" y="717" type="curve"/>
      <point x="587" y="717"/>
      <point x="214" y="717"/>
      <point x="214" y="717" type="curve"/>
      <point x="214" y="717"/>
      <point x="124" y="363"/>
      <point x="124" y="363" type="curve"/>
      <point x="124" y="363"/>
      <point x="157" y="347"/>
      <point x="157" y="347" type="curve"/>
      <point x="183" y="362"/>
      <point x="212" y="372"/>
      <point x="253" y="372" type="curve" smooth="yes"/>
      <point x="328" y="372"/>
      <point x="371" y="315"/>
      <point x="371" y="228" type="curve" smooth="yes"/>
      <point x="371" y="114"/>
      <point x="299" y="44"/>
      <point x="211" y="44" type="curve" smooth="yes"/>
      <point x="180" y="44"/>
      <point x="156" y="47"/>
      <point x="134" y="58" type="curve"/>
      <point x="134" y="58"/>
      <point x="165" y="20"/>
      <point x="165" y="20" type="curve"/>
      <point x="165" y="20"/>
      <point x="160" y="123"/>
      <point x="160" y="123" type="curve"/>
      <point x="158" y="188"/>
      <point x="142" y="215"/>
      <point x="96" y="215" type="curve" smooth="yes"/>
      <point x="68" y="215"/>
      <point x="46" y="202"/>
      <point x="34" y="174" type="curve"/>
      <point x="29" y="58"/>
      <point x="103" y="-7"/>
    </contour>
  </outline>
</glyph>
<glyph name="cid40786" format="2">
  <advance height="1000" width="598"/>
  <unicode hex="0036"/>
  <outline>
    <contour>
      <point x="270" y="-7" type="curve" smooth="yes"/>
      <point x="422" y="-7"/>
      <point x="557" y="88"/>
      <point x="557" y="253" type="curve" smooth="yes"/>
      <point x="557" y="358"/>
      <point x="494" y="437"/>
      <point x="376" y="437" type="curve" smooth="yes"/>
      <point x="306" y="437"/>
      <point x="252" y="412"/>
      <point x="188" y="355" type="curve"/>
      <point x="176" y="355" type="line"/>
      <point x="184" y="322" type="line"/>
      <point x="230" y="356"/>
      <point x="268" y="368"/>
      <point x="304" y="368" type="curve" smooth="yes"/>
      <point x="368" y="368"/>
      <point x="405" y="329"/>
      <point x="405" y="241" type="curve" smooth="yes"/>
      <point x="405" y="139"/>
      <point x="355" y="41"/>
      <point x="287" y="41" type="curve" smooth="yes"/>
      <point x="231" y="41"/>
      <point x="198" y="82"/>
      <point x="198" y="194" type="curve" smooth="yes"/>
      <point x="198" y="442"/>
      <point x="342" y="651"/>
      <point x="606" y="691" type="curve"/>
      <point x="601" y="732" type="line"/>
      <point x="298" y="718"/>
      <point x="47" y="503"/>
      <point x="47" y="231" type="curve" smooth="yes"/>
      <point x="47" y="79"/>
      <point x="134" y="-7"/>
    </contour>
  </outline>
</glyph>
<glyph name="cid40790" format="2">
  <advance height="1000" width="598"/>
  <unicode hex="0037"/>
  <outline>
    <contour>
      <point x="71" y="10" type="line"/>
      <point x="217" y="10" type="line"/>
      <point x="592" y="633" type="line"/>
      <point x="609" y="717" type="line"/>
      <point x="138" y="717" type="line"/>
      <point x="112" y="592" type="line"/>
      <point x="525" y="592" type="line"/>
      <point x="525" y="629" type="line"/>
      <point x="58" y="25" type="line"/>
    </contour>
  </outline>
</glyph>
<glyph name="cid40791" format="2">
  <advance height="1000" width="598"/>
  <unicode hex="0038"/>
  <outline>
    <contour>
      <point x="249" y="-8" type="curve" smooth="yes"/>
      <point x="408" y="-8"/>
      <point x="520" y="83"/>
      <point x="520" y="208" type="curve" smooth="yes"/>
      <point x="520" y="291"/>
      <point x="473" y="344"/>
      <point x="383" y="413" type="curve" smooth="yes"/>
      <point x="291" y="483"/>
      <point x="255" y="518"/>
      <point x="255" y="576" type="curve" smooth="yes"/>
      <point x="255" y="644"/>
      <point x="300" y="684"/>
      <point x="361" y="684" type="curve" smooth="yes"/>
      <point x="414" y="684"/>
      <point x="450" y="647"/>
      <point x="450" y="587" type="curve" smooth="yes"/>
      <point x="450" y="526"/>
      <point x="433" y="471"/>
      <point x="336" y="406" type="curve"/>
      <point x="358" y="381" type="line"/>
      <point x="358" y="387" type="line"/>
      <point x="501" y="443"/>
      <point x="562" y="502"/>
      <point x="562" y="591" type="curve" smooth="yes"/>
      <point x="562" y="665"/>
      <point x="494" y="734"/>
      <point x="364" y="734" type="curve" smooth="yes"/>
      <point x="225" y="734"/>
      <point x="120" y="643"/>
      <point x="120" y="522" type="curve" smooth="yes"/>
      <point x="120" y="442"/>
      <point x="169" y="389"/>
      <point x="243" y="333" type="curve" smooth="yes"/>
      <point x="332" y="264"/>
      <point x="374" y="227"/>
      <point x="374" y="163" type="curve" smooth="yes"/>
      <point x="374" y="85"/>
      <point x="325" y="42"/>
      <point x="261" y="42" type="curve" smooth="yes"/>
      <point x="193" y="42"/>
      <point x="159" y="84"/>
      <point x="159" y="152" type="curve" smooth="yes"/>
      <point x="159" y="227"/>
      <point x="196" y="288"/>
      <point x="286" y="344" type="curve"/>
      <point x="263" y="372" type="line"/>
      <point x="263" y="364" type="line"/>
      <point x="123" y="310"/>
      <point x="40" y="243"/>
      <point x="40" y="141" type="curve" smooth="yes"/>
      <point x="40" y="58"/>
      <point x="115" y="-8"/>
    </contour>
  </outline>
</glyph>
<glyph name="cid40792" format="2">
  <advance height="1000" width="598"/>
  <unicode hex="0039"/>
  <outline>
    <contour>
      <point x="50" y="35" type="curve"/>
      <point x="58" y="-10" type="line"/>
      <point x="360" y="38"/>
      <point x="584" y="242"/>
      <point x="584" y="494" type="curve" smooth="yes"/>
      <point x="584" y="646"/>
      <point x="500" y="734"/>
      <point x="364" y="734" type="curve" smooth="yes"/>
      <point x="200" y="734"/>
      <point x="78" y="609"/>
      <point x="78" y="465" type="curve" smooth="yes"/>
      <point x="78" y="359"/>
      <point x="141" y="283"/>
      <point x="258" y="283" type="curve" smooth="yes"/>
      <point x="319" y="283"/>
      <point x="385" y="310"/>
      <point x="441" y="363" type="curve"/>
      <point x="454" y="363" type="line"/>
      <point x="441" y="392" type="line"/>
      <point x="398" y="361"/>
      <point x="358" y="346"/>
      <point x="321" y="346" type="curve" smooth="yes"/>
      <point x="259" y="346"/>
      <point x="223" y="392"/>
      <point x="223" y="473" type="curve" smooth="yes"/>
      <point x="223" y="574"/>
      <point x="287" y="685"/>
      <point x="357" y="685" type="curve" smooth="yes"/>
      <point x="411" y="685"/>
      <point x="436" y="644"/>
      <point x="436" y="543" type="curve" smooth="yes"/>
      <point x="436" y="287"/>
      <point x="307" y="100"/>
    </contour>
  </outline>
</glyph>
<glyph name="cid40896" format="2">
  <advance height="1000" width="330"/>
  <unicode hex="003A"/>
  <outline>
    <contour>
      <point x="118" y="-5" type="curve" smooth="yes"/>
      <point x="172" y="-5"/>
      <point x="221" y="38"/>
      <point x="221" y="95" type="curve" smooth="yes"/>
      <point x="221" y="140"/>
      <point x="186" y="179"/>
      <point x="136" y="179" type="curve" smooth="yes"/>
      <point x="81" y="179"/>
      <point x="32" y="135"/>
      <point x="32" y="78" type="curve" smooth="yes"/>
      <point x="32" y="34"/>
      <point x="67" y="-5"/>
    </contour>
    <contour>
      <point x="183" y="363" type="curve" smooth="yes"/>
      <point x="237" y="363"/>
      <point x="286" y="405"/>
      <point x="286" y="462" type="curve" smooth="yes"/>
      <point x="286" y="507"/>
      <point x="251" y="546"/>
      <point x="200" y="546" type="curve" smooth="yes"/>
      <point x="146" y="546"/>
      <point x="97" y="503"/>
      <point x="97" y="446" type="curve" smooth="yes"/>
      <point x="97" y="401"/>
      <point x="132" y="363"/>
    </contour>
  </outline>
</glyph>
<glyph name="cid41300" format="2">
  <advance height="1000" width="597"/>
  <unicode hex="003C"/>
  <outline>
    <contour>
      <point x="60" y="340" type="curve"/>
      <point x="60" y="340"/>
      <point x="502" y="104"/>
      <point x="502" y="104" type="curve"/>
      <point x="502" y="104"/>
      <point x="540" y="180"/>
      <point x="540" y="180" type="curve"/>
      <point x="540" y="180"/>
      <point x="114" y="400"/>
      <point x="114" y="400" type="curve"/>
      <point x="114" y="400"/>
      <point x="114" y="346"/>
      <point x="114" y="346" type="curve"/>
      <point x="114" y="346"/>
      <point x="540" y="563"/>
      <point x="540" y="563" type="curve"/>
      <point x="540" y="563"/>
      <point x="502" y="641"/>
      <point x="502" y="641" type="curve"/>
      <point x="502" y="641"/>
      <point x="60" y="404"/>
      <point x="60" y="404" type="curve"/>
      <point x="60" y="404"/>
      <point x="60" y="340"/>
    </contour>
  </outline>
</glyph>
<glyph name="cid41284" format="2">
  <advance height="1000" width="597"/>
  <unicode hex="003D"/>
  <outline>
    <contour>
      <point x="50" y="215" type="line"/>
      <point x="556" y="215" type="line"/>
      <point x="556" y="300" type="line"/>
      <point x="50" y="300" type="line"/>
    </contour>
    <contour>
      <point x="50" y="450" type="line"/>
      <point x="556" y="450" type="line"/>
      <point x="556" y="535" type="line"/>
      <point x="50" y="535" type="line"/>
    </contour>
  </outline>
</glyph>
<glyph name="cid41302" format="2">
  <advance height="1000" width="597"/>
  <unicode hex="003E"/>
  <outline>
    <contour>
      <point x="558" y="403" type="line"/>
      <point x="116" y="639" type="line"/>
      <point x="78" y="563" type="line"/>
      <point x="504" y="344" type="line"/>
      <point x="504" y="398" type="line"/>
      <point x="78" y="180" type="line"/>
      <point x="116" y="103" type="line"/>
      <point x="558" y="339" type="line"/>
    </contour>
  </outline>
</glyph>
<glyph name="cid41013" format="2">
  <advance height="1000" width="965"/>
  <unicode hex="0040"/>
  <outline>
    <contour>
      <point x="349" y="54" type="curve" smooth="yes"/>
      <point x="420" y="54"/>
      <point x="494" y="116"/>
      <point x="552" y="190" type="curve"/>
      <point x="567" y="190" type="line"/>
      <point x="547" y="227" type="line"/>
      <point x="501" y="174"/>
      <point x="466" y="149"/>
      <point x="436" y="149" type="curve" smooth="yes"/>
      <point x="401" y="149"/>
      <point x="383" y="176"/>
      <point x="383" y="235" type="curve" smooth="yes"/>
      <point x="383" y="362"/>
      <point x="457" y="494"/>
      <point x="532" y="494" type="curve" smooth="yes"/>
      <point x="561" y="494"/>
      <point x="587" y="480"/>
      <point x="607" y="459" type="curve"/>
      <point x="678" y="505" type="line"/>
      <point x="647" y="543"/>
      <point x="615" y="563"/>
      <point x="570" y="563" type="curve" smooth="yes"/>
      <point x="428" y="563"/>
      <point x="243" y="370"/>
      <point x="243" y="186" type="curve" smooth="yes"/>
      <point x="243" y="91"/>
      <point x="295" y="54"/>
    </contour>
    <contour>
      <point x="640" y="54" type="curve" smooth="yes"/>
      <point x="768" y="54"/>
      <point x="932" y="190"/>
      <point x="932" y="408" type="curve" smooth="yes"/>
      <point x="932" y="591"/>
      <point x="814" y="742"/>
      <point x="579" y="742" type="curve" smooth="yes"/>
      <point x="249" y="742"/>
      <point x="44" y="477"/>
      <point x="44" y="202" type="curve" smooth="yes"/>
      <point x="44" y="-10"/>
      <point x="178" y="-161"/>
      <point x="414" y="-161" type="curve" smooth="yes"/>
      <point x="494" y="-161"/>
      <point x="569" y="-142"/>
      <point x="635" y="-112" type="curve"/>
      <point x="624" y="-71" type="line"/>
      <point x="560" y="-92"/>
      <point x="503" y="-102"/>
      <point x="438" y="-102" type="curve" smooth="yes"/>
      <point x="245" y="-102"/>
      <point x="123" y="11"/>
      <point x="123" y="214" type="curve" smooth="yes"/>
      <point x="123" y="465"/>
      <point x="295" y="694"/>
      <point x="570" y="694" type="curve" smooth="yes"/>
      <point x="756" y="694"/>
      <point x="859" y="586"/>
      <point x="859" y="408" type="curve" smooth="yes"/>
      <point x="859" y="228"/>
      <point x="755" y="129"/>
      <point x="697" y="129" type="curve" smooth="yes"/>
      <point x="660" y="129"/>
      <point x="647" y="150"/>
      <point x="661" y="212" type="curve" smooth="yes"/>
      <point x="737" y="553" type="line"/>
      <point x="721" y="567" type="line"/>
      <point x="587" y="501" type="line"/>
      <point x="521" y="194" type="line" smooth="yes"/>
      <point x="503" y="114"/>
      <point x="549" y="54"/>
    </contour>
  </outline>
</glyph>
<glyph name="cid40015" format="2">
  <advance height="1000" width="604"/>
  <unicode hex="0046"/>
  <outline>
    <contour>
      <point x="-19" y="10" type="curve"/>
      <point x="-19" y="10"/>
      <point x="325" y="10"/>
      <point x="325" y="10" type="curve"/>
      <point x="325" y="10"/>
      <point x="335" y="59"/>
      <point x="335" y="59" type="curve"/>
      <point x="335" y="59"/>
      <point x="190" y="76"/>
      <point x="190" y="76" type="curve"/>
      <point x="190" y="76"/>
      <point x="136" y="76"/>
      <point x="136" y="76" type="curve"/>
      <point x="136" y="76"/>
      <point x="-9" y="59"/>
      <point x="-9" y="59" type="curve"/>
      <point x="-9" y="59"/>
      <point x="-19" y="10"/>
    </contour>
    <contour>
      <point x="63" y="10" type="curve"/>
      <point x="63" y="10"/>
      <point x="228" y="10"/>
      <point x="228" y="10" type="curve"/>
      <point x="248" y="125"/>
      <point x="268" y="242"/>
      <point x="289" y="358" type="curve"/>
      <point x="289" y="358"/>
      <point x="363" y="746"/>
      <point x="363" y="746" type="curve"/>
      <point x="363" y="746"/>
      <point x="196" y="746"/>
      <point x="196" y="746" type="curve"/>
      <point x="178" y="630"/>
      <point x="159" y="514"/>
      <point x="137" y="399" type="curve"/>
      <point x="137" y="399"/>
      <point x="63" y="10"/>
    </contour>
    <contour>
      <point x="105" y="697" type="curve"/>
      <point x="105" y="697"/>
      <point x="246" y="680"/>
      <point x="246" y="680" type="curve"/>
      <point x="246" y="680"/>
      <point x="279" y="680"/>
      <point x="279" y="680" type="curve"/>
      <point x="279" y="680"/>
      <point x="291" y="746"/>
      <point x="291" y="746" type="curve"/>
      <point x="291" y="746"/>
      <point x="115" y="746"/>
      <point x="115" y="746" type="curve"/>
      <point x="115" y="746"/>
      <point x="105" y="697"/>
    </contour>
    <contour>
      <point x="208" y="359" type="curve"/>
      <point x="208" y="359"/>
      <point x="438" y="359"/>
      <point x="438" y="359" type="curve"/>
      <point x="438" y="359"/>
      <point x="448" y="415"/>
      <point x="448" y="415" type="curve"/>
      <point x="448" y="415"/>
      <point x="220" y="415"/>
      <point x="220" y="415" type="curve"/>
      <point x="220" y="415"/>
      <point x="208" y="359"/>
    </contour>
    <contour>
      <point x="264" y="693" type="curve"/>
      <point x="264" y="693"/>
      <point x="595" y="693"/>
      <point x="595" y="693" type="curve"/>
      <point x="595" y="693"/>
      <point x="538" y="742"/>
      <point x="538" y="742" type="curve"/>
      <point x="538" y="742"/>
      <point x="550" y="552"/>
      <point x="550" y="552" type="curve"/>
      <point x="550" y="552"/>
      <point x="619" y="552"/>
      <point x="619" y="552" type="curve"/>
      <point x="619" y="552"/>
      <point x="647" y="746"/>
      <point x="647" y="746" type="curve"/>
      <point x="647" y="746"/>
      <point x="274" y="746"/>
      <point x="274" y="746" type="curve"/>
      <point x="274" y="746"/>
      <point x="264" y="693"/>
    </contour>
    <contour>
      <point x="414" y="259" type="curve"/>
      <point x="414" y="259"/>
      <point x="465" y="259"/>
      <point x="465" y="259" type="curve"/>
      <point x="465" y="259"/>
      <point x="511" y="511"/>
      <point x="511" y="511" type="curve"/>
      <point x="511" y="511"/>
      <point x="461" y="511"/>
      <point x="461" y="511" type="curve"/>
      <point x="461" y="511"/>
      <point x="417" y="401"/>
      <point x="417" y="401" type="curve"/>
      <point x="417" y="401"/>
      <point x="412" y="375"/>
      <point x="412" y="375" type="curve"/>
      <point x="412" y="375"/>
      <point x="414" y="259"/>
    </contour>
  </outline>
</glyph>
<glyph name="cid40034" format="2">
  <advance height="1000" width="753"/>
  <unicode hex="004E"/>
  <outline>
    <contour>
      <point x="-29" y="10" type="line"/>
      <point x="231" y="10" type="line"/>
      <point x="240" y="59" type="line"/>
      <point x="116" y="74" type="line"/>
      <point x="87" y="74" type="line"/>
      <point x="-20" y="59" type="line"/>
    </contour>
    <contour>
      <point x="58" y="10" type="line"/>
      <point x="116" y="10" type="line"/>
      <point x="186" y="377" type="line"/>
      <point x="253" y="734" type="line"/>
      <point x="195" y="734" type="line"/>
    </contour>
    <contour>
      <point x="541" y="697" type="line"/>
      <point x="672" y="682" type="line"/>
      <point x="700" y="682" type="line"/>
      <point x="801" y="697" type="line"/>
      <point x="811" y="746" type="line"/>
      <point x="551" y="746" type="line"/>
    </contour>
    <contour>
      <point x="615" y="202" type="line"/>
      <point x="595" y="202" type="line"/>
      <point x="324" y="746" type="line"/>
      <point x="109" y="746" type="line"/>
      <point x="99" y="697" type="line"/>
      <point x="171" y="689" type="line"/>
      <point x="197" y="636" type="line"/>
      <point x="202" y="626" type="line"/>
      <point x="508" y="7" type="line"/>
      <point x="588" y="7" type="line"/>
      <point x="726" y="746" type="line"/>
      <point x="668" y="746" type="line"/>
      <point x="599" y="377" type="line"/>
      <point x="554" y="135" type="line"/>
    </contour>
  </outline>
</glyph>
<glyph name="cid40042" format="2">
  <advance height="1000" width="732"/>
  <unicode hex="0051"/>
  <outline>
    <contour>
      <point x="482" y="-258" type="curve" smooth="yes"/>
      <point x="568" y="-258"/>
      <point x="629" y="-225"/>
      <point x="675" y="-188" type="curve"/>
      <point x="675" y="-188"/>
      <point x="657" y="-148"/>
      <point x="657" y="-148" type="curve"/>
      <point x="619" y="-165"/>
      <point x="585" y="-173"/>
      <point x="535" y="-173" type="curve" smooth="yes"/>
      <point x="414" y="-173"/>
      <point x="358" y="-104"/>
      <point x="371" y="36" type="curve"/>
      <point x="371" y="36"/>
      <point x="232" y="36"/>
      <point x="232" y="36" type="curve"/>
      <point x="212" y="-154"/>
      <point x="306" y="-258"/>
    </contour>
    <contour>
      <point x="310" y="-10" type="curve" smooth="yes"/>
      <point x="566" y="-10"/>
      <point x="719" y="219"/>
      <point x="719" y="469" type="curve" smooth="yes"/>
      <point x="719" y="658"/>
      <point x="606" y="766"/>
      <point x="445" y="766" type="curve" smooth="yes"/>
      <point x="190" y="766"/>
      <point x="36" y="532"/>
      <point x="36" y="289" type="curve" smooth="yes"/>
      <point x="36" y="87"/>
      <point x="153" y="-10"/>
    </contour>
    <contour>
      <point x="318" y="44" type="curve" smooth="yes"/>
      <point x="235" y="44"/>
      <point x="200" y="114"/>
      <point x="200" y="244" type="curve" smooth="yes"/>
      <point x="200" y="473"/>
      <point x="302" y="712"/>
      <point x="438" y="712" type="curve" smooth="yes"/>
      <point x="523" y="712"/>
      <point x="554" y="643"/>
      <point x="554" y="516" type="curve" smooth="yes"/>
      <point x="554" y="288"/>
      <point x="454" y="44"/>
    </contour>
  </outline>
</glyph>
<glyph name="cid40050" format="2">
  <advance height="1000" width="673"/>
  <unicode hex="0056"/>
  <outline>
    <contour>
      <point x="62" y="697" type="line"/>
      <point x="194" y="680" type="line"/>
      <point x="246" y="680" type="line"/>
      <point x="393" y="700" type="line"/>
      <point x="402" y="746" type="line"/>
      <point x="72" y="746" type="line"/>
    </contour>
    <contour>
      <point x="234" y="7" type="line"/>
      <point x="326" y="7" type="line"/>
      <point x="704" y="746" type="line"/>
      <point x="643" y="746" type="line"/>
      <point x="357" y="172" type="line"/>
      <point x="346" y="151" type="line"/>
      <point x="373" y="151" type="line"/>
      <point x="292" y="746" type="line"/>
      <point x="119" y="746" type="line"/>
    </contour>
    <contour>
      <point x="531" y="700" type="line"/>
      <point x="640" y="682" type="line"/>
      <point x="657" y="682" type="line"/>
      <point x="755" y="697" type="line"/>
      <point x="765" y="746" type="line"/>
      <point x="540" y="746" type="line"/>
    </contour>
  </outline>
</glyph>
<glyph name="cid40056" format="2">
  <advance height="1000" width="986"/>
  <unicode hex="0057"/>
  <outline>
    <contour>
      <point x="194" y="680" type="line"/>
      <point x="240" y="680" type="line"/>
      <point x="381" y="697" type="line"/>
      <point x="391" y="746" type="line"/>
      <point x="71" y="746" type="line"/>
      <point x="60" y="697" type="line"/>
    </contour>
    <contour>
      <point x="185" y="7" type="line"/>
      <point x="280" y="7" type="line"/>
      <point x="542" y="571" type="line"/>
      <point x="556" y="601" type="line"/>
      <point x="520" y="601" type="line"/>
      <point x="584" y="7" type="line"/>
      <point x="679" y="7" type="line"/>
      <point x="1014" y="746" type="line"/>
      <point x="953" y="746" type="line"/>
      <point x="707" y="185" type="line"/>
      <point x="697" y="162" type="line"/>
      <point x="721" y="162" type="line"/>
      <point x="664" y="746" type="line"/>
      <point x="566" y="746" type="line"/>
      <point x="310" y="187" type="line"/>
      <point x="299" y="162" type="line"/>
      <point x="324" y="162" type="line"/>
      <point x="289" y="746" type="line"/>
      <point x="119" y="746" type="line"/>
    </contour>
    <contour>
      <point x="570" y="680" type="line"/>
      <point x="631" y="680" type="line"/>
      <point x="763" y="697" type="line"/>
      <point x="773" y="746" type="line"/>
      <point x="463" y="746" type="line"/>
      <point x="452" y="697" type="line"/>
    </contour>
    <contour>
      <point x="944" y="682" type="line"/>
      <point x="971" y="682" type="line"/>
      <point x="1066" y="697" type="line"/>
      <point x="1076" y="746" type="line"/>
      <point x="850" y="746" type="line"/>
      <point x="840" y="697" type="line"/>
    </contour>
  </outline>
</glyph>
<glyph name="cid40060" format="2">
  <advance height="1000" width="601"/>
  <unicode hex="005A"/>
  <outline>
    <contour>
      <point x="-22" y="10" type="curve"/>
      <point x="-22" y="10"/>
      <point x="519" y="10"/>
      <point x="519" y="10" type="curve"/>
      <point x="519" y="10"/>
      <point x="568" y="218"/>
      <point x="568" y="218" type="curve"/>
      <point x="568" y="218"/>
      <point x="498" y="218"/>
      <point x="498" y="218" type="curve"/>
      <point x="498" y="218"/>
      <point x="414" y="36"/>
      <point x="414" y="36" type="curve"/>
      <point x="414" y="36"/>
      <point x="460" y="64"/>
      <point x="460" y="64" type="curve"/>
      <point x="460" y="64"/>
      <point x="317" y="64"/>
      <point x="317" y="64" type="curve"/>
      <point x="317" y="64"/>
      <point x="167" y="64"/>
      <point x="167" y="64" type="curve"/>
      <point x="167" y="64"/>
      <point x="169" y="78"/>
      <point x="169" y="78" type="curve"/>
      <point x="169" y="78"/>
      <point x="153" y="38"/>
      <point x="153" y="38" type="curve"/>
      <point x="153" y="38"/>
      <point x="634" y="703"/>
      <point x="634" y="703" type="curve"/>
      <point x="634" y="703"/>
      <point x="642" y="746"/>
      <point x="642" y="746" type="curve"/>
      <point x="642" y="746"/>
      <point x="116" y="746"/>
      <point x="116" y="746" type="curve"/>
      <point x="116" y="746"/>
      <point x="69" y="540"/>
      <point x="69" y="540" type="curve"/>
      <point x="69" y="540"/>
      <point x="139" y="540"/>
      <point x="139" y="540" type="curve"/>
      <point x="139" y="540"/>
      <point x="220" y="720"/>
      <point x="220" y="720" type="curve"/>
      <point x="220" y="720"/>
      <point x="176" y="692"/>
      <point x="176" y="692" type="curve"/>
      <point x="176" y="692"/>
      <point x="309" y="692"/>
      <point x="309" y="692" type="curve"/>
      <point x="309" y="692"/>
      <point x="451" y="692"/>
      <point x="451" y="692" type="curve"/>
      <point x="451" y="692"/>
      <point x="449" y="678"/>
      <point x="449" y="678" type="curve"/>
      <point x="449" y="678"/>
      <point x="465" y="718"/>
      <point x="465" y="718" type="curve"/>
      <point x="465" y="718"/>
      <point x="-13" y="53"/>
      <point x="-13" y="53" type="curve"/>
      <point x="-13" y="53"/>
      <point x="-22" y="10"/>
    </contour>
  </outline>
</glyph>
<glyph name="cid40952" format="2">
  <advance height="1000" width="390"/>
  <unicode hex="005B"/>
  <outline>
    <contour>
      <point x="18" y="-169" type="line"/>
      <point x="149" y="-169" type="line"/>
      <point x="166" y="-61"/>
      <point x="190" y="66"/>
      <point x="214" y="184" type="curve" smooth="yes"/>
      <point x="336" y="810" type="line"/>
      <point x="205" y="810" type="line"/>
      <point x="187" y="701"/>
      <point x="164" y="577"/>
      <point x="140" y="460" type="curve" smooth="yes"/>
    </contour>
    <contour>
      <point x="78" y="-169" type="line"/>
      <point x="256" y="-169" type="line"/>
      <point x="267" y="-120" type="line"/>
      <point x="119" y="-103" type="line"/>
      <point x="92" y="-103" type="line"/>
    </contour>
    <contour>
      <point x="258" y="744" type="line"/>
      <point x="286" y="744" type="line"/>
      <point x="439" y="760" type="line"/>
      <point x="449" y="810" type="line"/>
      <point x="271" y="810" type="line"/>
    </contour>
  </outline>
</glyph>
<glyph name="cid40991" format="2">
  <advance height="1000" width="411"/>
  <unicode hex="005C"/>
  <outline>
    <contour>
      <point x="314" y="-169" type="line"/>
      <point x="209" y="804" type="line"/>
      <point x="110" y="804" type="line"/>
      <point x="214" y="-169" type="line"/>
    </contour>
  </outline>
</glyph>
<glyph name="cid40954" format="2">
  <advance height="1000" width="390"/>
  <unicode hex="005D"/>
  <outline>
    <contour>
      <point x="371" y="810" type="curve"/>
      <point x="371" y="810"/>
      <point x="240" y="810"/>
      <point x="240" y="810" type="curve"/>
      <point x="223" y="701"/>
      <point x="198" y="574"/>
      <point x="175" y="457" type="curve"/>
      <point x="175" y="457"/>
      <point x="53" y="-169"/>
      <point x="53" y="-169" type="curve"/>
      <point x="53" y="-169"/>
      <point x="184" y="-169"/>
      <point x="184" y="-169" type="curve"/>
      <point x="202" y="-61"/>
      <point x="225" y="64"/>
      <point x="249" y="180" type="curve"/>
      <point x="249" y="180"/>
      <point x="371" y="810"/>
    </contour>
    <contour>
      <point x="310" y="810" type="curve"/>
      <point x="310" y="810"/>
      <point x="132" y="810"/>
      <point x="132" y="810" type="curve"/>
      <point x="132" y="810"/>
      <point x="122" y="760"/>
      <point x="122" y="760" type="curve"/>
      <point x="122" y="760"/>
      <point x="270" y="744"/>
      <point x="270" y="744" type="curve"/>
      <point x="270" y="744"/>
      <point x="297" y="744"/>
      <point x="297" y="744" type="curve"/>
      <point x="297" y="744"/>
      <point x="310" y="810"/>
    </contour>
    <contour>
      <point x="131" y="-103" type="curve"/>
      <point x="131" y="-103"/>
      <point x="103" y="-103"/>
      <point x="103" y="-103" type="curve"/>
      <point x="103" y="-103"/>
      <point x="-50" y="-120"/>
      <point x="-50" y="-120" type="curve"/>
      <point x="-50" y="-120"/>
      <point x="-60" y="-169"/>
      <point x="-60" y="-169" type="curve"/>
      <point x="-60" y="-169"/>
      <point x="118" y="-169"/>
      <point x="118" y="-169" type="curve"/>
      <point x="118" y="-169"/>
      <point x="131" y="-103"/>
    </contour>
  </outline>
</glyph>
<glyph name="cid41316" format="2">
  <advance height="1000" width="597"/>
  <unicode hex="005E"/>
  <outline>
    <contour>
      <point x="66" y="270" type="line"/>
      <point x="133" y="223" type="line"/>
      <point x="324" y="520" type="line"/>
      <point x="271" y="520" type="line"/>
      <point x="461" y="223" type="line"/>
      <point x="531" y="270" type="line"/>
      <point x="335" y="576" type="line"/>
      <point x="261" y="576" type="line"/>
    </contour>
  </outline>
</glyph>
<glyph name="cid40947" format="2">
  <advance height="1000" width="596"/>
  <unicode hex="005F"/>
  <outline>
    <contour>
      <point x="-81" y="-55" type="line"/>
      <point x="533" y="-55" type="line"/>
      <point x="533" y="30" type="line"/>
      <point x="-81" y="30" type="line"/>
    </contour>
  </outline>
</glyph>
<glyph name="cid41459" format="2">
  <advance height="1000" width="448"/>
  <unicode hex="0060"/>
  <outline>
    <contour>
      <point x="380" y="628" type="curve"/>
      <point x="362" y="683"/>
      <point x="346" y="737"/>
      <point x="327" y="791" type="curve" smooth="yes"/>
      <point x="307" y="850"/>
      <point x="281" y="871"/>
      <point x="246" y="871" type="curve" smooth="yes"/>
      <point x="213" y="871"/>
      <point x="184" y="846"/>
      <point x="184" y="811" type="curve" smooth="yes"/>
      <point x="184" y="779"/>
      <point x="205" y="753"/>
      <point x="237" y="721" type="curve" smooth="yes"/>
      <point x="276" y="683"/>
      <point x="312" y="648"/>
      <point x="351" y="610" type="curve"/>
      <point x="351" y="610"/>
      <point x="380" y="628"/>
    </contour>
  </outline>
</glyph>
<glyph name="cid40062" format="2">
  <advance height="1000" width="624"/>
  <unicode hex="0061"/>
  <outline>
    <contour>
      <point x="147" y="-7" type="curve" smooth="yes"/>
      <point x="227" y="-7"/>
      <point x="310" y="69"/>
      <point x="371" y="154" type="curve"/>
      <point x="375" y="154" type="line"/>
      <point x="371" y="188" type="line"/>
      <point x="319" y="129"/>
      <point x="277" y="100"/>
      <point x="242" y="100" type="curve" smooth="yes"/>
      <point x="204" y="100"/>
      <point x="185" y="129"/>
      <point x="185" y="193" type="curve" smooth="yes"/>
      <point x="185" y="271"/>
      <point x="218" y="384"/>
      <point x="270" y="438" type="curve" smooth="yes"/>
      <point x="297" y="467"/>
      <point x="326" y="483"/>
      <point x="354" y="483" type="curve" smooth="yes"/>
      <point x="385" y="483"/>
      <point x="414" y="466"/>
      <point x="439" y="445" type="curve"/>
      <point x="516" y="496" type="line"/>
      <point x="486" y="536"/>
      <point x="444" y="560"/>
      <point x="396" y="560" type="curve" smooth="yes"/>
      <point x="234" y="560"/>
      <point x="29" y="335"/>
      <point x="29" y="144" type="curve" smooth="yes"/>
      <point x="29" y="34"/>
      <point x="86" y="-7"/>
    </contour>
    <contour>
      <point x="424" y="-7" type="curve" smooth="yes"/>
      <point x="506" y="-7"/>
      <point x="577" y="69"/>
      <point x="615" y="138" type="curve"/>
      <point x="586" y="158" type="line"/>
      <point x="552" y="114"/>
      <point x="526" y="91"/>
      <point x="506" y="91" type="curve" smooth="yes"/>
      <point x="494" y="91"/>
      <point x="487" y="97"/>
      <point x="487" y="112" type="curve" smooth="yes"/>
      <point x="487" y="123"/>
      <point x="491" y="138"/>
      <point x="495" y="158" type="curve" smooth="yes"/>
      <point x="582" y="550" type="line"/>
      <point x="563" y="563" type="line"/>
      <point x="422" y="492" type="line"/>
      <point x="414" y="489" type="line"/>
      <point x="338" y="131" type="line"/>
      <point x="342" y="130" type="line"/>
      <point x="337" y="111"/>
      <point x="336" y="100"/>
      <point x="336" y="88" type="curve" smooth="yes"/>
      <point x="337" y="28"/>
      <point x="373" y="-7"/>
    </contour>
  </outline>
</glyph>
<glyph name="cid40064" format="2">
  <advance height="1000" width="590"/>
  <unicode hex="0062"/>
  <outline>
    <contour>
      <point x="188" y="-7" type="curve" smooth="yes"/>
      <point x="377" y="-7"/>
      <point x="575" y="207"/>
      <point x="575" y="410" type="curve" smooth="yes"/>
      <point x="575" y="517"/>
      <point x="524" y="560"/>
      <point x="458" y="560" type="curve" smooth="yes"/>
      <point x="379" y="560"/>
      <point x="292" y="493"/>
      <point x="231" y="396" type="curve"/>
      <point x="231" y="396"/>
      <point x="223" y="396"/>
      <point x="223" y="396" type="curve"/>
      <point x="223" y="396"/>
      <point x="234" y="370"/>
      <point x="234" y="370" type="curve"/>
      <point x="284" y="426"/>
      <point x="327" y="455"/>
      <point x="364" y="455" type="curve" smooth="yes"/>
      <point x="401" y="455"/>
      <point x="420" y="423"/>
      <point x="420" y="366" type="curve" smooth="yes"/>
      <point x="420" y="291"/>
      <point x="392" y="190"/>
      <point x="352" y="135" type="curve" smooth="yes"/>
      <point x="320" y="90"/>
      <point x="289" y="69"/>
      <point x="254" y="69" type="curve" smooth="yes"/>
      <point x="218" y="69"/>
      <point x="202" y="92"/>
      <point x="202" y="126" type="curve" smooth="yes"/>
      <point x="202" y="156"/>
      <point x="212" y="202"/>
      <point x="225" y="260" type="curve"/>
      <point x="225" y="260"/>
      <point x="258" y="410"/>
      <point x="258" y="410" type="curve"/>
      <point x="258" y="410"/>
      <point x="256" y="422"/>
      <point x="256" y="422" type="curve"/>
      <point x="256" y="422"/>
      <point x="338" y="806"/>
      <point x="338" y="806" type="curve"/>
      <point x="338" y="806"/>
      <point x="323" y="820"/>
      <point x="323" y="820" type="curve"/>
      <point x="323" y="820"/>
      <point x="94" y="758"/>
      <point x="94" y="758" type="curve"/>
      <point x="94" y="758"/>
      <point x="88" y="722"/>
      <point x="88" y="722" type="curve"/>
      <point x="88" y="722"/>
      <point x="216" y="700"/>
      <point x="216" y="700" type="curve"/>
      <point x="216" y="700"/>
      <point x="170" y="730"/>
      <point x="170" y="730" type="curve"/>
      <point x="170" y="730"/>
      <point x="83" y="307"/>
      <point x="83" y="307" type="curve"/>
      <point x="71" y="246"/>
      <point x="55" y="177"/>
      <point x="55" y="122" type="curve" smooth="yes"/>
      <point x="55" y="28"/>
      <point x="118" y="-7"/>
    </contour>
  </outline>
</glyph>
<glyph name="cid40070" format="2">
  <advance height="1000" width="375"/>
  <unicode hex="0066"/>
  <outline>
    <contour>
      <point x="-58" y="-259" type="curve" smooth="yes"/>
      <point x="1" y="-259"/>
      <point x="64" y="-229"/>
      <point x="110" y="-177" type="curve" smooth="yes"/>
      <point x="164" y="-118"/>
      <point x="196" y="-36"/>
      <point x="214" y="64" type="curve" smooth="yes"/>
      <point x="242" y="226"/>
      <point x="267" y="403"/>
      <point x="292" y="577" type="curve" smooth="yes"/>
      <point x="314" y="719"/>
      <point x="342" y="777"/>
      <point x="389" y="806" type="curve"/>
      <point x="389" y="806"/>
      <point x="389" y="816"/>
      <point x="389" y="816" type="curve"/>
      <point x="389" y="816"/>
      <point x="357" y="816"/>
      <point x="357" y="816" type="curve"/>
      <point x="357" y="816"/>
      <point x="357" y="805"/>
      <point x="357" y="805" type="curve"/>
      <point x="357" y="805"/>
      <point x="394" y="746"/>
      <point x="394" y="746" type="curve"/>
      <point x="419" y="709"/>
      <point x="445" y="686"/>
      <point x="480" y="686" type="curve" smooth="yes"/>
      <point x="513" y="686"/>
      <point x="547" y="712"/>
      <point x="551" y="750" type="curve"/>
      <point x="539" y="803"/>
      <point x="474" y="837"/>
      <point x="407" y="837" type="curve" smooth="yes"/>
      <point x="271" y="837"/>
      <point x="162" y="729"/>
      <point x="132" y="517" type="curve" smooth="yes"/>
      <point x="111" y="363"/>
      <point x="91" y="209"/>
      <point x="67" y="59" type="curve" smooth="yes"/>
      <point x="55" y="-14"/>
      <point x="43" y="-81"/>
      <point x="21" y="-137" type="curve" smooth="yes"/>
      <point x="8" y="-173"/>
      <point x="-8" y="-199"/>
      <point x="-26" y="-220" type="curve"/>
      <point x="-26" y="-220"/>
      <point x="-26" y="-224"/>
      <point x="-26" y="-224" type="curve"/>
      <point x="-26" y="-224"/>
      <point x="-6" y="-224"/>
      <point x="-6" y="-224" type="curve"/>
      <point x="-6" y="-224"/>
      <point x="-4" y="-220"/>
      <point x="-4" y="-220" type="curve"/>
      <point x="-4" y="-220"/>
      <point x="-29" y="-182"/>
      <point x="-29" y="-182" type="curve"/>
      <point x="-55" y="-145"/>
      <point x="-80" y="-122"/>
      <point x="-119" y="-122" type="curve" smooth="yes"/>
      <point x="-156" y="-122"/>
      <point x="-180" y="-147"/>
      <point x="-186" y="-183" type="curve"/>
      <point x="-170" y="-235"/>
      <point x="-130" y="-259"/>
    </contour>
    <contour>
      <point x="44" y="489" type="curve"/>
      <point x="44" y="489"/>
      <point x="171" y="489"/>
      <point x="171" y="489" type="curve"/>
      <point x="171" y="489"/>
      <point x="403" y="484"/>
      <point x="403" y="484" type="curve"/>
      <point x="403" y="484"/>
      <point x="416" y="543"/>
      <point x="416" y="543" type="curve"/>
      <point x="416" y="543"/>
      <point x="179" y="543"/>
      <point x="179" y="543" type="curve"/>
      <point x="179" y="543"/>
      <point x="179" y="550"/>
      <point x="179" y="550" type="curve"/>
      <point x="179" y="550"/>
      <point x="53" y="533"/>
      <point x="53" y="533" type="curve"/>
      <point x="53" y="533"/>
      <point x="44" y="489"/>
    </contour>
  </outline>
</glyph>
<glyph name="cid40075" format="2">
  <advance height="1000" width="347"/>
  <unicode hex="0069"/>
  <outline>
    <contour>
      <point x="52" y="65" type="curve" smooth="yes"/>
      <point x="52" y="19"/>
      <point x="85" y="-7"/>
      <point x="136" y="-7" type="curve" smooth="yes"/>
      <point x="227" y="-7"/>
      <point x="295" y="65"/>
      <point x="337" y="138" type="curve"/>
      <point x="337" y="138"/>
      <point x="308" y="157"/>
      <point x="308" y="157" type="curve"/>
      <point x="272" y="112"/>
      <point x="246" y="91"/>
      <point x="228" y="91" type="curve" smooth="yes"/>
      <point x="218" y="91"/>
      <point x="211" y="97"/>
      <point x="211" y="112" type="curve" smooth="yes"/>
      <point x="211" y="123"/>
      <point x="214" y="140"/>
      <point x="218" y="161" type="curve"/>
      <point x="218" y="161"/>
      <point x="300" y="546"/>
      <point x="300" y="546" type="curve"/>
      <point x="300" y="546"/>
      <point x="283" y="560"/>
      <point x="283" y="560" type="curve"/>
      <point x="283" y="560"/>
      <point x="55" y="499"/>
      <point x="55" y="499" type="curve"/>
      <point x="55" y="499"/>
      <point x="48" y="464"/>
      <point x="48" y="464" type="curve"/>
      <point x="48" y="464"/>
      <point x="153" y="443"/>
      <point x="153" y="443" type="curve"/>
      <point x="153" y="443"/>
      <point x="131" y="469"/>
      <point x="131" y="469" type="curve"/>
      <point x="131" y="469"/>
      <point x="68" y="170"/>
      <point x="68" y="170" type="curve"/>
      <point x="62" y="138"/>
      <point x="52" y="94"/>
    </contour>
    <contour>
      <point x="254" y="662" type="curve" smooth="yes"/>
      <point x="304" y="662"/>
      <point x="347" y="701"/>
      <point x="347" y="756" type="curve" smooth="yes"/>
      <point x="347" y="798"/>
      <point x="315" y="830"/>
      <point x="270" y="830" type="curve" smooth="yes"/>
      <point x="221" y="830"/>
      <point x="177" y="792"/>
      <point x="177" y="737" type="curve" smooth="yes"/>
      <point x="177" y="691"/>
      <point x="214" y="662"/>
    </contour>
  </outline>
</glyph>
<glyph name="cid40078" format="2">
  <advance height="1000" width="577"/>
  <unicode hex="006B"/>
  <outline>
    <contour>
      <point x="22" y="13" type="curve"/>
      <point x="22" y="13"/>
      <point x="38" y="1"/>
      <point x="38" y="1" type="curve"/>
      <point x="38" y="1"/>
      <point x="179" y="10"/>
      <point x="179" y="10" type="curve"/>
      <point x="190" y="90"/>
      <point x="204" y="158"/>
      <point x="223" y="247" type="curve"/>
      <point x="223" y="247"/>
      <point x="340" y="806"/>
      <point x="340" y="806" type="curve"/>
      <point x="340" y="806"/>
      <point x="326" y="820"/>
      <point x="326" y="820" type="curve"/>
      <point x="326" y="820"/>
      <point x="96" y="758"/>
      <point x="96" y="758" type="curve"/>
      <point x="96" y="758"/>
      <point x="91" y="722"/>
      <point x="91" y="722" type="curve"/>
      <point x="91" y="722"/>
      <point x="220" y="700"/>
      <point x="220" y="700" type="curve"/>
      <point x="220" y="700"/>
      <point x="168" y="732"/>
      <point x="168" y="732" type="curve"/>
      <point x="157" y="654"/>
      <point x="140" y="576"/>
      <point x="124" y="498" type="curve"/>
      <point x="124" y="498"/>
      <point x="22" y="13"/>
    </contour>
    <contour>
      <point x="556" y="10" type="curve"/>
      <point x="556" y="10"/>
      <point x="562" y="44"/>
      <point x="562" y="44" type="curve"/>
      <point x="562" y="44"/>
      <point x="531" y="48"/>
      <point x="531" y="48" type="curve"/>
      <point x="503" y="51"/>
      <point x="488" y="70"/>
      <point x="472" y="111" type="curve"/>
      <point x="472" y="111"/>
      <point x="438" y="189"/>
      <point x="438" y="189" type="curve"/>
      <point x="410" y="258"/>
      <point x="361" y="294"/>
      <point x="286" y="301" type="curve"/>
      <point x="286" y="301"/>
      <point x="231" y="306"/>
      <point x="231" y="306" type="curve"/>
      <point x="231" y="306"/>
      <point x="226" y="298"/>
      <point x="226" y="298" type="curve"/>
      <point x="226" y="298"/>
      <point x="473" y="386"/>
      <point x="473" y="386" type="curve"/>
      <point x="544" y="408"/>
      <point x="576" y="431"/>
      <point x="576" y="477" type="curve" smooth="yes"/>
      <point x="576" y="517"/>
      <point x="545" y="549"/>
      <point x="505" y="553" type="curve"/>
      <point x="505" y="553"/>
      <point x="225" y="315"/>
      <point x="225" y="315" type="curve"/>
      <point x="225" y="315"/>
      <point x="211" y="302"/>
      <point x="211" y="302" type="curve"/>
      <point x="211" y="302"/>
      <point x="206" y="302"/>
      <point x="206" y="302" type="curve"/>
      <point x="206" y="302"/>
      <point x="206" y="290"/>
      <point x="206" y="290" type="curve"/>
      <point x="206" y="290"/>
      <point x="221" y="284"/>
      <point x="221" y="284" type="curve"/>
      <point x="251" y="273"/>
      <point x="259" y="256"/>
      <point x="278" y="198" type="curve"/>
      <point x="278" y="198"/>
      <point x="311" y="100"/>
      <point x="311" y="100" type="curve"/>
      <point x="339" y="14"/>
      <point x="385" y="-7"/>
      <point x="455" y="-7" type="curve" smooth="yes"/>
      <point x="494" y="-7"/>
      <point x="526" y="0"/>
    </contour>
  </outline>
</glyph>
<glyph name="cid40086" format="2">
  <advance height="1000" width="603"/>
  <unicode hex="0070"/>
  <outline>
    <contour>
      <point x="-87" y="-251" type="line"/>
      <point x="222" y="-251" type="line"/>
      <point x="228" y="-213" type="line"/>
      <point x="101" y="-193" type="line"/>
      <point x="39" y="-193" type="line"/>
      <point x="-80" y="-213" type="line"/>
    </contour>
    <contour>
      <point x="-19" y="-251" type="line"/>
      <point x="136" y="-251" type="line"/>
      <point x="149" y="-171"/>
      <point x="166" y="-85"/>
      <point x="188" y="25" type="curve"/>
      <point x="195" y="45" type="line"/>
      <point x="269" y="405" type="line"/>
      <point x="270" y="412" type="line"/>
      <point x="297" y="545" type="line"/>
      <point x="278" y="561" type="line"/>
      <point x="55" y="499" type="line"/>
      <point x="49" y="464" type="line"/>
      <point x="177" y="441" type="line"/>
      <point x="130" y="468" type="line"/>
    </contour>
    <contour>
      <point x="232" y="-7" type="curve" smooth="yes"/>
      <point x="398" y="-7"/>
      <point x="586" y="213"/>
      <point x="586" y="410" type="curve" smooth="yes"/>
      <point x="586" y="522"/>
      <point x="532" y="560"/>
      <point x="469" y="560" type="curve" smooth="yes"/>
      <point x="389" y="560"/>
      <point x="299" y="487"/>
      <point x="242" y="396" type="curve"/>
      <point x="235" y="396" type="line"/>
      <point x="246" y="370" type="line"/>
      <point x="291" y="423"/>
      <point x="337" y="455"/>
      <point x="373" y="455" type="curve" smooth="yes"/>
      <point x="414" y="455"/>
      <point x="431" y="426"/>
      <point x="431" y="364" type="curve" smooth="yes"/>
      <point x="431" y="293"/>
      <point x="405" y="195"/>
      <point x="367" y="140" type="curve" smooth="yes"/>
      <point x="336" y="92"/>
      <point x="304" y="70"/>
      <point x="265" y="70" type="curve" smooth="yes"/>
      <point x="225" y="70"/>
      <point x="194" y="101"/>
      <point x="167" y="142" type="curve"/>
      <point x="110" y="51" type="line"/>
      <point x="142" y="12"/>
      <point x="185" y="-7"/>
    </contour>
  </outline>
</glyph>
<glyph name="cid40088" format="2">
  <advance height="1000" width="607"/>
  <unicode hex="0071"/>
  <outline>
    <contour>
      <point x="146" y="-7" type="curve" smooth="yes"/>
      <point x="228" y="-7"/>
      <point x="321" y="67"/>
      <point x="380" y="154" type="curve"/>
      <point x="394" y="154" type="line"/>
      <point x="376" y="187" type="line"/>
      <point x="327" y="129"/>
      <point x="280" y="100"/>
      <point x="243" y="100" type="curve" smooth="yes"/>
      <point x="204" y="100"/>
      <point x="185" y="130"/>
      <point x="185" y="194" type="curve" smooth="yes"/>
      <point x="185" y="269"/>
      <point x="215" y="380"/>
      <point x="268" y="437" type="curve" smooth="yes"/>
      <point x="290" y="461"/>
      <point x="323" y="483"/>
      <point x="357" y="483" type="curve" smooth="yes"/>
      <point x="386" y="483"/>
      <point x="413" y="468"/>
      <point x="440" y="445" type="curve"/>
      <point x="519" y="502" type="line"/>
      <point x="486" y="541"/>
      <point x="445" y="560"/>
      <point x="398" y="560" type="curve" smooth="yes"/>
      <point x="233" y="560"/>
      <point x="30" y="335"/>
      <point x="30" y="147" type="curve" smooth="yes"/>
      <point x="30" y="34"/>
      <point x="85" y="-7"/>
    </contour>
    <contour>
      <point x="188" y="-251" type="line"/>
      <point x="501" y="-251" type="line"/>
      <point x="508" y="-213" type="line"/>
      <point x="384" y="-193" type="line"/>
      <point x="319" y="-193" type="line"/>
      <point x="195" y="-213" type="line"/>
    </contour>
    <contour>
      <point x="268" y="-251" type="line"/>
      <point x="422" y="-251" type="line"/>
      <point x="435" y="-177"/>
      <point x="448" y="-102"/>
      <point x="465" y="-21" type="curve" smooth="yes"/>
      <point x="585" y="553" type="line"/>
      <point x="567" y="568" type="line"/>
      <point x="431" y="502" type="line"/>
      <point x="422" y="497" type="line"/>
      <point x="347" y="142" type="line"/>
      <point x="346" y="122" type="line"/>
    </contour>
  </outline>
</glyph>
<glyph name="cid40090" format="2">
  <advance height="1000" width="498"/>
  <unicode hex="0072"/>
  <outline>
    <contour>
      <point x="234" y="258" type="curve"/>
      <point x="270" y="339"/>
      <point x="311" y="415"/>
      <point x="385" y="486" type="curve"/>
      <point x="385" y="486"/>
      <point x="385" y="493"/>
      <point x="385" y="493" type="curve"/>
      <point x="385" y="493"/>
      <point x="340" y="486"/>
      <point x="340" y="486" type="curve"/>
      <point x="340" y="486"/>
      <point x="357" y="468"/>
      <point x="357" y="468" type="curve"/>
      <point x="389" y="432"/>
      <point x="410" y="414"/>
      <point x="446" y="414" type="curve" smooth="yes"/>
      <point x="494" y="414"/>
      <point x="521" y="454"/>
      <point x="522" y="504" type="curve"/>
      <point x="508" y="542"/>
      <point x="475" y="560"/>
      <point x="439" y="560" type="curve" smooth="yes"/>
      <point x="356" y="560"/>
      <point x="281" y="452"/>
      <point x="228" y="314" type="curve"/>
      <point x="228" y="314"/>
      <point x="216" y="314"/>
      <point x="216" y="314" type="curve"/>
      <point x="216" y="314"/>
      <point x="234" y="258"/>
    </contour>
    <contour>
      <point x="35" y="13" type="curve"/>
      <point x="35" y="13"/>
      <point x="50" y="1"/>
      <point x="50" y="1" type="curve"/>
      <point x="50" y="1"/>
      <point x="193" y="10"/>
      <point x="193" y="10" type="curve"/>
      <point x="205" y="90"/>
      <point x="221" y="168"/>
      <point x="236" y="246" type="curve"/>
      <point x="236" y="246"/>
      <point x="255" y="343"/>
      <point x="255" y="343" type="curve"/>
      <point x="255" y="343"/>
      <point x="251" y="348"/>
      <point x="251" y="348" type="curve"/>
      <point x="251" y="348"/>
      <point x="286" y="545"/>
      <point x="286" y="545" type="curve"/>
      <point x="286" y="545"/>
      <point x="267" y="560"/>
      <point x="267" y="560" type="curve"/>
      <point x="267" y="560"/>
      <point x="55" y="499"/>
      <point x="55" y="499" type="curve"/>
      <point x="55" y="499"/>
      <point x="48" y="464"/>
      <point x="48" y="464" type="curve"/>
      <point x="48" y="464"/>
      <point x="177" y="441"/>
      <point x="177" y="441" type="curve"/>
      <point x="177" y="441"/>
      <point x="130" y="468"/>
      <point x="130" y="468" type="curve"/>
      <point x="130" y="468"/>
      <point x="35" y="13"/>
    </contour>
  </outline>
</glyph>
<glyph name="cid40091" format="2">
  <advance height="1000" width="458"/>
  <unicode hex="0073"/>
  <outline>
    <contour>
      <point x="174" y="-7" type="curve" smooth="yes"/>
      <point x="327" y="-7"/>
      <point x="402" y="70"/>
      <point x="402" y="160" type="curve" smooth="yes"/>
      <point x="402" y="226"/>
      <point x="367" y="266"/>
      <point x="305" y="317" type="curve" smooth="yes"/>
      <point x="251" y="361"/>
      <point x="217" y="393"/>
      <point x="217" y="439" type="curve" smooth="yes"/>
      <point x="217" y="477"/>
      <point x="242" y="518"/>
      <point x="300" y="518" type="curve" smooth="yes"/>
      <point x="318" y="518"/>
      <point x="335" y="517"/>
      <point x="352" y="516" type="curve"/>
      <point x="283" y="535" type="line"/>
      <point x="309" y="467" type="line" smooth="yes"/>
      <point x="327" y="420"/>
      <point x="355" y="400"/>
      <point x="385" y="400" type="curve" smooth="yes"/>
      <point x="421" y="400"/>
      <point x="441" y="420"/>
      <point x="445" y="451" type="curve"/>
      <point x="431" y="516"/>
      <point x="383" y="560"/>
      <point x="284" y="560" type="curve" smooth="yes"/>
      <point x="152" y="560"/>
      <point x="81" y="478"/>
      <point x="81" y="384" type="curve" smooth="yes"/>
      <point x="81" y="312"/>
      <point x="122" y="270"/>
      <point x="178" y="223" type="curve" smooth="yes"/>
      <point x="231" y="180"/>
      <point x="259" y="150"/>
      <point x="259" y="112" type="curve" smooth="yes"/>
      <point x="259" y="68"/>
      <point x="226" y="34"/>
      <point x="171" y="34" type="curve" smooth="yes"/>
      <point x="147" y="34"/>
      <point x="124" y="36"/>
      <point x="100" y="39" type="curve"/>
      <point x="169" y="18" type="line"/>
      <point x="148" y="96" type="line" smooth="yes"/>
      <point x="136" y="146"/>
      <point x="110" y="165"/>
      <point x="72" y="165" type="curve" smooth="yes"/>
      <point x="38" y="165"/>
      <point x="17" y="143"/>
      <point x="11" y="109" type="curve"/>
      <point x="22" y="35"/>
      <point x="82" y="-7"/>
    </contour>
  </outline>
</glyph>
<glyph name="cid40096" format="2">
  <advance height="1000" width="564"/>
  <unicode hex="0076"/>
  <outline>
    <contour>
      <point x="164" y="10" type="curve"/>
      <point x="164" y="10"/>
      <point x="176" y="1"/>
      <point x="176" y="1" type="curve"/>
      <point x="176" y="1"/>
      <point x="259" y="9"/>
      <point x="259" y="9" type="curve"/>
      <point x="371" y="123"/>
      <point x="461" y="246"/>
      <point x="514" y="344" type="curve" smooth="yes"/>
      <point x="550" y="405"/>
      <point x="562" y="443"/>
      <point x="562" y="480" type="curve" smooth="yes"/>
      <point x="562" y="511"/>
      <point x="559" y="526"/>
      <point x="548" y="544" type="curve"/>
      <point x="536" y="553"/>
      <point x="516" y="560"/>
      <point x="496" y="560" type="curve" smooth="yes"/>
      <point x="447" y="560"/>
      <point x="411" y="532"/>
      <point x="411" y="471" type="curve" smooth="yes"/>
      <point x="411" y="445"/>
      <point x="420" y="414"/>
      <point x="435" y="372" type="curve"/>
      <point x="435" y="372"/>
      <point x="460" y="293"/>
      <point x="460" y="293" type="curve"/>
      <point x="460" y="293"/>
      <point x="486" y="415"/>
      <point x="486" y="415" type="curve"/>
      <point x="479" y="402"/>
      <point x="472" y="387"/>
      <point x="465" y="374" type="curve" smooth="yes"/>
      <point x="413" y="273"/>
      <point x="360" y="191"/>
      <point x="289" y="103" type="curve"/>
      <point x="289" y="103"/>
      <point x="279" y="90"/>
      <point x="279" y="90" type="curve"/>
      <point x="279" y="90"/>
      <point x="301" y="90"/>
      <point x="301" y="90" type="curve"/>
      <point x="296" y="212"/>
      <point x="287" y="343"/>
      <point x="274" y="450" type="curve" smooth="yes"/>
      <point x="267" y="523"/>
      <point x="243" y="560"/>
      <point x="181" y="560" type="curve" smooth="yes"/>
      <point x="123" y="560"/>
      <point x="72" y="517"/>
      <point x="17" y="426" type="curve"/>
      <point x="17" y="426"/>
      <point x="40" y="402"/>
      <point x="40" y="402" type="curve"/>
      <point x="65" y="436"/>
      <point x="83" y="450"/>
      <point x="96" y="450" type="curve" smooth="yes"/>
      <point x="110" y="450"/>
      <point x="119" y="445"/>
      <point x="122" y="413" type="curve" smooth="yes"/>
      <point x="140" y="283"/>
      <point x="152" y="163"/>
    </contour>
  </outline>
</glyph>
<glyph name="cid40097" format="2">
  <advance height="1000" width="866"/>
  <unicode hex="0077"/>
  <outline>
    <contour>
      <point x="164" y="10" type="curve"/>
      <point x="177" y="1" type="line"/>
      <point x="267" y="9" type="line"/>
      <point x="335" y="118"/>
      <point x="398" y="241"/>
      <point x="447" y="352" type="curve" smooth="yes"/>
      <point x="456" y="370" type="line"/>
      <point x="436" y="370" type="line"/>
      <point x="448" y="250"/>
      <point x="460" y="131"/>
      <point x="473" y="10" type="curve"/>
      <point x="486" y="1" type="line"/>
      <point x="564" y="9" type="line"/>
      <point x="674" y="124"/>
      <point x="762" y="246"/>
      <point x="815" y="345" type="curve" smooth="yes"/>
      <point x="849" y="406"/>
      <point x="864" y="446"/>
      <point x="864" y="484" type="curve" smooth="yes"/>
      <point x="864" y="513"/>
      <point x="859" y="530"/>
      <point x="848" y="548" type="curve"/>
      <point x="837" y="557"/>
      <point x="818" y="563"/>
      <point x="799" y="563" type="curve" smooth="yes"/>
      <point x="748" y="563"/>
      <point x="711" y="535"/>
      <point x="711" y="475" type="curve" smooth="yes"/>
      <point x="711" y="449"/>
      <point x="721" y="418"/>
      <point x="735" y="375" type="curve" smooth="yes"/>
      <point x="763" y="290" type="line"/>
      <point x="786" y="413" type="line"/>
      <point x="778" y="399"/>
      <point x="773" y="384"/>
      <point x="766" y="371" type="curve" smooth="yes"/>
      <point x="712" y="272"/>
      <point x="664" y="198"/>
      <point x="603" y="118" type="curve" smooth="yes"/>
      <point x="592" y="104" type="line"/>
      <point x="614" y="101" type="line"/>
      <point x="600" y="243"/>
      <point x="586" y="389"/>
      <point x="569" y="535" type="curve"/>
      <point x="472" y="535" type="line"/>
      <point x="414" y="395"/>
      <point x="352" y="256"/>
      <point x="280" y="120" type="curve" smooth="yes"/>
      <point x="271" y="104" type="line"/>
      <point x="298" y="103" type="line"/>
      <point x="293" y="226"/>
      <point x="284" y="352"/>
      <point x="273" y="452" type="curve" smooth="yes"/>
      <point x="267" y="524"/>
      <point x="242" y="560"/>
      <point x="181" y="560" type="curve" smooth="yes"/>
      <point x="123" y="560"/>
      <point x="72" y="517"/>
      <point x="17" y="426" type="curve"/>
      <point x="40" y="402" type="line"/>
      <point x="64" y="434"/>
      <point x="83" y="450"/>
      <point x="96" y="450" type="curve" smooth="yes"/>
      <point x="110" y="450"/>
      <point x="119" y="446"/>
      <point x="122" y="413" type="curve" smooth="yes"/>
      <point x="140" y="284"/>
      <point x="153" y="165"/>
    </contour>
  </outline>
</glyph>
<glyph name="cid40101" format="2">
  <advance height="1000" width="627"/>
  <unicode hex="0078"/>
  <outline>
    <contour>
      <point x="416" y="-9" type="curve" smooth="yes"/>
      <point x="491" y="-9"/>
      <point x="551" y="57"/>
      <point x="596" y="142" type="curve"/>
      <point x="566" y="161" type="line"/>
      <point x="534" y="118"/>
      <point x="507" y="91"/>
      <point x="485" y="91" type="curve" smooth="yes"/>
      <point x="467" y="91"/>
      <point x="457" y="102"/>
      <point x="445" y="137" type="curve" smooth="yes"/>
      <point x="379" y="336" type="line"/>
      <point x="376" y="343" type="line"/>
      <point x="338" y="458" type="line" smooth="yes"/>
      <point x="315" y="525"/>
      <point x="293" y="560"/>
      <point x="233" y="560" type="curve" smooth="yes"/>
      <point x="171" y="560"/>
      <point x="121" y="507"/>
      <point x="72" y="424" type="curve"/>
      <point x="95" y="402" type="line"/>
      <point x="120" y="438"/>
      <point x="143" y="450"/>
      <point x="160" y="450" type="curve" smooth="yes"/>
      <point x="180" y="450"/>
      <point x="190" y="439"/>
      <point x="203" y="402" type="curve" smooth="yes"/>
      <point x="265" y="210" type="line"/>
      <point x="268" y="205" type="line"/>
      <point x="307" y="84" type="line" smooth="yes"/>
      <point x="329" y="13"/>
      <point x="364" y="-9"/>
    </contour>
    <contour>
      <point x="-12" y="82" type="curve"/>
      <point x="-6" y="19"/>
      <point x="43" y="-7"/>
      <point x="86" y="-7" type="curve" smooth="yes"/>
      <point x="130" y="-7"/>
      <point x="158" y="14"/>
      <point x="185" y="51" type="curve" smooth="yes"/>
      <point x="228" y="107"/>
      <point x="269" y="178"/>
      <point x="325" y="277" type="curve"/>
      <point x="314" y="309" type="line"/>
      <point x="258" y="228"/>
      <point x="205" y="154"/>
      <point x="150" y="83" type="curve" smooth="yes"/>
      <point x="140" y="69"/>
      <point x="129" y="62"/>
      <point x="119" y="51" type="curve"/>
      <point x="119" y="39" type="line"/>
      <point x="160" y="47" type="line"/>
      <point x="146" y="76" type="line" smooth="yes"/>
      <point x="120" y="125"/>
      <point x="97" y="144"/>
      <point x="63" y="144" type="curve" smooth="yes"/>
      <point x="27" y="144"/>
      <point x="-1" y="124"/>
    </contour>
    <contour>
      <point x="335" y="245" type="line"/>
      <point x="388" y="322"/>
      <point x="440" y="396"/>
      <point x="494" y="467" type="curve" smooth="yes"/>
      <point x="505" y="483"/>
      <point x="517" y="492"/>
      <point x="530" y="499" type="curve"/>
      <point x="530" y="507" type="line"/>
      <point x="480" y="503" type="line"/>
      <point x="503" y="466" type="line" smooth="yes"/>
      <point x="523" y="430"/>
      <point x="548" y="411"/>
      <point x="582" y="411" type="curve" smooth="yes"/>
      <point x="620" y="411"/>
      <point x="650" y="442"/>
      <point x="653" y="487" type="curve"/>
      <point x="642" y="538"/>
      <point x="604" y="560"/>
      <point x="564" y="560" type="curve" smooth="yes"/>
      <point x="522" y="560"/>
      <point x="491" y="541"/>
      <point x="458" y="497" type="curve" smooth="yes"/>
      <point x="427" y="454"/>
      <point x="376" y="377"/>
      <point x="323" y="278" type="curve"/>
    </contour>
  </outline>
</glyph>
<glyph name="cid40955" format="2">
  <advance height="1000" width="385"/>
  <unicode hex="007B"/>
  <outline>
    <contour>
      <point x="44" y="296" type="curve"/>
      <point x="120" y="283"/>
      <point x="140" y="256"/>
      <point x="140" y="223" type="curve" smooth="yes"/>
      <point x="140" y="133"/>
      <point x="38" y="45"/>
      <point x="38" y="-59" type="curve" smooth="yes"/>
      <point x="38" y="-134"/>
      <point x="110" y="-169"/>
      <point x="220" y="-169" type="curve"/>
      <point x="220" y="-169"/>
      <point x="262" y="-169"/>
      <point x="262" y="-169" type="curve"/>
      <point x="262" y="-169"/>
      <point x="272" y="-120"/>
      <point x="272" y="-120" type="curve"/>
      <point x="272" y="-120"/>
      <point x="236" y="-117"/>
      <point x="236" y="-117" type="curve"/>
      <point x="196" y="-113"/>
      <point x="177" y="-92"/>
      <point x="177" y="-57" type="curve" smooth="yes"/>
      <point x="177" y="10"/>
      <point x="244" y="128"/>
      <point x="244" y="208" type="curve" smooth="yes"/>
      <point x="244" y="275"/>
      <point x="197" y="321"/>
      <point x="95" y="328" type="curve"/>
      <point x="95" y="328"/>
      <point x="92" y="312"/>
      <point x="92" y="312" type="curve"/>
      <point x="239" y="322"/>
      <point x="302" y="403"/>
      <point x="302" y="520" type="curve" smooth="yes"/>
      <point x="302" y="548"/>
      <point x="300" y="588"/>
      <point x="300" y="618" type="curve" smooth="yes"/>
      <point x="300" y="699"/>
      <point x="325" y="751"/>
      <point x="399" y="758" type="curve"/>
      <point x="399" y="758"/>
      <point x="428" y="762"/>
      <point x="428" y="762" type="curve"/>
      <point x="428" y="762"/>
      <point x="438" y="810"/>
      <point x="438" y="810" type="curve"/>
      <point x="438" y="810"/>
      <point x="403" y="810"/>
      <point x="403" y="810" type="curve"/>
      <point x="261" y="810"/>
      <point x="162" y="754"/>
      <point x="162" y="630" type="curve" smooth="yes"/>
      <point x="162" y="572"/>
      <point x="186" y="520"/>
      <point x="186" y="468" type="curve" smooth="yes"/>
      <point x="186" y="406"/>
      <point x="165" y="363"/>
      <point x="54" y="345" type="curve"/>
      <point x="54" y="345"/>
      <point x="44" y="296"/>
    </contour>
  </outline>
</glyph>
<glyph name="cid40990" format="2">
  <advance height="1000" width="340"/>
  <unicode hex="007C"/>
  <outline>
    <contour>
      <point x="120" y="-271" type="curve"/>
      <point x="120" y="-271"/>
      <point x="217" y="-271"/>
      <point x="217" y="-271" type="curve"/>
      <point x="217" y="-271"/>
      <point x="217" y="849"/>
      <point x="217" y="849" type="curve"/>
      <point x="217" y="849"/>
      <point x="120" y="849"/>
      <point x="120" y="849" type="curve"/>
      <point x="120" y="849"/>
      <point x="120" y="-271"/>
    </contour>
  </outline>
</glyph>
<glyph name="cid40957" format="2">
  <advance height="1000" width="385"/>
  <unicode hex="007D"/>
  <outline>
    <contour>
      <point x="340" y="345" type="curve"/>
      <point x="264" y="357"/>
      <point x="244" y="384"/>
      <point x="244" y="418" type="curve" smooth="yes"/>
      <point x="244" y="507"/>
      <point x="346" y="596"/>
      <point x="346" y="700" type="curve" smooth="yes"/>
      <point x="346" y="775"/>
      <point x="274" y="810"/>
      <point x="165" y="810" type="curve"/>
      <point x="165" y="810"/>
      <point x="122" y="810"/>
      <point x="122" y="810" type="curve"/>
      <point x="122" y="810"/>
      <point x="112" y="760"/>
      <point x="112" y="760" type="curve"/>
      <point x="112" y="760"/>
      <point x="148" y="757"/>
      <point x="148" y="757" type="curve"/>
      <point x="188" y="754"/>
      <point x="207" y="732"/>
      <point x="207" y="698" type="curve" smooth="yes"/>
      <point x="207" y="630"/>
      <point x="140" y="513"/>
      <point x="140" y="432" type="curve" smooth="yes"/>
      <point x="140" y="365"/>
      <point x="187" y="319"/>
      <point x="289" y="312" type="curve"/>
      <point x="289" y="312"/>
      <point x="292" y="328"/>
      <point x="292" y="328" type="curve"/>
      <point x="146" y="318"/>
      <point x="82" y="237"/>
      <point x="82" y="121" type="curve" smooth="yes"/>
      <point x="82" y="93"/>
      <point x="84" y="53"/>
      <point x="84" y="22" type="curve" smooth="yes"/>
      <point x="84" y="-58"/>
      <point x="59" y="-111"/>
      <point x="-15" y="-118" type="curve"/>
      <point x="-15" y="-118"/>
      <point x="-44" y="-121"/>
      <point x="-44" y="-121" type="curve"/>
      <point x="-44" y="-121"/>
      <point x="-54" y="-169"/>
      <point x="-54" y="-169" type="curve"/>
      <point x="-54" y="-169"/>
      <point x="-19" y="-169"/>
      <point x="-19" y="-169" type="curve"/>
      <point x="123" y="-169"/>
      <point x="222" y="-113"/>
      <point x="222" y="10" type="curve" smooth="yes"/>
      <point x="222" y="68"/>
      <point x="198" y="121"/>
      <point x="198" y="172" type="curve" smooth="yes"/>
      <point x="198" y="234"/>
      <point x="220" y="278"/>
      <point x="330" y="296" type="curve"/>
      <point x="330" y="296"/>
      <point x="340" y="345"/>
    </contour>
  </outline>
</glyph>
<glyph name="cid41321" format="2">
  <advance height="1000" width="597"/>
  <unicode hex="007E"/>
  <outline>
    <contour>
      <point x="329" y="429" type="curve" smooth="yes"/>
      <point x="286" y="465"/>
      <point x="249" y="488"/>
      <point x="205" y="488" type="curve" smooth="yes"/>
      <point x="128" y="488"/>
      <point x="74" y="438"/>
      <point x="69" y="315" type="curve"/>
      <point x="138" y="306" type="line"/>
      <point x="144" y="383"/>
      <point x="169" y="406"/>
      <point x="200" y="406" type="curve" smooth="yes"/>
      <point x="225" y="406"/>
      <point x="244" y="393"/>
      <point x="287" y="358" type="curve" smooth="yes"/>
      <point x="330" y="322"/>
      <point x="367" y="299"/>
      <point x="411" y="299" type="curve" smooth="yes"/>
      <point x="486" y="299"/>
      <point x="542" y="349"/>
      <point x="547" y="473" type="curve"/>
      <point x="478" y="482" type="line"/>
      <point x="470" y="404"/>
      <point x="447" y="381"/>
      <point x="416" y="381" type="curve" smooth="yes"/>
      <point x="391" y="381"/>
      <point x="372" y="395"/>
    </contour>
  </outline>
</glyph>
<glyph name="cid40901" format="2">
  <advance height="1000" width="325"/>
  <unicode hex="00A1"/>
  <outline>
    <contour>
      <point x="175" y="301" type="line"/>
      <point x="129" y="301" type="line"/>
      <point x="0" y="12"/>
      <point x="-35" y="-82"/>
      <point x="-35" y="-133" type="curve" smooth="yes"/>
      <point x="-35" y="-182"/>
      <point x="-9" y="-212"/>
      <point x="44" y="-212" type="curve" smooth="yes"/>
      <point x="101" y="-212"/>
      <point x="141" y="-185"/>
      <point x="159" y="-112" type="curve" smooth="yes"/>
      <point x="168" y="-73"/>
      <point x="175" y="17"/>
      <point x="174" y="163" type="curve" smooth="yes"/>
    </contour>
    <contour>
      <point x="268" y="482" type="curve" smooth="yes"/>
      <point x="268" y="524"/>
      <point x="235" y="560"/>
      <point x="188" y="560" type="curve" smooth="yes"/>
      <point x="137" y="560"/>
      <point x="91" y="518"/>
      <point x="91" y="466" type="curve" smooth="yes"/>
      <point x="91" y="422"/>
      <point x="123" y="385"/>
      <point x="171" y="385" type="curve" smooth="yes"/>
      <point x="222" y="385"/>
      <point x="268" y="428"/>
    </contour>
  </outline>
</glyph>
<glyph name="cid41197" format="2">
  <advance height="1000" width="598"/>
  <unicode hex="00A2"/>
  <outline>
    <contour>
      <point x="62" y="280" type="curve" smooth="yes"/>
      <point x="62" y="146"/>
      <point x="144" y="66"/>
      <point x="263" y="66" type="curve" smooth="yes"/>
      <point x="375" y="66"/>
      <point x="465" y="140"/>
      <point x="513" y="226" type="curve"/>
      <point x="487" y="246" type="line"/>
      <point x="445" y="200"/>
      <point x="393" y="171"/>
      <point x="342" y="171" type="curve" smooth="yes"/>
      <point x="260" y="171"/>
      <point x="211" y="217"/>
      <point x="211" y="312" type="curve" smooth="yes"/>
      <point x="211" y="419"/>
      <point x="267" y="589"/>
      <point x="391" y="589" type="curve" smooth="yes"/>
      <point x="439" y="589"/>
      <point x="466" y="582"/>
      <point x="492" y="567" type="curve"/>
      <point x="439" y="607" type="line"/>
      <point x="446" y="510" type="line" smooth="yes"/>
      <point x="449" y="443"/>
      <point x="472" y="426"/>
      <point x="508" y="426" type="curve" smooth="yes"/>
      <point x="534" y="426"/>
      <point x="560" y="440"/>
      <point x="569" y="474" type="curve"/>
      <point x="568" y="573"/>
      <point x="500" y="638"/>
      <point x="386" y="638" type="curve" smooth="yes"/>
      <point x="207" y="638"/>
      <point x="62" y="478"/>
    </contour>
    <contour>
      <point x="282" y="-40" type="line"/>
      <point x="441" y="741" type="line"/>
      <point x="389" y="741" type="line"/>
      <point x="230" y="-40" type="line"/>
    </contour>
  </outline>
</glyph>
<glyph name="cid41194" format="2">
  <advance height="1000" width="598"/>
  <unicode hex="00A4"/>
  <outline>
    <contour>
      <point x="441" y="483" type="curve"/>
      <point x="441" y="483"/>
      <point x="501" y="514"/>
      <point x="501" y="514" type="curve"/>
      <point x="543" y="538"/>
      <point x="580" y="561"/>
      <point x="580" y="596" type="curve" smooth="yes"/>
      <point x="580" y="620"/>
      <point x="558" y="643"/>
      <point x="533" y="643" type="curve" smooth="yes"/>
      <point x="498" y="643"/>
      <point x="476" y="606"/>
      <point x="454" y="562" type="curve"/>
      <point x="454" y="562"/>
      <point x="422" y="503"/>
      <point x="422" y="503" type="curve"/>
      <point x="422" y="503"/>
      <point x="441" y="483"/>
    </contour>
    <contour>
      <point x="198" y="373" type="curve" smooth="yes"/>
      <point x="198" y="445"/>
      <point x="252" y="496"/>
      <point x="315" y="496" type="curve" smooth="yes"/>
      <point x="380" y="496"/>
      <point x="431" y="445"/>
      <point x="431" y="373" type="curve" smooth="yes"/>
      <point x="431" y="301"/>
      <point x="380" y="251"/>
      <point x="315" y="251" type="curve" smooth="yes"/>
      <point x="252" y="251"/>
      <point x="198" y="301"/>
    </contour>
    <contour>
      <point x="122" y="373" type="curve" smooth="yes"/>
      <point x="122" y="260"/>
      <point x="211" y="180"/>
      <point x="315" y="180" type="curve" smooth="yes"/>
      <point x="420" y="180"/>
      <point x="507" y="261"/>
      <point x="507" y="373" type="curve" smooth="yes"/>
      <point x="507" y="487"/>
      <point x="420" y="567"/>
      <point x="315" y="567" type="curve" smooth="yes"/>
      <point x="211" y="567"/>
      <point x="122" y="487"/>
    </contour>
    <contour>
      <point x="207" y="502" type="curve"/>
      <point x="207" y="502"/>
      <point x="176" y="562"/>
      <point x="176" y="562" type="curve"/>
      <point x="152" y="606"/>
      <point x="131" y="643"/>
      <point x="97" y="643" type="curve" smooth="yes"/>
      <point x="72" y="643"/>
      <point x="49" y="620"/>
      <point x="49" y="596" type="curve" smooth="yes"/>
      <point x="49" y="561"/>
      <point x="87" y="538"/>
      <point x="129" y="514" type="curve"/>
      <point x="129" y="514"/>
      <point x="187" y="483"/>
      <point x="187" y="483" type="curve"/>
      <point x="187" y="483"/>
      <point x="207" y="502"/>
    </contour>
    <contour>
      <point x="188" y="263" type="curve"/>
      <point x="188" y="263"/>
      <point x="129" y="232"/>
      <point x="129" y="232" type="curve"/>
      <point x="87" y="208"/>
      <point x="49" y="186"/>
      <point x="49" y="151" type="curve" smooth="yes"/>
      <point x="49" y="125"/>
      <point x="72" y="103"/>
      <point x="97" y="103" type="curve" smooth="yes"/>
      <point x="131" y="103"/>
      <point x="153" y="141"/>
      <point x="176" y="184" type="curve"/>
      <point x="176" y="184"/>
      <point x="207" y="244"/>
      <point x="207" y="244" type="curve"/>
      <point x="207" y="244"/>
      <point x="188" y="263"/>
    </contour>
    <contour>
      <point x="422" y="244" type="curve"/>
      <point x="422" y="244"/>
      <point x="454" y="184"/>
      <point x="454" y="184" type="curve"/>
      <point x="477" y="141"/>
      <point x="498" y="103"/>
      <point x="533" y="103" type="curve" smooth="yes"/>
      <point x="559" y="103"/>
      <point x="580" y="125"/>
      <point x="580" y="151" type="curve" smooth="yes"/>
      <point x="580" y="186"/>
      <point x="543" y="209"/>
      <point x="501" y="232" type="curve"/>
      <point x="501" y="232"/>
      <point x="442" y="264"/>
      <point x="442" y="264" type="curve"/>
      <point x="442" y="264"/>
      <point x="422" y="244"/>
    </contour>
  </outline>
</glyph>
<glyph name="cid41200" format="2">
  <advance height="1000" width="598"/>
  <unicode hex="00A5"/>
  <outline>
    <contour>
      <point x="49" y="177" type="line"/>
      <point x="489" y="177" type="line"/>
      <point x="500" y="230" type="line"/>
      <point x="59" y="230" type="line"/>
    </contour>
    <contour>
      <point x="65" y="10" type="line"/>
      <point x="404" y="10" type="line"/>
      <point x="413" y="58" type="line"/>
      <point x="279" y="74" type="line"/>
      <point x="215" y="74" type="line"/>
      <point x="74" y="58" type="line"/>
    </contour>
    <contour>
      <point x="76" y="309" type="line"/>
      <point x="516" y="309" type="line"/>
      <point x="528" y="362" type="line"/>
      <point x="87" y="362" type="line"/>
    </contour>
    <contour>
      <point x="159" y="10" type="line"/>
      <point x="315" y="10" type="line"/>
      <point x="333" y="116"/>
      <point x="344" y="172"/>
      <point x="381" y="347" type="curve"/>
      <point x="226" y="347" type="line"/>
    </contour>
    <contour>
      <point x="187" y="652" type="line"/>
      <point x="228" y="652" type="line"/>
      <point x="364" y="669" type="line"/>
      <point x="374" y="717" type="line"/>
      <point x="77" y="717" type="line"/>
      <point x="67" y="669" type="line"/>
    </contour>
    <contour>
      <point x="239" y="266" type="line"/>
      <point x="337" y="266" type="line"/>
      <point x="633" y="717" type="line"/>
      <point x="568" y="717" type="line"/>
      <point x="347" y="367" type="line"/>
      <point x="342" y="357" type="line"/>
      <point x="361" y="357" type="line"/>
      <point x="271" y="717" type="line"/>
      <point x="109" y="717" type="line"/>
    </contour>
    <contour>
      <point x="549" y="653" type="line"/>
      <point x="579" y="653" type="line"/>
      <point x="660" y="669" type="line"/>
      <point x="669" y="717" type="line"/>
      <point x="472" y="717" type="line"/>
      <point x="461" y="669" type="line"/>
    </contour>
  </outline>
</glyph>
<glyph name="cid40999" format="2">
  <advance height="1000" width="563"/>
  <unicode hex="00A7"/>
  <outline>
    <contour>
      <point x="188" y="-138" type="curve" smooth="yes"/>
      <point x="339" y="-138"/>
      <point x="414" y="-62"/>
      <point x="414" y="30" type="curve" smooth="yes"/>
      <point x="414" y="96"/>
      <point x="381" y="133"/>
      <point x="320" y="184" type="curve"/>
      <point x="320" y="184"/>
      <point x="272" y="224"/>
      <point x="272" y="224" type="curve"/>
      <point x="221" y="266"/>
      <point x="187" y="301"/>
      <point x="189" y="345" type="curve" smooth="yes"/>
      <point x="189" y="393"/>
      <point x="223" y="434"/>
      <point x="311" y="446" type="curve"/>
      <point x="311" y="446"/>
      <point x="295" y="483"/>
      <point x="295" y="483" type="curve"/>
      <point x="295" y="483"/>
      <point x="282" y="470"/>
      <point x="282" y="470" type="curve"/>
      <point x="130" y="464"/>
      <point x="56" y="381"/>
      <point x="56" y="289" type="curve" smooth="yes"/>
      <point x="56" y="221"/>
      <point x="91" y="177"/>
      <point x="147" y="130" type="curve"/>
      <point x="147" y="130"/>
      <point x="193" y="93"/>
      <point x="193" y="93" type="curve"/>
      <point x="244" y="50"/>
      <point x="272" y="20"/>
      <point x="272" y="-16" type="curve" smooth="yes"/>
      <point x="272" y="-63"/>
      <point x="241" y="-98"/>
      <point x="180" y="-98" type="curve" smooth="yes"/>
      <point x="157" y="-98"/>
      <point x="137" y="-95"/>
      <point x="114" y="-92" type="curve"/>
      <point x="114" y="-92"/>
      <point x="181" y="-117"/>
      <point x="181" y="-117" type="curve"/>
      <point x="181" y="-117"/>
      <point x="159" y="-35"/>
      <point x="159" y="-35" type="curve"/>
      <point x="146" y="14"/>
      <point x="119" y="35"/>
      <point x="83" y="35" type="curve" smooth="yes"/>
      <point x="46" y="35"/>
      <point x="26" y="13"/>
      <point x="19" y="-21" type="curve"/>
      <point x="34" y="-92"/>
      <point x="93" y="-138"/>
    </contour>
    <contour>
      <point x="372" y="766" type="curve" smooth="yes"/>
      <point x="237" y="766"/>
      <point x="166" y="685"/>
      <point x="166" y="590" type="curve" smooth="yes"/>
      <point x="166" y="523"/>
      <point x="207" y="480"/>
      <point x="254" y="441" type="curve"/>
      <point x="254" y="441"/>
      <point x="309" y="396"/>
      <point x="309" y="396" type="curve"/>
      <point x="361" y="353"/>
      <point x="388" y="321"/>
      <point x="386" y="283" type="curve" smooth="yes"/>
      <point x="385" y="235"/>
      <point x="346" y="199"/>
      <point x="262" y="188" type="curve"/>
      <point x="262" y="188"/>
      <point x="281" y="149"/>
      <point x="281" y="149" type="curve"/>
      <point x="281" y="149"/>
      <point x="292" y="162"/>
      <point x="292" y="162" type="curve"/>
      <point x="448" y="169"/>
      <point x="523" y="247"/>
      <point x="523" y="338" type="curve" smooth="yes"/>
      <point x="523" y="400"/>
      <point x="495" y="439"/>
      <point x="438" y="486" type="curve"/>
      <point x="438" y="486"/>
      <point x="392" y="524"/>
      <point x="392" y="524" type="curve"/>
      <point x="339" y="567"/>
      <point x="302" y="600"/>
      <point x="302" y="644" type="curve" smooth="yes"/>
      <point x="302" y="686"/>
      <point x="329" y="726"/>
      <point x="390" y="726" type="curve" smooth="yes"/>
      <point x="407" y="726"/>
      <point x="424" y="722"/>
      <point x="441" y="720" type="curve"/>
      <point x="441" y="720"/>
      <point x="374" y="745"/>
      <point x="374" y="745" type="curve"/>
      <point x="374" y="745"/>
      <point x="402" y="670"/>
      <point x="402" y="670" type="curve"/>
      <point x="420" y="622"/>
      <point x="448" y="601"/>
      <point x="478" y="601" type="curve" smooth="yes"/>
      <point x="515" y="601"/>
      <point x="535" y="623"/>
      <point x="541" y="654" type="curve"/>
      <point x="524" y="721"/>
      <point x="474" y="766"/>
    </contour>
  </outline>
</glyph>
<glyph name="cid41470" format="2">
  <advance height="1000" width="448"/>
  <unicode hex="00A8"/>
  <outline>
    <contour>
      <point x="184" y="665" type="curve" smooth="yes"/>
      <point x="225" y="665"/>
      <point x="267" y="698"/>
      <point x="267" y="751" type="curve" smooth="yes"/>
      <point x="267" y="792"/>
      <point x="235" y="818"/>
      <point x="197" y="818" type="curve" smooth="yes"/>
      <point x="156" y="818"/>
      <point x="113" y="786"/>
      <point x="113" y="732" type="curve" smooth="yes"/>
      <point x="113" y="690"/>
      <point x="147" y="665"/>
    </contour>
    <contour>
      <point x="422" y="665" type="curve" smooth="yes"/>
      <point x="464" y="665"/>
      <point x="505" y="698"/>
      <point x="505" y="751" type="curve" smooth="yes"/>
      <point x="505" y="792"/>
      <point x="475" y="818"/>
      <point x="436" y="818" type="curve" smooth="yes"/>
      <point x="395" y="818"/>
      <point x="353" y="786"/>
      <point x="353" y="732" type="curve" smooth="yes"/>
      <point x="353" y="690"/>
      <point x="385" y="665"/>
    </contour>
  </outline>
</glyph>
<glyph name="cid41002" format="2">
  <advance height="1000" width="850"/>
  <unicode hex="00A9"/>
  <outline>
    <contour>
      <point x="401" y="-10" type="curve" smooth="yes"/>
      <point x="617" y="-10"/>
      <point x="825" y="160"/>
      <point x="825" y="424" type="curve" smooth="yes"/>
      <point x="825" y="635"/>
      <point x="673" y="766"/>
      <point x="480" y="766" type="curve" smooth="yes"/>
      <point x="263" y="766"/>
      <point x="55" y="597"/>
      <point x="55" y="333" type="curve" smooth="yes"/>
      <point x="55" y="121"/>
      <point x="207" y="-10"/>
    </contour>
    <contour>
      <point x="404" y="41" type="curve" smooth="yes"/>
      <point x="243" y="41"/>
      <point x="116" y="153"/>
      <point x="116" y="336" type="curve" smooth="yes"/>
      <point x="116" y="564"/>
      <point x="292" y="714"/>
      <point x="477" y="714" type="curve" smooth="yes"/>
      <point x="638" y="714"/>
      <point x="764" y="602"/>
      <point x="764" y="421" type="curve" smooth="yes"/>
      <point x="764" y="191"/>
      <point x="589" y="41"/>
    </contour>
    <contour>
      <point x="433" y="151" type="curve" smooth="yes"/>
      <point x="484" y="151"/>
      <point x="526" y="165"/>
      <point x="559" y="181" type="curve"/>
      <point x="580" y="291" type="line"/>
      <point x="536" y="291" type="line"/>
      <point x="485" y="177" type="line"/>
      <point x="530" y="214" type="line"/>
      <point x="504" y="200"/>
      <point x="478" y="191"/>
      <point x="450" y="191" type="curve" smooth="yes"/>
      <point x="385" y="191"/>
      <point x="348" y="256"/>
      <point x="348" y="344" type="curve" smooth="yes"/>
      <point x="348" y="450"/>
      <point x="398" y="572"/>
      <point x="498" y="572" type="curve" smooth="yes"/>
      <point x="530" y="572"/>
      <point x="554" y="562"/>
      <point x="577" y="540" type="curve"/>
      <point x="543" y="581" type="line"/>
      <point x="557" y="469" type="line"/>
      <point x="601" y="469" type="line"/>
      <point x="617" y="580" type="line"/>
      <point x="578" y="601"/>
      <point x="540" y="613"/>
      <point x="494" y="613" type="curve" smooth="yes"/>
      <point x="335" y="613"/>
      <point x="233" y="488"/>
      <point x="233" y="350" type="curve" smooth="yes"/>
      <point x="233" y="226"/>
      <point x="312" y="151"/>
    </contour>
  </outline>
</glyph>
<glyph name="cid40928" format="2">
  <advance height="1000" width="648"/>
  <unicode hex="00AB"/>
  <outline>
    <contour>
      <point x="276" y="44" type="line"/>
      <point x="314" y="76" type="line"/>
      <point x="141" y="326" type="line"/>
      <point x="127" y="249" type="line"/>
      <point x="377" y="502" type="line"/>
      <point x="352" y="535" type="line"/>
      <point x="57" y="320" type="line"/>
      <point x="46" y="258" type="line"/>
    </contour>
    <contour>
      <point x="523" y="44" type="line"/>
      <point x="561" y="76" type="line"/>
      <point x="389" y="326" type="line"/>
      <point x="374" y="249" type="line"/>
      <point x="625" y="502" type="line"/>
      <point x="599" y="535" type="line"/>
      <point x="305" y="320" type="line"/>
      <point x="293" y="258" type="line"/>
    </contour>
  </outline>
</glyph>
<glyph name="cid41325" format="2">
  <advance height="1000" width="597"/>
  <unicode hex="00AC"/>
  <outline>
    <contour>
      <point x="48" y="373" type="line"/>
      <point x="507" y="373" type="line"/>
      <point x="472" y="412" type="line"/>
      <point x="472" y="185" type="line"/>
      <point x="553" y="185" type="line"/>
      <point x="553" y="452" type="line"/>
      <point x="48" y="452" type="line"/>
    </contour>
  </outline>
</glyph>
<glyph name="cid41008" format="2">
  <advance height="1000" width="526"/>
  <unicode hex="00AE"/>
  <outline>
    <contour>
      <point x="199" y="478" type="line"/>
      <point x="311" y="478" type="line"/>
      <point x="315" y="496" type="line"/>
      <point x="269" y="502" type="line"/>
      <point x="250" y="502" type="line"/>
      <point x="203" y="496" type="line"/>
    </contour>
    <contour>
      <point x="223" y="478" type="line"/>
      <point x="287" y="478" type="line"/>
      <point x="328" y="700" type="line"/>
      <point x="265" y="700" type="line"/>
    </contour>
    <contour>
      <point x="283" y="676" type="line"/>
      <point x="298" y="676" type="line"/>
      <point x="302" y="700" type="line"/>
      <point x="242" y="700" type="line"/>
      <point x="237" y="682" type="line"/>
    </contour>
    <contour>
      <point x="305" y="398" type="curve" smooth="yes"/>
      <point x="214" y="398"/>
      <point x="143" y="458"/>
      <point x="143" y="557" type="curve" smooth="yes"/>
      <point x="143" y="685"/>
      <point x="240" y="767"/>
      <point x="343" y="767" type="curve" smooth="yes"/>
      <point x="431" y="767"/>
      <point x="501" y="708"/>
      <point x="501" y="608" type="curve" smooth="yes"/>
      <point x="501" y="480"/>
      <point x="407" y="398"/>
    </contour>
    <contour>
      <point x="299" y="356" type="curve" smooth="yes"/>
      <point x="427" y="356"/>
      <point x="550" y="456"/>
      <point x="550" y="610" type="curve" smooth="yes"/>
      <point x="550" y="734"/>
      <point x="459" y="810"/>
      <point x="346" y="810" type="curve" smooth="yes"/>
      <point x="220" y="810"/>
      <point x="95" y="710"/>
      <point x="95" y="557" type="curve" smooth="yes"/>
      <point x="95" y="432"/>
      <point x="186" y="356"/>
    </contour>
    <contour>
      <point x="390" y="474" type="curve" smooth="yes"/>
      <point x="405" y="474"/>
      <point x="418" y="475"/>
      <point x="431" y="478" type="curve"/>
      <point x="435" y="496" type="line"/>
      <point x="385" y="502" type="line"/>
      <point x="414" y="484" type="line"/>
      <point x="401" y="536" type="line" smooth="yes"/>
      <point x="392" y="571"/>
      <point x="379" y="590"/>
      <point x="330" y="591" type="curve"/>
      <point x="328" y="587" type="line"/>
      <point x="394" y="589"/>
      <point x="427" y="611"/>
      <point x="427" y="647" type="curve" smooth="yes"/>
      <point x="427" y="680"/>
      <point x="400" y="700"/>
      <point x="348" y="700" type="curve" smooth="yes"/>
      <point x="299" y="700" type="line"/>
      <point x="295" y="680" type="line"/>
      <point x="335" y="680" type="line" smooth="yes"/>
      <point x="356" y="680"/>
      <point x="367" y="669"/>
      <point x="367" y="645" type="curve" smooth="yes"/>
      <point x="367" y="619"/>
      <point x="354" y="598"/>
      <point x="318" y="598" type="curve" smooth="yes"/>
      <point x="280" y="598" type="line"/>
      <point x="277" y="579" type="line"/>
      <point x="310" y="579" type="line" smooth="yes"/>
      <point x="327" y="579"/>
      <point x="333" y="569"/>
      <point x="337" y="546" type="curve" smooth="yes"/>
      <point x="345" y="506" type="line"/>
      <point x="351" y="483"/>
      <point x="363" y="474"/>
    </contour>
  </outline>
</glyph>
<glyph name="cid41474" format="2">
  <advance height="1000" width="448"/>
  <unicode hex="00AF"/>
  <outline>
    <contour>
      <point x="165" y="669" type="line"/>
      <point x="446" y="669" type="line"/>
      <point x="464" y="754" type="line"/>
      <point x="183" y="754" type="line"/>
    </contour>
  </outline>
</glyph>
<glyph name="cid41193" format="2">
  <advance height="1000" width="367"/>
  <unicode hex="00B0"/>
  <outline>
    <contour>
      <point x="251" y="518" type="curve" smooth="yes"/>
      <point x="199" y="518"/>
      <point x="160" y="557"/>
      <point x="160" y="616" type="curve" smooth="yes"/>
      <point x="160" y="676"/>
      <point x="199" y="714"/>
      <point x="251" y="714" type="curve" smooth="yes"/>
      <point x="302" y="714"/>
      <point x="342" y="676"/>
      <point x="342" y="616" type="curve" smooth="yes"/>
      <point x="342" y="557"/>
      <point x="302" y="518"/>
    </contour>
    <contour>
      <point x="251" y="467" type="curve" smooth="yes"/>
      <point x="329" y="467"/>
      <point x="400" y="523"/>
      <point x="400" y="616" type="curve" smooth="yes"/>
      <point x="400" y="709"/>
      <point x="329" y="767"/>
      <point x="251" y="767" type="curve" smooth="yes"/>
      <point x="172" y="767"/>
      <point x="101" y="709"/>
      <point x="101" y="616" type="curve" smooth="yes"/>
      <point x="101" y="523"/>
      <point x="172" y="467"/>
    </contour>
  </outline>
</glyph>
<glyph name="cid41314" format="2">
  <advance height="1000" width="597"/>
  <unicode hex="00B1"/>
  <outline>
    <contour>
      <point x="253" y="154" type="curve"/>
      <point x="253" y="154"/>
      <point x="335" y="154"/>
      <point x="335" y="154" type="curve"/>
      <point x="335" y="154"/>
      <point x="335" y="626"/>
      <point x="335" y="626" type="curve"/>
      <point x="335" y="626"/>
      <point x="253" y="626"/>
      <point x="253" y="626" type="curve"/>
      <point x="253" y="626"/>
      <point x="253" y="154"/>
    </contour>
    <contour>
      <point x="547" y="354" type="curve"/>
      <point x="547" y="354"/>
      <point x="547" y="432"/>
      <point x="547" y="432" type="curve"/>
      <point x="547" y="432"/>
      <point x="41" y="432"/>
      <point x="41" y="432" type="curve"/>
      <point x="41" y="432"/>
      <point x="41" y="354"/>
      <point x="41" y="354" type="curve"/>
      <point x="41" y="354"/>
      <point x="547" y="354"/>
    </contour>
    <contour>
      <point x="547" y="10" type="curve"/>
      <point x="547" y="10"/>
      <point x="547" y="90"/>
      <point x="547" y="90" type="curve"/>
      <point x="547" y="90"/>
      <point x="41" y="90"/>
      <point x="41" y="90" type="curve"/>
      <point x="41" y="90"/>
      <point x="41" y="10"/>
      <point x="41" y="10" type="curve"/>
      <point x="41" y="10"/>
      <point x="547" y="10"/>
    </contour>
  </outline>
</glyph>
<glyph name="cid41022" format="2">
  <advance height="1000" width="411"/>
  <unicode hex="00B2"/>
  <outline>
    <contour>
      <point x="91" y="478" type="line"/>
      <point x="405" y="478" type="line"/>
      <point x="423" y="571" type="line"/>
      <point x="169" y="571" type="line"/>
      <point x="168" y="557" type="line"/>
      <point x="385" y="692"/>
      <point x="452" y="747"/>
      <point x="452" y="823" type="curve" smooth="yes"/>
      <point x="452" y="885"/>
      <point x="405" y="931"/>
      <point x="320" y="931" type="curve" smooth="yes"/>
      <point x="236" y="931"/>
      <point x="168" y="898"/>
      <point x="148" y="806" type="curve"/>
      <point x="152" y="776"/>
      <point x="169" y="764"/>
      <point x="194" y="764" type="curve" smooth="yes"/>
      <point x="225" y="764"/>
      <point x="245" y="781"/>
      <point x="249" y="830" type="curve" smooth="yes"/>
      <point x="253" y="908" type="line"/>
      <point x="208" y="872" type="line"/>
      <point x="234" y="886"/>
      <point x="260" y="891"/>
      <point x="283" y="891" type="curve" smooth="yes"/>
      <point x="317" y="891"/>
      <point x="342" y="872"/>
      <point x="342" y="828" type="curve" smooth="yes"/>
      <point x="342" y="762"/>
      <point x="296" y="699"/>
      <point x="102" y="541" type="curve"/>
    </contour>
  </outline>
</glyph>
<glyph name="cid41024" format="2">
  <advance height="1000" width="411"/>
  <unicode hex="00B3"/>
  <outline>
    <contour>
      <point x="236" y="468" type="curve" smooth="yes"/>
      <point x="360" y="468"/>
      <point x="435" y="522"/>
      <point x="435" y="601" type="curve" smooth="yes"/>
      <point x="435" y="667"/>
      <point x="385" y="702"/>
      <point x="286" y="709" type="curve"/>
      <point x="286" y="709"/>
      <point x="283" y="700"/>
      <point x="283" y="700" type="curve"/>
      <point x="404" y="710"/>
      <point x="458" y="765"/>
      <point x="458" y="825" type="curve" smooth="yes"/>
      <point x="458" y="881"/>
      <point x="417" y="931"/>
      <point x="309" y="931" type="curve" smooth="yes"/>
      <point x="226" y="931"/>
      <point x="160" y="894"/>
      <point x="157" y="820" type="curve"/>
      <point x="164" y="805"/>
      <point x="179" y="796"/>
      <point x="197" y="796" type="curve" smooth="yes"/>
      <point x="222" y="796"/>
      <point x="244" y="807"/>
      <point x="250" y="848" type="curve"/>
      <point x="250" y="848"/>
      <point x="262" y="914"/>
      <point x="262" y="914" type="curve"/>
      <point x="262" y="914"/>
      <point x="218" y="884"/>
      <point x="218" y="884" type="curve"/>
      <point x="241" y="891"/>
      <point x="263" y="895"/>
      <point x="278" y="895" type="curve" smooth="yes"/>
      <point x="324" y="895"/>
      <point x="347" y="869"/>
      <point x="347" y="821" type="curve" smooth="yes"/>
      <point x="347" y="758"/>
      <point x="309" y="720"/>
      <point x="224" y="720" type="curve"/>
      <point x="224" y="720"/>
      <point x="216" y="684"/>
      <point x="216" y="684" type="curve"/>
      <point x="287" y="684"/>
      <point x="315" y="656"/>
      <point x="315" y="602" type="curve" smooth="yes"/>
      <point x="315" y="541"/>
      <point x="273" y="504"/>
      <point x="218" y="504" type="curve" smooth="yes"/>
      <point x="189" y="504"/>
      <point x="172" y="506"/>
      <point x="158" y="514" type="curve"/>
      <point x="158" y="514"/>
      <point x="197" y="485"/>
      <point x="197" y="485" type="curve"/>
      <point x="197" y="485"/>
      <point x="194" y="552"/>
      <point x="194" y="552" type="curve"/>
      <point x="190" y="602"/>
      <point x="171" y="615"/>
      <point x="144" y="615" type="curve" smooth="yes"/>
      <point x="127" y="615"/>
      <point x="109" y="604"/>
      <point x="100" y="583" type="curve"/>
      <point x="101" y="510"/>
      <point x="150" y="468"/>
    </contour>
  </outline>
</glyph>
<glyph name="cid41462" format="2">
  <advance height="1000" width="448"/>
  <unicode hex="00B4"/>
  <outline>
    <contour>
      <point x="225" y="629" type="curve"/>
      <point x="225" y="629"/>
      <point x="256" y="610"/>
      <point x="256" y="610" type="curve"/>
      <point x="295" y="647"/>
      <point x="334" y="682"/>
      <point x="372" y="720" type="curve" smooth="yes"/>
      <point x="405" y="751"/>
      <point x="426" y="782"/>
      <point x="426" y="812" type="curve" smooth="yes"/>
      <point x="426" y="848"/>
      <point x="395" y="871"/>
      <point x="364" y="871" type="curve" smooth="yes"/>
      <point x="329" y="871"/>
      <point x="302" y="848"/>
      <point x="282" y="791" type="curve" smooth="yes"/>
      <point x="263" y="737"/>
      <point x="244" y="683"/>
    </contour>
  </outline>
</glyph>
<glyph name="cid41001" format="2">
  <advance height="1000" width="709"/>
  <unicode hex="00B6"/>
  <outline>
    <contour>
      <point x="609" y="746" type="curve"/>
      <point x="609" y="746"/>
      <point x="597" y="680"/>
      <point x="597" y="680" type="curve"/>
      <point x="597" y="680"/>
      <point x="619" y="680"/>
      <point x="619" y="680" type="curve"/>
      <point x="619" y="680"/>
      <point x="763" y="697"/>
      <point x="763" y="697" type="curve"/>
      <point x="763" y="697"/>
      <point x="772" y="746"/>
      <point x="772" y="746" type="curve"/>
      <point x="772" y="746"/>
      <point x="609" y="746"/>
    </contour>
    <contour>
      <point x="383" y="-120" type="curve"/>
      <point x="383" y="-120"/>
      <point x="529" y="-120"/>
      <point x="529" y="-120" type="curve"/>
      <point x="545" y="-14"/>
      <point x="568" y="111"/>
      <point x="589" y="227" type="curve"/>
      <point x="589" y="227"/>
      <point x="685" y="746"/>
      <point x="685" y="746" type="curve"/>
      <point x="685" y="746"/>
      <point x="543" y="746"/>
      <point x="543" y="746" type="curve"/>
      <point x="543" y="746"/>
      <point x="383" y="-120"/>
    </contour>
    <contour>
      <point x="456" y="693" type="curve"/>
      <point x="456" y="693"/>
      <point x="610" y="693"/>
      <point x="610" y="693" type="curve"/>
      <point x="610" y="693"/>
      <point x="619" y="746"/>
      <point x="619" y="746" type="curve"/>
      <point x="619" y="746"/>
      <point x="495" y="746"/>
      <point x="495" y="746" type="curve"/>
      <point x="230" y="746"/>
      <point x="72" y="606"/>
      <point x="72" y="399" type="curve" smooth="yes"/>
      <point x="72" y="240"/>
      <point x="193" y="158"/>
      <point x="354" y="142" type="curve"/>
      <point x="354" y="142"/>
      <point x="456" y="693"/>
    </contour>
  </outline>
</glyph>
<glyph name="cid40945" format="2">
  <advance height="1000" width="330"/>
  <unicode hex="00B7"/>
  <outline>
    <contour>
      <point x="179" y="286" type="curve" smooth="yes"/>
      <point x="234" y="286"/>
      <point x="282" y="328"/>
      <point x="282" y="385" type="curve" smooth="yes"/>
      <point x="282" y="430"/>
      <point x="248" y="469"/>
      <point x="197" y="469" type="curve" smooth="yes"/>
      <point x="142" y="469"/>
      <point x="94" y="426"/>
      <point x="94" y="368" type="curve" smooth="yes"/>
      <point x="94" y="324"/>
      <point x="129" y="286"/>
    </contour>
  </outline>
</glyph>
<glyph name="cid41493" format="2">
  <advance height="1000" width="448"/>
  <unicode hex="00B8"/>
  <outline>
    <contour>
      <point x="99" y="-85" type="curve"/>
      <point x="142" y="-93"/>
      <point x="168" y="-112"/>
      <point x="168" y="-145" type="curve" smooth="yes"/>
      <point x="168" y="-177"/>
      <point x="143" y="-198"/>
      <point x="104" y="-198" type="curve" smooth="yes"/>
      <point x="83" y="-198"/>
      <point x="63" y="-194"/>
      <point x="43" y="-185" type="curve"/>
      <point x="43" y="-185"/>
      <point x="26" y="-222"/>
      <point x="26" y="-222" type="curve"/>
      <point x="47" y="-236"/>
      <point x="80" y="-246"/>
      <point x="121" y="-246" type="curve" smooth="yes"/>
      <point x="208" y="-246"/>
      <point x="256" y="-203"/>
      <point x="256" y="-150" type="curve" smooth="yes"/>
      <point x="256" y="-99"/>
      <point x="220" y="-67"/>
      <point x="131" y="-47" type="curve"/>
      <point x="131" y="-47"/>
      <point x="146" y="-73"/>
      <point x="146" y="-73" type="curve"/>
      <point x="146" y="-73"/>
      <point x="184" y="10"/>
      <point x="184" y="10" type="curve"/>
      <point x="184" y="10"/>
      <point x="142" y="10"/>
      <point x="142" y="10" type="curve"/>
      <point x="142" y="10"/>
      <point x="99" y="-85"/>
    </contour>
  </outline>
</glyph>
<glyph name="cid41021" format="2">
  <advance height="1000" width="411"/>
  <unicode hex="00B9"/>
  <outline>
    <contour>
      <point x="114" y="478" type="line"/>
      <point x="399" y="478" type="line"/>
      <point x="404" y="511" type="line"/>
      <point x="293" y="525" type="line"/>
      <point x="235" y="525" type="line"/>
      <point x="121" y="511" type="line"/>
    </contour>
    <contour>
      <point x="194" y="478" type="line"/>
      <point x="314" y="478" type="line"/>
      <point x="382" y="810" type="line"/>
      <point x="408" y="922" type="line"/>
      <point x="399" y="930" type="line"/>
      <point x="203" y="885" type="line"/>
      <point x="197" y="856" type="line"/>
      <point x="292" y="860" type="line"/>
      <point x="274" y="881" type="line"/>
    </contour>
  </outline>
</glyph>
<glyph name="cid40931" format="2">
  <advance height="1000" width="648"/>
  <unicode hex="00BB"/>
  <outline>
    <contour>
      <point x="358" y="534" type="curve"/>
      <point x="358" y="534"/>
      <point x="320" y="502"/>
      <point x="320" y="502" type="curve"/>
      <point x="320" y="502"/>
      <point x="493" y="252"/>
      <point x="493" y="252" type="curve"/>
      <point x="493" y="252"/>
      <point x="507" y="329"/>
      <point x="507" y="329" type="curve"/>
      <point x="507" y="329"/>
      <point x="256" y="76"/>
      <point x="256" y="76" type="curve"/>
      <point x="256" y="76"/>
      <point x="282" y="42"/>
      <point x="282" y="42" type="curve"/>
      <point x="282" y="42"/>
      <point x="577" y="258"/>
      <point x="577" y="258" type="curve"/>
      <point x="577" y="258"/>
      <point x="588" y="320"/>
      <point x="588" y="320" type="curve"/>
      <point x="588" y="320"/>
      <point x="358" y="534"/>
    </contour>
    <contour>
      <point x="111" y="534" type="curve"/>
      <point x="111" y="534"/>
      <point x="73" y="502"/>
      <point x="73" y="502" type="curve"/>
      <point x="73" y="502"/>
      <point x="245" y="252"/>
      <point x="245" y="252" type="curve"/>
      <point x="245" y="252"/>
      <point x="260" y="329"/>
      <point x="260" y="329" type="curve"/>
      <point x="260" y="329"/>
      <point x="9" y="76"/>
      <point x="9" y="76" type="curve"/>
      <point x="9" y="76"/>
      <point x="35" y="42"/>
      <point x="35" y="42" type="curve"/>
      <point x="35" y="42"/>
      <point x="329" y="258"/>
      <point x="329" y="258" type="curve"/>
      <point x="329" y="258"/>
      <point x="340" y="320"/>
      <point x="340" y="320" type="curve"/>
      <point x="340" y="320"/>
      <point x="111" y="534"/>
    </contour>
  </outline>
</glyph>
<glyph name="cid41240" format="2">
  <advance height="1000" width="978"/>
  <unicode hex="00BC"/>
  <outline>
    <contour>
      <point x="77" y="306" type="curve"/>
      <point x="77" y="306"/>
      <point x="362" y="306"/>
      <point x="362" y="306" type="curve"/>
      <point x="362" y="306"/>
      <point x="367" y="338"/>
      <point x="367" y="338" type="curve"/>
      <point x="367" y="338"/>
      <point x="256" y="353"/>
      <point x="256" y="353" type="curve"/>
      <point x="256" y="353"/>
      <point x="198" y="353"/>
      <point x="198" y="353" type="curve"/>
      <point x="198" y="353"/>
      <point x="84" y="338"/>
      <point x="84" y="338" type="curve"/>
      <point x="84" y="338"/>
      <point x="77" y="306"/>
    </contour>
    <contour>
      <point x="157" y="306" type="curve"/>
      <point x="157" y="306"/>
      <point x="277" y="306"/>
      <point x="277" y="306" type="curve"/>
      <point x="277" y="306"/>
      <point x="345" y="637"/>
      <point x="345" y="637" type="curve"/>
      <point x="345" y="637"/>
      <point x="371" y="749"/>
      <point x="371" y="749" type="curve"/>
      <point x="371" y="749"/>
      <point x="362" y="757"/>
      <point x="362" y="757" type="curve"/>
      <point x="362" y="757"/>
      <point x="166" y="712"/>
      <point x="166" y="712" type="curve"/>
      <point x="166" y="712"/>
      <point x="160" y="683"/>
      <point x="160" y="683" type="curve"/>
      <point x="160" y="683"/>
      <point x="255" y="688"/>
      <point x="255" y="688" type="curve"/>
      <point x="255" y="688"/>
      <point x="237" y="709"/>
      <point x="237" y="709" type="curve"/>
      <point x="237" y="709"/>
      <point x="157" y="306"/>
    </contour>
    <contour>
      <point x="265" y="-14" type="curve"/>
      <point x="265" y="-14"/>
      <point x="810" y="703"/>
      <point x="810" y="703" type="curve"/>
      <point x="810" y="703"/>
      <point x="763" y="739"/>
      <point x="763" y="739" type="curve"/>
      <point x="763" y="739"/>
      <point x="217" y="22"/>
      <point x="217" y="22" type="curve"/>
      <point x="217" y="22"/>
      <point x="265" y="-14"/>
    </contour>
    <contour>
      <point x="716" y="3" type="curve"/>
      <point x="716" y="3"/>
      <point x="825" y="3"/>
      <point x="825" y="3" type="curve"/>
      <point x="825" y="3"/>
      <point x="915" y="455"/>
      <point x="915" y="455" type="curve"/>
      <point x="915" y="455"/>
      <point x="824" y="455"/>
      <point x="824" y="455" type="curve"/>
      <point x="824" y="455"/>
      <point x="564" y="175"/>
      <point x="564" y="175" type="curve"/>
      <point x="564" y="175"/>
      <point x="550" y="101"/>
      <point x="550" y="101" type="curve"/>
      <point x="550" y="101"/>
      <point x="915" y="101"/>
      <point x="915" y="101" type="curve"/>
      <point x="915" y="101"/>
      <point x="928" y="176"/>
      <point x="928" y="176" type="curve"/>
      <point x="928" y="176"/>
      <point x="606" y="176"/>
      <point x="606" y="176" type="curve"/>
      <point x="606" y="176"/>
      <point x="606" y="187"/>
      <point x="606" y="187" type="curve"/>
      <point x="606" y="187"/>
      <point x="597" y="160"/>
      <point x="597" y="160" type="curve"/>
      <point x="597" y="160"/>
      <point x="704" y="274"/>
      <point x="704" y="274" type="curve"/>
      <point x="704" y="274"/>
      <point x="812" y="390"/>
      <point x="812" y="390" type="curve"/>
      <point x="812" y="390"/>
      <point x="777" y="376"/>
      <point x="777" y="376" type="curve"/>
      <point x="777" y="376"/>
      <point x="791" y="376"/>
      <point x="791" y="376" type="curve"/>
      <point x="791" y="376"/>
      <point x="746" y="151"/>
      <point x="746" y="151" type="curve"/>
      <point x="746" y="151"/>
      <point x="743" y="138"/>
      <point x="743" y="138" type="curve"/>
      <point x="743" y="138"/>
      <point x="716" y="3"/>
    </contour>
  </outline>
</glyph>
<glyph name="cid41242" format="2">
  <advance height="1000" width="1010"/>
  <unicode hex="00BD"/>
  <outline>
    <contour>
      <point x="77" y="306" type="line"/>
      <point x="362" y="306" type="line"/>
      <point x="367" y="338" type="line"/>
      <point x="256" y="353" type="line"/>
      <point x="198" y="353" type="line"/>
      <point x="84" y="338" type="line"/>
    </contour>
    <contour>
      <point x="157" y="306" type="line"/>
      <point x="277" y="306" type="line"/>
      <point x="345" y="637" type="line"/>
      <point x="371" y="749" type="line"/>
      <point x="362" y="757" type="line"/>
      <point x="166" y="712" type="line"/>
      <point x="160" y="683" type="line"/>
      <point x="255" y="688" type="line"/>
      <point x="237" y="709" type="line"/>
    </contour>
    <contour>
      <point x="265" y="-14" type="line"/>
      <point x="810" y="703" type="line"/>
      <point x="763" y="739" type="line"/>
      <point x="217" y="22" type="line"/>
    </contour>
    <contour>
      <point x="590" y="10" type="line"/>
      <point x="905" y="10" type="line"/>
      <point x="923" y="103" type="line"/>
      <point x="669" y="103" type="line"/>
      <point x="668" y="88" type="line"/>
      <point x="885" y="224"/>
      <point x="952" y="279"/>
      <point x="952" y="355" type="curve" smooth="yes"/>
      <point x="952" y="417"/>
      <point x="905" y="462"/>
      <point x="820" y="462" type="curve" smooth="yes"/>
      <point x="736" y="462"/>
      <point x="668" y="430"/>
      <point x="647" y="338" type="curve"/>
      <point x="652" y="308"/>
      <point x="669" y="296"/>
      <point x="693" y="296" type="curve" smooth="yes"/>
      <point x="725" y="296"/>
      <point x="745" y="312"/>
      <point x="748" y="362" type="curve" smooth="yes"/>
      <point x="753" y="440" type="line"/>
      <point x="708" y="404" type="line"/>
      <point x="734" y="418"/>
      <point x="759" y="423"/>
      <point x="783" y="423" type="curve" smooth="yes"/>
      <point x="816" y="423"/>
      <point x="841" y="404"/>
      <point x="841" y="359" type="curve" smooth="yes"/>
      <point x="841" y="293"/>
      <point x="795" y="231"/>
      <point x="601" y="73" type="curve"/>
    </contour>
  </outline>
</glyph>
<glyph name="cid41244" format="2">
  <advance height="1000" width="978"/>
  <unicode hex="00BE"/>
  <outline>
    <contour>
      <point x="199" y="296" type="curve" smooth="yes"/>
      <point x="323" y="296"/>
      <point x="398" y="349"/>
      <point x="398" y="429" type="curve" smooth="yes"/>
      <point x="398" y="495"/>
      <point x="348" y="530"/>
      <point x="249" y="536" type="curve"/>
      <point x="249" y="536"/>
      <point x="246" y="527"/>
      <point x="246" y="527" type="curve"/>
      <point x="367" y="538"/>
      <point x="421" y="592"/>
      <point x="421" y="653" type="curve" smooth="yes"/>
      <point x="421" y="709"/>
      <point x="380" y="758"/>
      <point x="272" y="758" type="curve" smooth="yes"/>
      <point x="189" y="758"/>
      <point x="123" y="721"/>
      <point x="120" y="647" type="curve"/>
      <point x="127" y="633"/>
      <point x="142" y="624"/>
      <point x="160" y="624" type="curve" smooth="yes"/>
      <point x="185" y="624"/>
      <point x="207" y="635"/>
      <point x="213" y="675" type="curve"/>
      <point x="213" y="675"/>
      <point x="225" y="741"/>
      <point x="225" y="741" type="curve"/>
      <point x="225" y="741"/>
      <point x="181" y="711"/>
      <point x="181" y="711" type="curve"/>
      <point x="204" y="719"/>
      <point x="226" y="722"/>
      <point x="241" y="722" type="curve" smooth="yes"/>
      <point x="287" y="722"/>
      <point x="310" y="697"/>
      <point x="310" y="648" type="curve" smooth="yes"/>
      <point x="310" y="586"/>
      <point x="272" y="548"/>
      <point x="187" y="548" type="curve"/>
      <point x="187" y="548"/>
      <point x="179" y="512"/>
      <point x="179" y="512" type="curve"/>
      <point x="250" y="512"/>
      <point x="278" y="484"/>
      <point x="278" y="430" type="curve" smooth="yes"/>
      <point x="278" y="368"/>
      <point x="236" y="331"/>
      <point x="181" y="331" type="curve" smooth="yes"/>
      <point x="152" y="331"/>
      <point x="136" y="334"/>
      <point x="121" y="342" type="curve"/>
      <point x="121" y="342"/>
      <point x="160" y="312"/>
      <point x="160" y="312" type="curve"/>
      <point x="160" y="312"/>
      <point x="157" y="380"/>
      <point x="157" y="380" type="curve"/>
      <point x="153" y="430"/>
      <point x="134" y="442"/>
      <point x="108" y="442" type="curve" smooth="yes"/>
      <point x="90" y="442"/>
      <point x="72" y="431"/>
      <point x="63" y="411" type="curve"/>
      <point x="64" y="337"/>
      <point x="113" y="296"/>
    </contour>
    <contour>
      <point x="265" y="-14" type="curve"/>
      <point x="265" y="-14"/>
      <point x="810" y="703"/>
      <point x="810" y="703" type="curve"/>
      <point x="810" y="703"/>
      <point x="763" y="739"/>
      <point x="763" y="739" type="curve"/>
      <point x="763" y="739"/>
      <point x="217" y="22"/>
      <point x="217" y="22" type="curve"/>
      <point x="217" y="22"/>
      <point x="265" y="-14"/>
    </contour>
    <contour>
      <point x="716" y="3" type="curve"/>
      <point x="716" y="3"/>
      <point x="825" y="3"/>
      <point x="825" y="3" type="curve"/>
      <point x="825" y="3"/>
      <point x="915" y="455"/>
      <point x="915" y="455" type="curve"/>
      <point x="915" y="455"/>
      <point x="824" y="455"/>
      <point x="824" y="455" type="curve"/>
      <point x="824" y="455"/>
      <point x="564" y="175"/>
      <point x="564" y="175" type="curve"/>
      <point x="564" y="175"/>
      <point x="550" y="101"/>
      <point x="550" y="101" type="curve"/>
      <point x="550" y="101"/>
      <point x="915" y="101"/>
      <point x="915" y="101" type="curve"/>
      <point x="915" y="101"/>
      <point x="928" y="176"/>
      <point x="928" y="176" type="curve"/>
      <point x="928" y="176"/>
      <point x="606" y="176"/>
      <point x="606" y="176" type="curve"/>
      <point x="606" y="176"/>
      <point x="606" y="187"/>
      <point x="606" y="187" type="curve"/>
      <point x="606" y="187"/>
      <point x="597" y="160"/>
      <point x="597" y="160" type="curve"/>
      <point x="597" y="160"/>
      <point x="704" y="274"/>
      <point x="704" y="274" type="curve"/>
      <point x="704" y="274"/>
      <point x="812" y="390"/>
      <point x="812" y="390" type="curve"/>
      <point x="812" y="390"/>
      <point x="777" y="376"/>
      <point x="777" y="376" type="curve"/>
      <point x="777" y="376"/>
      <point x="791" y="376"/>
      <point x="791" y="376" type="curve"/>
      <point x="791" y="376"/>
      <point x="746" y="151"/>
      <point x="746" y="151" type="curve"/>
      <point x="746" y="151"/>
      <point x="743" y="138"/>
      <point x="743" y="138" type="curve"/>
      <point x="743" y="138"/>
      <point x="716" y="3"/>
    </contour>
  </outline>
</glyph>
<glyph name="cid40906" format="2">
  <advance height="1000" width="505"/>
  <unicode hex="00BF"/>
  <outline>
    <contour>
      <point x="365" y="326" type="curve"/>
      <point x="365" y="326"/>
      <point x="319" y="331"/>
      <point x="319" y="331" type="curve"/>
      <point x="312" y="283"/>
      <point x="305" y="263"/>
      <point x="284" y="243" type="curve" smooth="yes"/>
      <point x="259" y="218"/>
      <point x="215" y="194"/>
      <point x="105" y="138" type="curve" smooth="yes"/>
      <point x="6" y="85"/>
      <point x="-39" y="25"/>
      <point x="-39" y="-62" type="curve" smooth="yes"/>
      <point x="-39" y="-162"/>
      <point x="55" y="-212"/>
      <point x="166" y="-212" type="curve" smooth="yes"/>
      <point x="278" y="-212"/>
      <point x="352" y="-160"/>
      <point x="370" y="-86" type="curve"/>
      <point x="367" y="-50"/>
      <point x="342" y="-26"/>
      <point x="309" y="-26" type="curve" smooth="yes"/>
      <point x="271" y="-26"/>
      <point x="241" y="-43"/>
      <point x="226" y="-90" type="curve"/>
      <point x="226" y="-90"/>
      <point x="197" y="-183"/>
      <point x="197" y="-183" type="curve"/>
      <point x="197" y="-183"/>
      <point x="261" y="-154"/>
      <point x="261" y="-154" type="curve"/>
      <point x="237" y="-161"/>
      <point x="211" y="-166"/>
      <point x="180" y="-166" type="curve" smooth="yes"/>
      <point x="111" y="-166"/>
      <point x="78" y="-137"/>
      <point x="78" y="-90" type="curve" smooth="yes"/>
      <point x="78" y="-46"/>
      <point x="108" y="-15"/>
      <point x="197" y="32" type="curve" smooth="yes"/>
      <point x="281" y="77"/>
      <point x="312" y="101"/>
      <point x="337" y="138" type="curve" smooth="yes"/>
      <point x="368" y="184"/>
      <point x="371" y="231"/>
    </contour>
    <contour>
      <point x="441" y="484" type="curve" smooth="yes"/>
      <point x="441" y="525"/>
      <point x="410" y="560"/>
      <point x="364" y="560" type="curve" smooth="yes"/>
      <point x="315" y="560"/>
      <point x="271" y="520"/>
      <point x="271" y="469" type="curve" smooth="yes"/>
      <point x="271" y="427"/>
      <point x="302" y="392"/>
      <point x="348" y="392" type="curve" smooth="yes"/>
      <point x="396" y="392"/>
      <point x="441" y="433"/>
    </contour>
  </outline>
</glyph>
<glyph name="cid40105" format="2">
  <advance height="1000" width="740"/>
  <unicode hex="00C0"/>
  <outline>
    <contour>
      <point x="-48" y="10" type="line"/>
      <point x="186" y="10" type="line"/>
      <point x="196" y="59" type="line"/>
      <point x="96" y="74" type="line"/>
      <point x="68" y="74" type="line"/>
      <point x="-38" y="59" type="line"/>
    </contour>
    <contour>
      <point x="19" y="10" type="line"/>
      <point x="76" y="10" type="line"/>
      <point x="376" y="608" type="line"/>
      <point x="382" y="618" type="line"/>
      <point x="366" y="618" type="line"/>
      <point x="450" y="10" type="line"/>
      <point x="612" y="10" type="line"/>
      <point x="498" y="747" type="line"/>
      <point x="400" y="747" type="line"/>
    </contour>
    <contour>
      <point x="178" y="238" type="line"/>
      <point x="494" y="238" type="line"/>
      <point x="489" y="293" type="line"/>
      <point x="196" y="293" type="line"/>
    </contour>
    <contour>
      <point x="343" y="10" type="line"/>
      <point x="674" y="10" type="line"/>
      <point x="684" y="59" type="line"/>
      <point x="551" y="76" type="line"/>
      <point x="504" y="76" type="line"/>
      <point x="353" y="59" type="line"/>
    </contour>
    <contour>
      <point x="515" y="829" type="line"/>
      <point x="475" y="869"/>
      <point x="435" y="908"/>
      <point x="395" y="945" type="curve" smooth="yes"/>
      <point x="362" y="978"/>
      <point x="340" y="988"/>
      <point x="316" y="988" type="curve" smooth="yes"/>
      <point x="281" y="988"/>
      <point x="259" y="960"/>
      <point x="259" y="933" type="curve" smooth="yes"/>
      <point x="259" y="914"/>
      <point x="268" y="885"/>
      <point x="320" y="862" type="curve" smooth="yes"/>
      <point x="377" y="838"/>
      <point x="436" y="816"/>
      <point x="493" y="795" type="curve"/>
    </contour>
  </outline>
</glyph>
<glyph name="cid40107" format="2">
  <advance height="1000" width="740"/>
  <unicode hex="00C1"/>
  <outline>
    <contour>
      <point x="-48" y="10" type="curve"/>
      <point x="-48" y="10"/>
      <point x="186" y="10"/>
      <point x="186" y="10" type="curve"/>
      <point x="186" y="10"/>
      <point x="196" y="59"/>
      <point x="196" y="59" type="curve"/>
      <point x="196" y="59"/>
      <point x="96" y="74"/>
      <point x="96" y="74" type="curve"/>
      <point x="96" y="74"/>
      <point x="68" y="74"/>
      <point x="68" y="74" type="curve"/>
      <point x="68" y="74"/>
      <point x="-38" y="59"/>
      <point x="-38" y="59" type="curve"/>
      <point x="-38" y="59"/>
      <point x="-48" y="10"/>
    </contour>
    <contour>
      <point x="19" y="10" type="curve"/>
      <point x="19" y="10"/>
      <point x="76" y="10"/>
      <point x="76" y="10" type="curve"/>
      <point x="76" y="10"/>
      <point x="376" y="608"/>
      <point x="376" y="608" type="curve"/>
      <point x="376" y="608"/>
      <point x="382" y="618"/>
      <point x="382" y="618" type="curve"/>
      <point x="382" y="618"/>
      <point x="366" y="618"/>
      <point x="366" y="618" type="curve"/>
      <point x="366" y="618"/>
      <point x="450" y="10"/>
      <point x="450" y="10" type="curve"/>
      <point x="450" y="10"/>
      <point x="612" y="10"/>
      <point x="612" y="10" type="curve"/>
      <point x="612" y="10"/>
      <point x="498" y="747"/>
      <point x="498" y="747" type="curve"/>
      <point x="498" y="747"/>
      <point x="400" y="747"/>
      <point x="400" y="747" type="curve"/>
      <point x="400" y="747"/>
      <point x="19" y="10"/>
    </contour>
    <contour>
      <point x="178" y="238" type="curve"/>
      <point x="178" y="238"/>
      <point x="494" y="238"/>
      <point x="494" y="238" type="curve"/>
      <point x="494" y="238"/>
      <point x="489" y="293"/>
      <point x="489" y="293" type="curve"/>
      <point x="489" y="293"/>
      <point x="196" y="293"/>
      <point x="196" y="293" type="curve"/>
      <point x="196" y="293"/>
      <point x="178" y="238"/>
    </contour>
    <contour>
      <point x="343" y="10" type="curve"/>
      <point x="343" y="10"/>
      <point x="674" y="10"/>
      <point x="674" y="10" type="curve"/>
      <point x="674" y="10"/>
      <point x="684" y="59"/>
      <point x="684" y="59" type="curve"/>
      <point x="684" y="59"/>
      <point x="551" y="76"/>
      <point x="551" y="76" type="curve"/>
      <point x="551" y="76"/>
      <point x="504" y="76"/>
      <point x="504" y="76" type="curve"/>
      <point x="504" y="76"/>
      <point x="353" y="59"/>
      <point x="353" y="59" type="curve"/>
      <point x="353" y="59"/>
      <point x="343" y="10"/>
    </contour>
    <contour>
      <point x="370" y="825" type="curve"/>
      <point x="370" y="825"/>
      <point x="390" y="794"/>
      <point x="390" y="794" type="curve"/>
      <point x="449" y="815"/>
      <point x="508" y="837"/>
      <point x="569" y="859" type="curve" smooth="yes"/>
      <point x="623" y="880"/>
      <point x="633" y="908"/>
      <point x="633" y="931" type="curve" smooth="yes"/>
      <point x="633" y="958"/>
      <point x="613" y="984"/>
      <point x="578" y="984" type="curve" smooth="yes"/>
      <point x="550" y="984"/>
      <point x="530" y="975"/>
      <point x="494" y="944" type="curve" smooth="yes"/>
      <point x="451" y="905"/>
      <point x="410" y="866"/>
    </contour>
  </outline>
</glyph>
<glyph name="cid40108" format="2">
  <advance height="1000" width="740"/>
  <unicode hex="00C2"/>
  <outline>
    <contour>
      <point x="-48" y="10" type="line"/>
      <point x="186" y="10" type="line"/>
      <point x="196" y="59" type="line"/>
      <point x="96" y="74" type="line"/>
      <point x="68" y="74" type="line"/>
      <point x="-38" y="59" type="line"/>
    </contour>
    <contour>
      <point x="19" y="10" type="line"/>
      <point x="76" y="10" type="line"/>
      <point x="376" y="608" type="line"/>
      <point x="382" y="618" type="line"/>
      <point x="366" y="618" type="line"/>
      <point x="450" y="10" type="line"/>
      <point x="612" y="10" type="line"/>
      <point x="498" y="747" type="line"/>
      <point x="400" y="747" type="line"/>
    </contour>
    <contour>
      <point x="178" y="238" type="line"/>
      <point x="494" y="238" type="line"/>
      <point x="489" y="293" type="line"/>
      <point x="196" y="293" type="line"/>
    </contour>
    <contour>
      <point x="343" y="10" type="line"/>
      <point x="674" y="10" type="line"/>
      <point x="684" y="59" type="line"/>
      <point x="551" y="76" type="line"/>
      <point x="504" y="76" type="line"/>
      <point x="353" y="59" type="line"/>
    </contour>
    <contour>
      <point x="520" y="982" type="line"/>
      <point x="452" y="982" type="line"/>
      <point x="272" y="816" type="line"/>
      <point x="291" y="786" type="line"/>
      <point x="515" y="914" type="line"/>
      <point x="437" y="914" type="line"/>
      <point x="618" y="786" type="line"/>
      <point x="645" y="813" type="line"/>
    </contour>
  </outline>
</glyph>
<glyph name="cid40110" format="2">
  <advance height="1000" width="740"/>
  <unicode hex="00C3"/>
  <outline>
    <contour>
      <point x="-48" y="10" type="curve"/>
      <point x="-48" y="10"/>
      <point x="186" y="10"/>
      <point x="186" y="10" type="curve"/>
      <point x="186" y="10"/>
      <point x="196" y="59"/>
      <point x="196" y="59" type="curve"/>
      <point x="196" y="59"/>
      <point x="96" y="74"/>
      <point x="96" y="74" type="curve"/>
      <point x="96" y="74"/>
      <point x="68" y="74"/>
      <point x="68" y="74" type="curve"/>
      <point x="68" y="74"/>
      <point x="-38" y="59"/>
      <point x="-38" y="59" type="curve"/>
      <point x="-38" y="59"/>
      <point x="-48" y="10"/>
    </contour>
    <contour>
      <point x="19" y="10" type="curve"/>
      <point x="19" y="10"/>
      <point x="76" y="10"/>
      <point x="76" y="10" type="curve"/>
      <point x="76" y="10"/>
      <point x="376" y="608"/>
      <point x="376" y="608" type="curve"/>
      <point x="376" y="608"/>
      <point x="382" y="618"/>
      <point x="382" y="618" type="curve"/>
      <point x="382" y="618"/>
      <point x="366" y="618"/>
      <point x="366" y="618" type="curve"/>
      <point x="366" y="618"/>
      <point x="450" y="10"/>
      <point x="450" y="10" type="curve"/>
      <point x="450" y="10"/>
      <point x="612" y="10"/>
      <point x="612" y="10" type="curve"/>
      <point x="612" y="10"/>
      <point x="498" y="747"/>
      <point x="498" y="747" type="curve"/>
      <point x="498" y="747"/>
      <point x="400" y="747"/>
      <point x="400" y="747" type="curve"/>
      <point x="400" y="747"/>
      <point x="19" y="10"/>
    </contour>
    <contour>
      <point x="178" y="238" type="curve"/>
      <point x="178" y="238"/>
      <point x="494" y="238"/>
      <point x="494" y="238" type="curve"/>
      <point x="494" y="238"/>
      <point x="489" y="293"/>
      <point x="489" y="293" type="curve"/>
      <point x="489" y="293"/>
      <point x="196" y="293"/>
      <point x="196" y="293" type="curve"/>
      <point x="196" y="293"/>
      <point x="178" y="238"/>
    </contour>
    <contour>
      <point x="343" y="10" type="curve"/>
      <point x="343" y="10"/>
      <point x="674" y="10"/>
      <point x="674" y="10" type="curve"/>
      <point x="674" y="10"/>
      <point x="684" y="59"/>
      <point x="684" y="59" type="curve"/>
      <point x="684" y="59"/>
      <point x="551" y="76"/>
      <point x="551" y="76" type="curve"/>
      <point x="551" y="76"/>
      <point x="504" y="76"/>
      <point x="504" y="76" type="curve"/>
      <point x="504" y="76"/>
      <point x="353" y="59"/>
      <point x="353" y="59" type="curve"/>
      <point x="353" y="59"/>
      <point x="343" y="10"/>
    </contour>
    <contour>
      <point x="271" y="815" type="curve"/>
      <point x="271" y="815"/>
      <point x="307" y="800"/>
      <point x="307" y="800" type="curve"/>
      <point x="328" y="840"/>
      <point x="355" y="866"/>
      <point x="386" y="866" type="curve" smooth="yes"/>
      <point x="412" y="866"/>
      <point x="431" y="846"/>
      <point x="451" y="830" type="curve" smooth="yes"/>
      <point x="472" y="814"/>
      <point x="495" y="798"/>
      <point x="528" y="798" type="curve" smooth="yes"/>
      <point x="587" y="798"/>
      <point x="642" y="856"/>
      <point x="671" y="952" type="curve"/>
      <point x="671" y="952"/>
      <point x="635" y="969"/>
      <point x="635" y="969" type="curve"/>
      <point x="614" y="928"/>
      <point x="587" y="902"/>
      <point x="556" y="902" type="curve" smooth="yes"/>
      <point x="530" y="902"/>
      <point x="511" y="921"/>
      <point x="491" y="937" type="curve" smooth="yes"/>
      <point x="470" y="953"/>
      <point x="449" y="969"/>
      <point x="416" y="969" type="curve" smooth="yes"/>
      <point x="356" y="969"/>
      <point x="300" y="914"/>
    </contour>
  </outline>
</glyph>
<glyph name="cid40112" format="2">
  <advance height="1000" width="740"/>
  <unicode hex="00C4"/>
  <outline>
    <contour>
      <point x="-48" y="10" type="line"/>
      <point x="186" y="10" type="line"/>
      <point x="196" y="59" type="line"/>
      <point x="96" y="74" type="line"/>
      <point x="68" y="74" type="line"/>
      <point x="-38" y="59" type="line"/>
    </contour>
    <contour>
      <point x="19" y="10" type="line"/>
      <point x="76" y="10" type="line"/>
      <point x="376" y="608" type="line"/>
      <point x="382" y="618" type="line"/>
      <point x="366" y="618" type="line"/>
      <point x="450" y="10" type="line"/>
      <point x="612" y="10" type="line"/>
      <point x="498" y="747" type="line"/>
      <point x="400" y="747" type="line"/>
    </contour>
    <contour>
      <point x="178" y="238" type="line"/>
      <point x="494" y="238" type="line"/>
      <point x="489" y="293" type="line"/>
      <point x="196" y="293" type="line"/>
    </contour>
    <contour>
      <point x="343" y="10" type="line"/>
      <point x="674" y="10" type="line"/>
      <point x="684" y="59" type="line"/>
      <point x="551" y="76" type="line"/>
      <point x="504" y="76" type="line"/>
      <point x="353" y="59" type="line"/>
    </contour>
    <contour>
      <point x="336" y="812" type="curve" smooth="yes"/>
      <point x="375" y="812"/>
      <point x="414" y="842"/>
      <point x="414" y="894" type="curve" smooth="yes"/>
      <point x="414" y="931"/>
      <point x="385" y="955"/>
      <point x="348" y="955" type="curve" smooth="yes"/>
      <point x="310" y="955"/>
      <point x="269" y="927"/>
      <point x="269" y="875" type="curve" smooth="yes"/>
      <point x="269" y="835"/>
      <point x="302" y="812"/>
    </contour>
    <contour>
      <point x="586" y="812" type="curve" smooth="yes"/>
      <point x="626" y="812"/>
      <point x="665" y="842"/>
      <point x="665" y="894" type="curve" smooth="yes"/>
      <point x="665" y="931"/>
      <point x="636" y="955"/>
      <point x="599" y="955" type="curve" smooth="yes"/>
      <point x="561" y="955"/>
      <point x="521" y="927"/>
      <point x="521" y="875" type="curve" smooth="yes"/>
      <point x="521" y="835"/>
      <point x="553" y="812"/>
    </contour>
  </outline>
</glyph>
<glyph name="cid40135" format="2">
  <advance height="1000" width="740"/>
  <unicode hex="00C5"/>
  <outline>
    <contour>
      <point x="-48" y="10" type="line"/>
      <point x="186" y="10" type="line"/>
      <point x="196" y="59" type="line"/>
      <point x="96" y="74" type="line"/>
      <point x="68" y="74" type="line"/>
      <point x="-38" y="59" type="line"/>
    </contour>
    <contour>
      <point x="19" y="10" type="line"/>
      <point x="76" y="10" type="line"/>
      <point x="376" y="608" type="line"/>
      <point x="382" y="618" type="line"/>
      <point x="366" y="618" type="line"/>
      <point x="450" y="10" type="line"/>
      <point x="612" y="10" type="line"/>
      <point x="498" y="747" type="line"/>
      <point x="400" y="747" type="line"/>
    </contour>
    <contour>
      <point x="178" y="238" type="line"/>
      <point x="494" y="238" type="line"/>
      <point x="489" y="293" type="line"/>
      <point x="196" y="293" type="line"/>
    </contour>
    <contour>
      <point x="343" y="10" type="line"/>
      <point x="674" y="10" type="line"/>
      <point x="684" y="59" type="line"/>
      <point x="551" y="76" type="line"/>
      <point x="504" y="76" type="line"/>
      <point x="353" y="59" type="line"/>
    </contour>
    <contour>
      <point x="467" y="794" type="curve" smooth="yes"/>
      <point x="531" y="794"/>
      <point x="590" y="838"/>
      <point x="590" y="917" type="curve" smooth="yes"/>
      <point x="590" y="977"/>
      <point x="545" y="1014"/>
      <point x="484" y="1014" type="curve" smooth="yes"/>
      <point x="420" y="1014"/>
      <point x="360" y="968"/>
      <point x="360" y="891" type="curve" smooth="yes"/>
      <point x="360" y="830"/>
      <point x="410" y="794"/>
    </contour>
    <contour>
      <point x="468" y="839" type="curve" smooth="yes"/>
      <point x="432" y="839"/>
      <point x="412" y="863"/>
      <point x="412" y="895" type="curve" smooth="yes"/>
      <point x="412" y="936"/>
      <point x="441" y="969"/>
      <point x="480" y="969" type="curve" smooth="yes"/>
      <point x="517" y="969"/>
      <point x="536" y="944"/>
      <point x="536" y="913" type="curve" smooth="yes"/>
      <point x="536" y="870"/>
      <point x="507" y="839"/>
    </contour>
  </outline>
</glyph>
<glyph name="cid40140" format="2">
  <advance height="1000" width="659"/>
  <unicode hex="00C7"/>
  <outline>
    <contour>
      <point x="360" y="-10" type="curve" smooth="yes"/>
      <point x="449" y="-10"/>
      <point x="516" y="12"/>
      <point x="572" y="42" type="curve"/>
      <point x="572" y="42"/>
      <point x="601" y="221"/>
      <point x="601" y="221" type="curve"/>
      <point x="601" y="221"/>
      <point x="533" y="221"/>
      <point x="533" y="221" type="curve"/>
      <point x="533" y="221"/>
      <point x="455" y="32"/>
      <point x="455" y="32" type="curve"/>
      <point x="455" y="32"/>
      <point x="526" y="85"/>
      <point x="526" y="85" type="curve"/>
      <point x="480" y="59"/>
      <point x="435" y="44"/>
      <point x="386" y="44" type="curve" smooth="yes"/>
      <point x="270" y="44"/>
      <point x="203" y="139"/>
      <point x="203" y="286" type="curve" smooth="yes"/>
      <point x="203" y="499"/>
      <point x="314" y="712"/>
      <point x="478" y="712" type="curve" smooth="yes"/>
      <point x="528" y="712"/>
      <point x="569" y="695"/>
      <point x="609" y="657" type="curve"/>
      <point x="609" y="657"/>
      <point x="561" y="713"/>
      <point x="561" y="713" type="curve"/>
      <point x="561" y="713"/>
      <point x="579" y="539"/>
      <point x="579" y="539" type="curve"/>
      <point x="579" y="539"/>
      <point x="646" y="539"/>
      <point x="646" y="539" type="curve"/>
      <point x="646" y="539"/>
      <point x="671" y="712"/>
      <point x="671" y="712" type="curve"/>
      <point x="607" y="750"/>
      <point x="542" y="766"/>
      <point x="465" y="766" type="curve" smooth="yes"/>
      <point x="205" y="766"/>
      <point x="36" y="548"/>
      <point x="36" y="296" type="curve" smooth="yes"/>
      <point x="36" y="100"/>
      <point x="169" y="-10"/>
    </contour>
    <contour>
      <point x="306" y="-85" type="curve"/>
      <point x="349" y="-93"/>
      <point x="375" y="-112"/>
      <point x="375" y="-145" type="curve" smooth="yes"/>
      <point x="375" y="-177"/>
      <point x="351" y="-198"/>
      <point x="311" y="-198" type="curve" smooth="yes"/>
      <point x="290" y="-198"/>
      <point x="270" y="-194"/>
      <point x="250" y="-185" type="curve"/>
      <point x="250" y="-185"/>
      <point x="233" y="-222"/>
      <point x="233" y="-222" type="curve"/>
      <point x="254" y="-236"/>
      <point x="287" y="-246"/>
      <point x="328" y="-246" type="curve" smooth="yes"/>
      <point x="416" y="-246"/>
      <point x="464" y="-203"/>
      <point x="464" y="-150" type="curve" smooth="yes"/>
      <point x="464" y="-99"/>
      <point x="427" y="-67"/>
      <point x="338" y="-47" type="curve"/>
      <point x="338" y="-47"/>
      <point x="353" y="-73"/>
      <point x="353" y="-73" type="curve"/>
      <point x="353" y="-73"/>
      <point x="391" y="10"/>
      <point x="391" y="10" type="curve"/>
      <point x="391" y="10"/>
      <point x="349" y="10"/>
      <point x="349" y="10" type="curve"/>
      <point x="349" y="10"/>
      <point x="306" y="-85"/>
    </contour>
  </outline>
</glyph>
<glyph name="cid40161" format="2">
  <advance height="1000" width="636"/>
  <unicode hex="00C8"/>
  <outline>
    <contour>
      <point x="-19" y="10" type="line"/>
      <point x="156" y="10" type="line"/>
      <point x="167" y="76" type="line"/>
      <point x="134" y="76" type="line"/>
      <point x="-9" y="59" type="line"/>
    </contour>
    <contour>
      <point x="63" y="10" type="line"/>
      <point x="228" y="10" type="line"/>
      <point x="248" y="125"/>
      <point x="268" y="242"/>
      <point x="289" y="358" type="curve" smooth="yes"/>
      <point x="363" y="746" type="line"/>
      <point x="196" y="746" type="line"/>
      <point x="178" y="630"/>
      <point x="159" y="514"/>
      <point x="137" y="399" type="curve" smooth="yes"/>
    </contour>
    <contour>
      <point x="105" y="697" type="line"/>
      <point x="246" y="680" type="line"/>
      <point x="279" y="680" type="line"/>
      <point x="290" y="746" type="line"/>
      <point x="115" y="746" type="line"/>
    </contour>
    <contour>
      <point x="142" y="10" type="line"/>
      <point x="540" y="10" type="line"/>
      <point x="585" y="208" type="line"/>
      <point x="515" y="208" type="line"/>
      <point x="433" y="14" type="line"/>
      <point x="510" y="63" type="line"/>
      <point x="152" y="63" type="line"/>
    </contour>
    <contour>
      <point x="208" y="359" type="line"/>
      <point x="438" y="359" type="line"/>
      <point x="448" y="415" type="line"/>
      <point x="220" y="415" type="line"/>
    </contour>
    <contour>
      <point x="264" y="693" type="line"/>
      <point x="589" y="693" type="line"/>
      <point x="533" y="742" type="line"/>
      <point x="545" y="552" type="line"/>
      <point x="614" y="552" type="line"/>
      <point x="641" y="746" type="line"/>
      <point x="274" y="746" type="line"/>
    </contour>
    <contour>
      <point x="417" y="266" type="line"/>
      <point x="467" y="266" type="line"/>
      <point x="512" y="511" type="line"/>
      <point x="463" y="511" type="line"/>
      <point x="418" y="401" type="line"/>
      <point x="414" y="381" type="line"/>
    </contour>
    <contour>
      <point x="467" y="829" type="line"/>
      <point x="427" y="869"/>
      <point x="386" y="908"/>
      <point x="347" y="945" type="curve" smooth="yes"/>
      <point x="314" y="978"/>
      <point x="292" y="988"/>
      <point x="268" y="988" type="curve" smooth="yes"/>
      <point x="233" y="988"/>
      <point x="211" y="960"/>
      <point x="211" y="933" type="curve" smooth="yes"/>
      <point x="211" y="914"/>
      <point x="220" y="885"/>
      <point x="272" y="862" type="curve" smooth="yes"/>
      <point x="329" y="838"/>
      <point x="388" y="816"/>
      <point x="445" y="795" type="curve"/>
    </contour>
  </outline>
</glyph>
<glyph name="cid40164" format="2">
  <advance height="1000" width="636"/>
  <unicode hex="00CA"/>
  <outline>
    <contour>
      <point x="-19" y="10" type="line"/>
      <point x="156" y="10" type="line"/>
      <point x="167" y="76" type="line"/>
      <point x="134" y="76" type="line"/>
      <point x="-9" y="59" type="line"/>
    </contour>
    <contour>
      <point x="63" y="10" type="line"/>
      <point x="228" y="10" type="line"/>
      <point x="248" y="125"/>
      <point x="268" y="242"/>
      <point x="289" y="358" type="curve" smooth="yes"/>
      <point x="363" y="746" type="line"/>
      <point x="196" y="746" type="line"/>
      <point x="178" y="630"/>
      <point x="159" y="514"/>
      <point x="137" y="399" type="curve" smooth="yes"/>
    </contour>
    <contour>
      <point x="105" y="697" type="line"/>
      <point x="246" y="680" type="line"/>
      <point x="279" y="680" type="line"/>
      <point x="290" y="746" type="line"/>
      <point x="115" y="746" type="line"/>
    </contour>
    <contour>
      <point x="142" y="10" type="line"/>
      <point x="540" y="10" type="line"/>
      <point x="585" y="208" type="line"/>
      <point x="515" y="208" type="line"/>
      <point x="433" y="14" type="line"/>
      <point x="510" y="63" type="line"/>
      <point x="152" y="63" type="line"/>
    </contour>
    <contour>
      <point x="208" y="359" type="line"/>
      <point x="438" y="359" type="line"/>
      <point x="448" y="415" type="line"/>
      <point x="220" y="415" type="line"/>
    </contour>
    <contour>
      <point x="264" y="693" type="line"/>
      <point x="589" y="693" type="line"/>
      <point x="533" y="742" type="line"/>
      <point x="545" y="552" type="line"/>
      <point x="614" y="552" type="line"/>
      <point x="641" y="746" type="line"/>
      <point x="274" y="746" type="line"/>
    </contour>
    <contour>
      <point x="417" y="266" type="line"/>
      <point x="467" y="266" type="line"/>
      <point x="512" y="511" type="line"/>
      <point x="463" y="511" type="line"/>
      <point x="418" y="401" type="line"/>
      <point x="414" y="381" type="line"/>
    </contour>
    <contour>
      <point x="472" y="982" type="line"/>
      <point x="404" y="982" type="line"/>
      <point x="224" y="816" type="line"/>
      <point x="243" y="786" type="line"/>
      <point x="467" y="914" type="line"/>
      <point x="389" y="914" type="line"/>
      <point x="570" y="786" type="line"/>
      <point x="597" y="813" type="line"/>
    </contour>
  </outline>
</glyph>
<glyph name="cid40207" format="2">
  <advance height="1000" width="403"/>
  <unicode hex="00CC"/>
  <outline>
    <contour>
      <point x="-19" y="10" type="line"/>
      <point x="311" y="10" type="line"/>
      <point x="321" y="59" type="line"/>
      <point x="181" y="76" type="line"/>
      <point x="139" y="76" type="line"/>
      <point x="-9" y="59" type="line"/>
    </contour>
    <contour>
      <point x="63" y="10" type="line"/>
      <point x="228" y="10" type="line"/>
      <point x="248" y="125"/>
      <point x="268" y="242"/>
      <point x="289" y="358" type="curve" smooth="yes"/>
      <point x="363" y="746" type="line"/>
      <point x="196" y="746" type="line"/>
      <point x="178" y="630"/>
      <point x="159" y="514"/>
      <point x="137" y="399" type="curve" smooth="yes"/>
    </contour>
    <contour>
      <point x="105" y="697" type="line"/>
      <point x="250" y="680" type="line"/>
      <point x="292" y="680" type="line"/>
      <point x="437" y="697" type="line"/>
      <point x="446" y="746" type="line"/>
      <point x="115" y="746" type="line"/>
    </contour>
    <contour>
      <point x="348" y="829" type="line"/>
      <point x="308" y="869"/>
      <point x="268" y="908"/>
      <point x="228" y="945" type="curve" smooth="yes"/>
      <point x="195" y="978"/>
      <point x="174" y="988"/>
      <point x="149" y="988" type="curve" smooth="yes"/>
      <point x="114" y="988"/>
      <point x="92" y="960"/>
      <point x="92" y="933" type="curve" smooth="yes"/>
      <point x="92" y="914"/>
      <point x="101" y="885"/>
      <point x="153" y="862" type="curve" smooth="yes"/>
      <point x="211" y="838"/>
      <point x="269" y="816"/>
      <point x="326" y="795" type="curve"/>
    </contour>
  </outline>
</glyph>
<glyph name="cid40210" format="2">
  <advance height="1000" width="403"/>
  <unicode hex="00CE"/>
  <outline>
    <contour>
      <point x="-19" y="10" type="line"/>
      <point x="311" y="10" type="line"/>
      <point x="321" y="59" type="line"/>
      <point x="181" y="76" type="line"/>
      <point x="139" y="76" type="line"/>
      <point x="-9" y="59" type="line"/>
    </contour>
    <contour>
      <point x="63" y="10" type="line"/>
      <point x="228" y="10" type="line"/>
      <point x="248" y="125"/>
      <point x="268" y="242"/>
      <point x="289" y="358" type="curve" smooth="yes"/>
      <point x="363" y="746" type="line"/>
      <point x="196" y="746" type="line"/>
      <point x="178" y="630"/>
      <point x="159" y="514"/>
      <point x="137" y="399" type="curve" smooth="yes"/>
    </contour>
    <contour>
      <point x="105" y="697" type="line"/>
      <point x="250" y="680" type="line"/>
      <point x="292" y="680" type="line"/>
      <point x="437" y="697" type="line"/>
      <point x="446" y="746" type="line"/>
      <point x="115" y="746" type="line"/>
    </contour>
    <contour>
      <point x="353" y="982" type="line"/>
      <point x="286" y="982" type="line"/>
      <point x="105" y="816" type="line"/>
      <point x="124" y="786" type="line"/>
      <point x="348" y="914" type="line"/>
      <point x="270" y="914" type="line"/>
      <point x="451" y="786" type="line"/>
      <point x="478" y="813" type="line"/>
    </contour>
  </outline>
</glyph>
<glyph name="cid40245" format="2">
  <advance height="1000" width="753"/>
  <unicode hex="00D1"/>
  <outline>
    <contour>
      <point x="-29" y="10" type="line"/>
      <point x="231" y="10" type="line"/>
      <point x="240" y="59" type="line"/>
      <point x="116" y="74" type="line"/>
      <point x="87" y="74" type="line"/>
      <point x="-20" y="59" type="line"/>
    </contour>
    <contour>
      <point x="58" y="10" type="line"/>
      <point x="116" y="10" type="line"/>
      <point x="186" y="377" type="line"/>
      <point x="253" y="734" type="line"/>
      <point x="195" y="734" type="line"/>
    </contour>
    <contour>
      <point x="541" y="697" type="line"/>
      <point x="672" y="682" type="line"/>
      <point x="700" y="682" type="line"/>
      <point x="801" y="697" type="line"/>
      <point x="811" y="746" type="line"/>
      <point x="551" y="746" type="line"/>
    </contour>
    <contour>
      <point x="615" y="202" type="line"/>
      <point x="595" y="202" type="line"/>
      <point x="324" y="746" type="line"/>
      <point x="109" y="746" type="line"/>
      <point x="99" y="697" type="line"/>
      <point x="171" y="689" type="line"/>
      <point x="197" y="636" type="line"/>
      <point x="202" y="626" type="line"/>
      <point x="508" y="7" type="line"/>
      <point x="588" y="7" type="line"/>
      <point x="726" y="746" type="line"/>
      <point x="668" y="746" type="line"/>
      <point x="599" y="377" type="line"/>
      <point x="554" y="135" type="line"/>
    </contour>
    <contour>
      <point x="271" y="815" type="curve"/>
      <point x="307" y="800" type="line"/>
      <point x="328" y="840"/>
      <point x="355" y="866"/>
      <point x="386" y="866" type="curve" smooth="yes"/>
      <point x="412" y="866"/>
      <point x="431" y="846"/>
      <point x="451" y="830" type="curve" smooth="yes"/>
      <point x="472" y="814"/>
      <point x="495" y="798"/>
      <point x="528" y="798" type="curve" smooth="yes"/>
      <point x="587" y="798"/>
      <point x="642" y="856"/>
      <point x="671" y="952" type="curve"/>
      <point x="635" y="969" type="line"/>
      <point x="614" y="928"/>
      <point x="587" y="902"/>
      <point x="556" y="902" type="curve" smooth="yes"/>
      <point x="530" y="902"/>
      <point x="511" y="921"/>
      <point x="491" y="937" type="curve" smooth="yes"/>
      <point x="470" y="953"/>
      <point x="449" y="969"/>
      <point x="416" y="969" type="curve" smooth="yes"/>
      <point x="356" y="969"/>
      <point x="300" y="914"/>
    </contour>
  </outline>
</glyph>
<glyph name="cid40252" format="2">
  <advance height="1000" width="732"/>
  <unicode hex="00D2"/>
  <outline>
    <contour>
      <point x="310" y="-10" type="curve" smooth="yes"/>
      <point x="566" y="-10"/>
      <point x="719" y="219"/>
      <point x="719" y="469" type="curve" smooth="yes"/>
      <point x="719" y="658"/>
      <point x="606" y="766"/>
      <point x="445" y="766" type="curve" smooth="yes"/>
      <point x="190" y="766"/>
      <point x="36" y="532"/>
      <point x="36" y="289" type="curve" smooth="yes"/>
      <point x="36" y="87"/>
      <point x="153" y="-10"/>
    </contour>
    <contour>
      <point x="318" y="44" type="curve" smooth="yes"/>
      <point x="235" y="44"/>
      <point x="200" y="114"/>
      <point x="200" y="244" type="curve" smooth="yes"/>
      <point x="200" y="473"/>
      <point x="302" y="712"/>
      <point x="438" y="712" type="curve" smooth="yes"/>
      <point x="523" y="712"/>
      <point x="554" y="643"/>
      <point x="554" y="516" type="curve" smooth="yes"/>
      <point x="554" y="288"/>
      <point x="454" y="44"/>
    </contour>
    <contour>
      <point x="510" y="829" type="line"/>
      <point x="469" y="869"/>
      <point x="429" y="908"/>
      <point x="390" y="945" type="curve" smooth="yes"/>
      <point x="356" y="978"/>
      <point x="335" y="988"/>
      <point x="310" y="988" type="curve" smooth="yes"/>
      <point x="276" y="988"/>
      <point x="253" y="960"/>
      <point x="253" y="933" type="curve" smooth="yes"/>
      <point x="253" y="914"/>
      <point x="262" y="885"/>
      <point x="315" y="862" type="curve" smooth="yes"/>
      <point x="372" y="838"/>
      <point x="430" y="816"/>
      <point x="487" y="795" type="curve"/>
    </contour>
  </outline>
</glyph>
<glyph name="cid40257" format="2">
  <advance height="1000" width="732"/>
  <unicode hex="00D4"/>
  <outline>
    <contour>
      <point x="310" y="-10" type="curve" smooth="yes"/>
      <point x="566" y="-10"/>
      <point x="719" y="219"/>
      <point x="719" y="469" type="curve" smooth="yes"/>
      <point x="719" y="658"/>
      <point x="606" y="766"/>
      <point x="445" y="766" type="curve" smooth="yes"/>
      <point x="190" y="766"/>
      <point x="36" y="532"/>
      <point x="36" y="289" type="curve" smooth="yes"/>
      <point x="36" y="87"/>
      <point x="153" y="-10"/>
    </contour>
    <contour>
      <point x="318" y="44" type="curve" smooth="yes"/>
      <point x="235" y="44"/>
      <point x="200" y="114"/>
      <point x="200" y="244" type="curve" smooth="yes"/>
      <point x="200" y="473"/>
      <point x="302" y="712"/>
      <point x="438" y="712" type="curve" smooth="yes"/>
      <point x="523" y="712"/>
      <point x="554" y="643"/>
      <point x="554" y="516" type="curve" smooth="yes"/>
      <point x="554" y="288"/>
      <point x="454" y="44"/>
    </contour>
    <contour>
      <point x="514" y="982" type="curve"/>
      <point x="514" y="982"/>
      <point x="447" y="982"/>
      <point x="447" y="982" type="curve"/>
      <point x="447" y="982"/>
      <point x="267" y="816"/>
      <point x="267" y="816" type="curve"/>
      <point x="267" y="816"/>
      <point x="286" y="786"/>
      <point x="286" y="786" type="curve"/>
      <point x="286" y="786"/>
      <point x="510" y="914"/>
      <point x="510" y="914" type="curve"/>
      <point x="510" y="914"/>
      <point x="431" y="914"/>
      <point x="431" y="914" type="curve"/>
      <point x="431" y="914"/>
      <point x="613" y="786"/>
      <point x="613" y="786" type="curve"/>
      <point x="613" y="786"/>
      <point x="640" y="813"/>
      <point x="640" y="813" type="curve"/>
      <point x="640" y="813"/>
      <point x="514" y="982"/>
    </contour>
  </outline>
</glyph>
<glyph name="cid41261" format="2">
  <advance height="1000" width="597"/>
  <unicode hex="00D7"/>
  <outline>
    <contour>
      <point x="487" y="126" type="line"/>
      <point x="544" y="184" type="line"/>
      <point x="119" y="616" type="line"/>
      <point x="62" y="559" type="line"/>
    </contour>
    <contour>
      <point x="544" y="559" type="line"/>
      <point x="487" y="616" type="line"/>
      <point x="62" y="184" type="line"/>
      <point x="119" y="126" type="line"/>
    </contour>
  </outline>
</glyph>
<glyph name="cid40288" format="2">
  <advance height="1000" width="732"/>
  <unicode hex="00D8"/>
  <outline>
    <contour>
      <point x="752" y="738" type="line"/>
      <point x="707" y="781" type="line"/>
      <point x="-8" y="18" type="line"/>
      <point x="37" y="-24" type="line"/>
    </contour>
    <contour>
      <point x="310" y="-10" type="curve" smooth="yes"/>
      <point x="563" y="-10"/>
      <point x="719" y="219"/>
      <point x="719" y="469" type="curve" smooth="yes"/>
      <point x="719" y="657"/>
      <point x="607" y="766"/>
      <point x="446" y="766" type="curve" smooth="yes"/>
      <point x="193" y="766"/>
      <point x="36" y="532"/>
      <point x="36" y="289" type="curve" smooth="yes"/>
      <point x="36" y="87"/>
      <point x="153" y="-10"/>
    </contour>
    <contour>
      <point x="318" y="44" type="curve" smooth="yes"/>
      <point x="232" y="44"/>
      <point x="193" y="109"/>
      <point x="193" y="243" type="curve" smooth="yes"/>
      <point x="193" y="471"/>
      <point x="302" y="712"/>
      <point x="439" y="712" type="curve" smooth="yes"/>
      <point x="528" y="712"/>
      <point x="562" y="648"/>
      <point x="562" y="518" type="curve" smooth="yes"/>
      <point x="562" y="289"/>
      <point x="455" y="44"/>
    </contour>
  </outline>
</glyph>
<glyph name="cid40321" format="2">
  <advance height="1000" width="743"/>
  <unicode hex="00D9"/>
  <outline>
    <contour>
      <point x="232" y="680" type="curve"/>
      <point x="232" y="680"/>
      <point x="274" y="680"/>
      <point x="274" y="680" type="curve"/>
      <point x="274" y="680"/>
      <point x="422" y="697"/>
      <point x="422" y="697" type="curve"/>
      <point x="422" y="697"/>
      <point x="431" y="746"/>
      <point x="431" y="746" type="curve"/>
      <point x="431" y="746"/>
      <point x="100" y="746"/>
      <point x="100" y="746" type="curve"/>
      <point x="100" y="746"/>
      <point x="91" y="697"/>
      <point x="91" y="697" type="curve"/>
      <point x="91" y="697"/>
      <point x="232" y="680"/>
    </contour>
    <contour>
      <point x="334" y="-10" type="curve" smooth="yes"/>
      <point x="496" y="-10"/>
      <point x="600" y="79"/>
      <point x="643" y="306" type="curve"/>
      <point x="643" y="306"/>
      <point x="725" y="746"/>
      <point x="725" y="746" type="curve"/>
      <point x="725" y="746"/>
      <point x="664" y="746"/>
      <point x="664" y="746" type="curve"/>
      <point x="664" y="746"/>
      <point x="581" y="306"/>
      <point x="581" y="306" type="curve"/>
      <point x="550" y="139"/>
      <point x="488" y="81"/>
      <point x="392" y="81" type="curve" smooth="yes"/>
      <point x="307" y="81"/>
      <point x="260" y="128"/>
      <point x="260" y="218" type="curve" smooth="yes"/>
      <point x="260" y="251"/>
      <point x="263" y="284"/>
      <point x="271" y="321" type="curve"/>
      <point x="271" y="321"/>
      <point x="351" y="746"/>
      <point x="351" y="746" type="curve"/>
      <point x="351" y="746"/>
      <point x="177" y="746"/>
      <point x="177" y="746" type="curve"/>
      <point x="159" y="633"/>
      <point x="139" y="520"/>
      <point x="118" y="404" type="curve"/>
      <point x="118" y="404"/>
      <point x="101" y="312"/>
      <point x="101" y="312" type="curve"/>
      <point x="94" y="275"/>
      <point x="91" y="240"/>
      <point x="91" y="208" type="curve" smooth="yes"/>
      <point x="91" y="55"/>
      <point x="188" y="-10"/>
    </contour>
    <contour>
      <point x="669" y="685" type="curve"/>
      <point x="669" y="685"/>
      <point x="697" y="685"/>
      <point x="697" y="685" type="curve"/>
      <point x="697" y="685"/>
      <point x="799" y="697"/>
      <point x="799" y="697" type="curve"/>
      <point x="799" y="697"/>
      <point x="809" y="746"/>
      <point x="809" y="746" type="curve"/>
      <point x="809" y="746"/>
      <point x="570" y="746"/>
      <point x="570" y="746" type="curve"/>
      <point x="570" y="746"/>
      <point x="561" y="697"/>
      <point x="561" y="697" type="curve"/>
      <point x="561" y="697"/>
      <point x="669" y="685"/>
    </contour>
    <contour>
      <point x="562" y="829" type="curve"/>
      <point x="522" y="869"/>
      <point x="482" y="908"/>
      <point x="442" y="945" type="curve" smooth="yes"/>
      <point x="409" y="978"/>
      <point x="388" y="988"/>
      <point x="363" y="988" type="curve" smooth="yes"/>
      <point x="328" y="988"/>
      <point x="306" y="960"/>
      <point x="306" y="933" type="curve" smooth="yes"/>
      <point x="306" y="914"/>
      <point x="315" y="885"/>
      <point x="367" y="862" type="curve" smooth="yes"/>
      <point x="424" y="838"/>
      <point x="483" y="816"/>
      <point x="540" y="795" type="curve"/>
      <point x="540" y="795"/>
      <point x="562" y="829"/>
    </contour>
  </outline>
</glyph>
<glyph name="cid40322" format="2">
  <advance height="1000" width="743"/>
  <unicode hex="00DA"/>
  <outline>
    <contour>
      <point x="232" y="680" type="line"/>
      <point x="274" y="680" type="line"/>
      <point x="422" y="697" type="line"/>
      <point x="431" y="746" type="line"/>
      <point x="100" y="746" type="line"/>
      <point x="91" y="697" type="line"/>
    </contour>
    <contour>
      <point x="334" y="-10" type="curve" smooth="yes"/>
      <point x="496" y="-10"/>
      <point x="600" y="79"/>
      <point x="643" y="306" type="curve" smooth="yes"/>
      <point x="725" y="746" type="line"/>
      <point x="664" y="746" type="line"/>
      <point x="581" y="306" type="line" smooth="yes"/>
      <point x="550" y="139"/>
      <point x="488" y="81"/>
      <point x="392" y="81" type="curve" smooth="yes"/>
      <point x="307" y="81"/>
      <point x="260" y="128"/>
      <point x="260" y="218" type="curve" smooth="yes"/>
      <point x="260" y="251"/>
      <point x="263" y="284"/>
      <point x="271" y="321" type="curve" smooth="yes"/>
      <point x="351" y="746" type="line"/>
      <point x="177" y="746" type="line"/>
      <point x="159" y="633"/>
      <point x="139" y="520"/>
      <point x="118" y="404" type="curve" smooth="yes"/>
      <point x="101" y="312" type="line" smooth="yes"/>
      <point x="94" y="275"/>
      <point x="91" y="240"/>
      <point x="91" y="208" type="curve" smooth="yes"/>
      <point x="91" y="55"/>
      <point x="188" y="-10"/>
    </contour>
    <contour>
      <point x="669" y="685" type="line"/>
      <point x="697" y="685" type="line"/>
      <point x="799" y="697" type="line"/>
      <point x="809" y="746" type="line"/>
      <point x="570" y="746" type="line"/>
      <point x="561" y="697" type="line"/>
    </contour>
    <contour>
      <point x="417" y="825" type="curve"/>
      <point x="437" y="794" type="line"/>
      <point x="496" y="815"/>
      <point x="556" y="837"/>
      <point x="616" y="859" type="curve" smooth="yes"/>
      <point x="670" y="880"/>
      <point x="680" y="908"/>
      <point x="680" y="931" type="curve" smooth="yes"/>
      <point x="680" y="958"/>
      <point x="660" y="984"/>
      <point x="625" y="984" type="curve" smooth="yes"/>
      <point x="597" y="984"/>
      <point x="577" y="975"/>
      <point x="541" y="944" type="curve" smooth="yes"/>
      <point x="498" y="905"/>
      <point x="457" y="866"/>
    </contour>
  </outline>
</glyph>
<glyph name="cid40325" format="2">
  <advance height="1000" width="743"/>
  <unicode hex="00DC"/>
  <outline>
    <contour>
      <point x="232" y="680" type="line"/>
      <point x="274" y="680" type="line"/>
      <point x="422" y="697" type="line"/>
      <point x="431" y="746" type="line"/>
      <point x="100" y="746" type="line"/>
      <point x="91" y="697" type="line"/>
    </contour>
    <contour>
      <point x="334" y="-10" type="curve" smooth="yes"/>
      <point x="496" y="-10"/>
      <point x="600" y="79"/>
      <point x="643" y="306" type="curve" smooth="yes"/>
      <point x="725" y="746" type="line"/>
      <point x="664" y="746" type="line"/>
      <point x="581" y="306" type="line" smooth="yes"/>
      <point x="550" y="139"/>
      <point x="488" y="81"/>
      <point x="392" y="81" type="curve" smooth="yes"/>
      <point x="307" y="81"/>
      <point x="260" y="128"/>
      <point x="260" y="218" type="curve" smooth="yes"/>
      <point x="260" y="251"/>
      <point x="263" y="284"/>
      <point x="271" y="321" type="curve" smooth="yes"/>
      <point x="351" y="746" type="line"/>
      <point x="177" y="746" type="line"/>
      <point x="159" y="633"/>
      <point x="139" y="520"/>
      <point x="118" y="404" type="curve" smooth="yes"/>
      <point x="101" y="312" type="line" smooth="yes"/>
      <point x="94" y="275"/>
      <point x="91" y="240"/>
      <point x="91" y="208" type="curve" smooth="yes"/>
      <point x="91" y="55"/>
      <point x="188" y="-10"/>
    </contour>
    <contour>
      <point x="669" y="685" type="line"/>
      <point x="697" y="685" type="line"/>
      <point x="799" y="697" type="line"/>
      <point x="809" y="746" type="line"/>
      <point x="570" y="746" type="line"/>
      <point x="561" y="697" type="line"/>
    </contour>
    <contour>
      <point x="383" y="812" type="curve" smooth="yes"/>
      <point x="422" y="812"/>
      <point x="461" y="842"/>
      <point x="461" y="894" type="curve" smooth="yes"/>
      <point x="461" y="931"/>
      <point x="432" y="955"/>
      <point x="395" y="955" type="curve" smooth="yes"/>
      <point x="357" y="955"/>
      <point x="316" y="927"/>
      <point x="316" y="875" type="curve" smooth="yes"/>
      <point x="316" y="835"/>
      <point x="349" y="812"/>
    </contour>
    <contour>
      <point x="633" y="812" type="curve" smooth="yes"/>
      <point x="673" y="812"/>
      <point x="712" y="842"/>
      <point x="712" y="894" type="curve" smooth="yes"/>
      <point x="712" y="931"/>
      <point x="683" y="955"/>
      <point x="646" y="955" type="curve" smooth="yes"/>
      <point x="608" y="955"/>
      <point x="568" y="927"/>
      <point x="568" y="875" type="curve" smooth="yes"/>
      <point x="568" y="835"/>
      <point x="600" y="812"/>
    </contour>
  </outline>
</glyph>
<glyph name="cid40363" format="2">
  <advance height="1000" width="643"/>
  <unicode hex="00DD"/>
  <outline>
    <contour>
      <point x="60" y="697" type="curve"/>
      <point x="60" y="697"/>
      <point x="203" y="680"/>
      <point x="203" y="680" type="curve"/>
      <point x="203" y="680"/>
      <point x="259" y="680"/>
      <point x="259" y="680" type="curve"/>
      <point x="259" y="680"/>
      <point x="392" y="697"/>
      <point x="392" y="697" type="curve"/>
      <point x="392" y="697"/>
      <point x="402" y="746"/>
      <point x="402" y="746" type="curve"/>
      <point x="402" y="746"/>
      <point x="71" y="746"/>
      <point x="71" y="746" type="curve"/>
      <point x="71" y="746"/>
      <point x="60" y="697"/>
    </contour>
    <contour>
      <point x="97" y="10" type="curve"/>
      <point x="97" y="10"/>
      <point x="449" y="10"/>
      <point x="449" y="10" type="curve"/>
      <point x="449" y="10"/>
      <point x="459" y="59"/>
      <point x="459" y="59" type="curve"/>
      <point x="459" y="59"/>
      <point x="312" y="76"/>
      <point x="312" y="76" type="curve"/>
      <point x="312" y="76"/>
      <point x="258" y="76"/>
      <point x="258" y="76" type="curve"/>
      <point x="258" y="76"/>
      <point x="108" y="59"/>
      <point x="108" y="59" type="curve"/>
      <point x="108" y="59"/>
      <point x="97" y="10"/>
    </contour>
    <contour>
      <point x="264" y="250" type="curve"/>
      <point x="264" y="250"/>
      <point x="364" y="250"/>
      <point x="364" y="250" type="curve"/>
      <point x="364" y="250"/>
      <point x="687" y="746"/>
      <point x="687" y="746" type="curve"/>
      <point x="687" y="746"/>
      <point x="625" y="746"/>
      <point x="625" y="746" type="curve"/>
      <point x="625" y="746"/>
      <point x="386" y="370"/>
      <point x="386" y="370" type="curve"/>
      <point x="386" y="370"/>
      <point x="381" y="359"/>
      <point x="381" y="359" type="curve"/>
      <point x="381" y="359"/>
      <point x="398" y="359"/>
      <point x="398" y="359" type="curve"/>
      <point x="398" y="359"/>
      <point x="291" y="746"/>
      <point x="291" y="746" type="curve"/>
      <point x="291" y="746"/>
      <point x="112" y="746"/>
      <point x="112" y="746" type="curve"/>
      <point x="112" y="746"/>
      <point x="264" y="250"/>
    </contour>
    <contour>
      <point x="190" y="10" type="curve"/>
      <point x="190" y="10"/>
      <point x="356" y="10"/>
      <point x="356" y="10" type="curve"/>
      <point x="375" y="126"/>
      <point x="395" y="240"/>
      <point x="418" y="358" type="curve"/>
      <point x="418" y="358"/>
      <point x="256" y="358"/>
      <point x="256" y="358" type="curve"/>
      <point x="256" y="358"/>
      <point x="190" y="10"/>
    </contour>
    <contour>
      <point x="507" y="697" type="curve"/>
      <point x="507" y="697"/>
      <point x="604" y="682"/>
      <point x="604" y="682" type="curve"/>
      <point x="604" y="682"/>
      <point x="628" y="682"/>
      <point x="628" y="682" type="curve"/>
      <point x="628" y="682"/>
      <point x="725" y="697"/>
      <point x="725" y="697" type="curve"/>
      <point x="725" y="697"/>
      <point x="735" y="746"/>
      <point x="735" y="746" type="curve"/>
      <point x="735" y="746"/>
      <point x="517" y="746"/>
      <point x="517" y="746" type="curve"/>
      <point x="517" y="746"/>
      <point x="507" y="697"/>
    </contour>
    <contour>
      <point x="375" y="825" type="curve"/>
      <point x="375" y="825"/>
      <point x="395" y="794"/>
      <point x="395" y="794" type="curve"/>
      <point x="455" y="815"/>
      <point x="514" y="837"/>
      <point x="575" y="859" type="curve" smooth="yes"/>
      <point x="628" y="880"/>
      <point x="638" y="908"/>
      <point x="638" y="931" type="curve" smooth="yes"/>
      <point x="638" y="958"/>
      <point x="618" y="984"/>
      <point x="584" y="984" type="curve" smooth="yes"/>
      <point x="556" y="984"/>
      <point x="535" y="975"/>
      <point x="500" y="944" type="curve" smooth="yes"/>
      <point x="457" y="905"/>
      <point x="416" y="866"/>
    </contour>
  </outline>
</glyph>
<glyph name="cid40383" format="2">
  <advance height="1000" width="642"/>
  <unicode hex="00DE"/>
  <outline>
    <contour>
      <point x="170" y="172" type="line"/>
      <point x="293" y="172" type="line" smooth="yes"/>
      <point x="530" y="172"/>
      <point x="637" y="281"/>
      <point x="637" y="412" type="curve" smooth="yes"/>
      <point x="637" y="533"/>
      <point x="558" y="608"/>
      <point x="366" y="608" type="curve" smooth="yes"/>
      <point x="253" y="608" type="line"/>
      <point x="242" y="554" type="line"/>
      <point x="354" y="554" type="line" smooth="yes"/>
      <point x="435" y="554"/>
      <point x="477" y="504"/>
      <point x="477" y="420" type="curve" smooth="yes"/>
      <point x="477" y="298"/>
      <point x="405" y="225"/>
      <point x="299" y="225" type="curve" smooth="yes"/>
      <point x="180" y="225" type="line"/>
    </contour>
    <contour>
      <point x="-19" y="10" type="line"/>
      <point x="311" y="10" type="line"/>
      <point x="321" y="59" type="line"/>
      <point x="181" y="76" type="line"/>
      <point x="139" y="76" type="line"/>
      <point x="-9" y="59" type="line"/>
    </contour>
    <contour>
      <point x="63" y="10" type="line"/>
      <point x="228" y="10" type="line"/>
      <point x="248" y="125"/>
      <point x="268" y="242"/>
      <point x="289" y="358" type="curve" smooth="yes"/>
      <point x="363" y="746" type="line"/>
      <point x="196" y="746" type="line"/>
      <point x="178" y="630"/>
      <point x="159" y="514"/>
      <point x="137" y="399" type="curve" smooth="yes"/>
    </contour>
    <contour>
      <point x="105" y="697" type="line"/>
      <point x="250" y="680" type="line"/>
      <point x="292" y="680" type="line"/>
      <point x="437" y="697" type="line"/>
      <point x="446" y="746" type="line"/>
      <point x="115" y="746" type="line"/>
    </contour>
  </outline>
</glyph>
<glyph name="cid40597" format="2">
  <advance height="1000" width="648"/>
  <unicode hex="00DF"/>
  <outline>
    <contour>
      <point x="-63" y="-259" type="curve" smooth="yes"/>
      <point x="-2" y="-259"/>
      <point x="60" y="-229"/>
      <point x="106" y="-177" type="curve" smooth="yes"/>
      <point x="160" y="-118"/>
      <point x="195" y="-36"/>
      <point x="213" y="77" type="curve" smooth="yes"/>
      <point x="239" y="225"/>
      <point x="262" y="403"/>
      <point x="289" y="577" type="curve" smooth="yes"/>
      <point x="311" y="723"/>
      <point x="363" y="798"/>
      <point x="440" y="798" type="curve" smooth="yes"/>
      <point x="484" y="798"/>
      <point x="511" y="767"/>
      <point x="511" y="716" type="curve" smooth="yes"/>
      <point x="511" y="655"/>
      <point x="485" y="616"/>
      <point x="436" y="569" type="curve" smooth="yes"/>
      <point x="379" y="515"/>
      <point x="326" y="470"/>
      <point x="326" y="399" type="curve" smooth="yes"/>
      <point x="326" y="333"/>
      <point x="360" y="284"/>
      <point x="413" y="233" type="curve" smooth="yes"/>
      <point x="461" y="188"/>
      <point x="486" y="152"/>
      <point x="486" y="114" type="curve" smooth="yes"/>
      <point x="486" y="69"/>
      <point x="457" y="35"/>
      <point x="404" y="35" type="curve" smooth="yes"/>
      <point x="382" y="35"/>
      <point x="363" y="37"/>
      <point x="339" y="39" type="curve"/>
      <point x="410" y="20" type="line"/>
      <point x="391" y="90" type="line" smooth="yes"/>
      <point x="380" y="137"/>
      <point x="355" y="154"/>
      <point x="323" y="154" type="curve" smooth="yes"/>
      <point x="289" y="154"/>
      <point x="269" y="134"/>
      <point x="263" y="102" type="curve"/>
      <point x="276" y="29"/>
      <point x="329" y="-7"/>
      <point x="422" y="-7" type="curve" smooth="yes"/>
      <point x="543" y="-7"/>
      <point x="620" y="67"/>
      <point x="620" y="159" type="curve" smooth="yes"/>
      <point x="620" y="231"/>
      <point x="589" y="275"/>
      <point x="533" y="329" type="curve" smooth="yes"/>
      <point x="479" y="381"/>
      <point x="447" y="424"/>
      <point x="447" y="476" type="curve" smooth="yes"/>
      <point x="447" y="516"/>
      <point x="472" y="544"/>
      <point x="506" y="567" type="curve"/>
      <point x="579" y="609"/>
      <point x="641" y="644"/>
      <point x="641" y="719" type="curve" smooth="yes"/>
      <point x="641" y="794"/>
      <point x="578" y="835"/>
      <point x="444" y="835" type="curve" smooth="yes"/>
      <point x="289" y="835"/>
      <point x="162" y="747"/>
      <point x="130" y="517" type="curve" smooth="yes"/>
      <point x="108" y="363"/>
      <point x="87" y="209"/>
      <point x="64" y="59" type="curve" smooth="yes"/>
      <point x="53" y="-14"/>
      <point x="39" y="-81"/>
      <point x="19" y="-137" type="curve"/>
      <point x="4" y="-173"/>
      <point x="-11" y="-199"/>
      <point x="-29" y="-220" type="curve"/>
      <point x="-29" y="-224" type="line"/>
      <point x="-9" y="-224" type="line"/>
      <point x="-9" y="-220" type="line"/>
      <point x="-34" y="-182" type="line" smooth="yes"/>
      <point x="-59" y="-145"/>
      <point x="-84" y="-122"/>
      <point x="-122" y="-122" type="curve" smooth="yes"/>
      <point x="-160" y="-122"/>
      <point x="-185" y="-147"/>
      <point x="-189" y="-183" type="curve"/>
      <point x="-174" y="-235"/>
      <point x="-134" y="-259"/>
    </contour>
  </outline>
</glyph>
